<svg width="22" height="21" viewBox="0 0 22 21" fill="none" xmlns="http://www.w3.org/2000/svg">
<path fill-rule="evenodd" clip-rule="evenodd" d="M6.44893 21C8.00399 21 9.49537 20.4205 10.595 19.3891C11.6946 18.3576 12.3123 16.9587 12.3123 15.5C12.3123 14.0413 11.6946 12.6424 10.595 11.6109C9.49537 10.5795 8.00399 10 6.44893 10C4.89387 10 3.4025 10.5795 2.30291 11.6109C1.20332 12.6424 0.585571 14.0413 0.585571 15.5C0.585571 16.9587 1.20332 18.3576 2.30291 19.3891C3.4025 20.4205 4.89387 21 6.44893 21ZM6.44893 12.007C6.5903 12.007 6.72588 12.0597 6.82585 12.1534C6.92581 12.2472 6.98197 12.3744 6.98197 12.507V15H9.63967C9.78104 15 9.91662 15.0527 10.0166 15.1464C10.1165 15.2402 10.1727 15.3674 10.1727 15.5C10.1727 15.6326 10.1165 15.7598 10.0166 15.8536C9.91662 15.9473 9.78104 16 9.63967 16H6.98197V18.493C6.98197 18.6256 6.92581 18.7528 6.82585 18.8466C6.72588 18.9403 6.5903 18.993 6.44893 18.993C6.30757 18.993 6.17199 18.9403 6.07202 18.8466C5.97206 18.7528 5.9159 18.6256 5.9159 18.493V16H3.2582C3.11683 16 2.98125 15.9473 2.88129 15.8536C2.78132 15.7598 2.72517 15.6326 2.72517 15.5C2.72517 15.3674 2.78132 15.2402 2.88129 15.1464C2.98125 15.0527 3.11683 15 3.2582 15H5.9159V12.507C5.9159 12.3744 5.97206 12.2472 6.07202 12.1534C6.17199 12.0597 6.30757 12.007 6.44893 12.007Z" fill="#3A5B8D"/>
<path d="M4.09509 8.25V4.25C4.09509 3.32174 4.4882 2.4315 5.18795 1.77513C5.88769 1.11875 6.83674 0.75 7.82632 0.75H10.4361C10.9682 0.749962 11.4941 0.856682 11.9787 1.063M11.9787 1.063C12.3862 1.2368 12.7581 1.47798 13.0746 1.775L19.4368 7.745C19.7567 8.045 20.0125 8.391 20.1948 8.77M11.9787 1.063L11.9797 6.77C11.9797 7.30043 12.2044 7.80914 12.6042 8.18421C13.0041 8.55929 13.5464 8.77 14.1118 8.77H20.1948M14.1779 19.25H16.7983C17.7879 19.25 18.737 18.8813 19.4367 18.2249C20.1365 17.5685 20.5296 16.6783 20.5296 15.75V10.22C20.5296 9.715 20.4134 9.221 20.1948 8.77" stroke="#3A5B8D" stroke-width="1.5" stroke-linecap="round" stroke-linejoin="round"/>
</svg>
