<svg width="22" height="17" viewBox="0 0 22 17" fill="none" xmlns="http://www.w3.org/2000/svg">
<path d="M14 10.1829C11.33 10.1829 6 11.5129 6 14.1829V16.1829H22V14.1829C22 11.5129 16.67 10.1829 14 10.1829ZM5 6.18286V3.18286H3V6.18286H0V8.18286H3V11.1829H5V8.18286H8V6.18286M14 8.18286C15.0609 8.18286 16.0783 7.76143 16.8284 7.01129C17.5786 6.26114 18 5.24373 18 4.18286C18 3.122 17.5786 2.10458 16.8284 1.35443C16.0783 0.604289 15.0609 0.182861 14 0.182861C12.9391 0.182861 11.9217 0.604289 11.1716 1.35443C10.4214 2.10458 10 3.122 10 4.18286C10 5.24373 10.4214 6.26114 11.1716 7.01129C11.9217 7.76143 12.9391 8.18286 14 8.18286Z" fill="#3A5B8D"/>
</svg>
