<svg width="14" height="14" viewBox="0 0 14 14" fill="none" xmlns="http://www.w3.org/2000/svg">
<path d="M13.1666 7.66634V4.66634C13.1666 3.78229 12.8154 2.93444 12.1903 2.30932C11.5652 1.6842 10.7173 1.33301 9.83325 1.33301H4.16659C3.28253 1.33301 2.43468 1.6842 1.80956 2.30932C1.18444 2.93444 0.833252 3.78229 0.833252 4.66634V9.33301C0.833252 9.77075 0.919471 10.2042 1.08699 10.6086C1.2545 11.013 1.50003 11.3805 1.80956 11.69C2.43468 12.3152 3.28253 12.6663 4.16659 12.6663H8.33992" stroke="#4B5563" stroke-width="1.5" stroke-linecap="round" stroke-linejoin="round"/>
<path d="M1.00659 10.3331L2.83326 8.19976C3.07315 7.9615 3.388 7.81344 3.72451 7.78064C4.06102 7.74784 4.39854 7.83231 4.67993 8.01976C4.96131 8.20721 5.29883 8.29168 5.63534 8.25888C5.97185 8.22608 6.2867 8.07802 6.52659 7.83976L8.07993 6.28643C8.52625 5.83858 9.11719 5.5639 9.74728 5.51139C10.3774 5.45888 11.0056 5.63197 11.5199 5.99976L13.1666 7.27309M4.33993 5.77976C4.48525 5.77888 4.62899 5.74939 4.76292 5.69297C4.89685 5.63654 5.01836 5.55429 5.1205 5.45091C5.22265 5.34753 5.30343 5.22504 5.35824 5.09044C5.41304 4.95583 5.4408 4.81176 5.43993 4.66643C5.43905 4.5211 5.40956 4.37736 5.35313 4.24343C5.29671 4.1095 5.21446 3.98799 5.11108 3.88585C5.00769 3.7837 4.8852 3.70292 4.7506 3.64812C4.616 3.59331 4.47192 3.56555 4.32659 3.56643C4.03309 3.56819 3.7523 3.68648 3.54601 3.89528C3.33972 4.10407 3.22482 4.38625 3.22659 4.67976C3.22836 4.97327 3.34665 5.25405 3.55544 5.46034C3.76423 5.66663 4.04642 5.78153 4.33993 5.77976Z" stroke="#4B5563" stroke-width="1.5" stroke-linecap="round" stroke-linejoin="round"/>
<path d="M11.4712 9V12.3333" stroke="#4B5563" stroke-width="1.5" stroke-miterlimit="10" stroke-linecap="round"/>
<path d="M13 10.4026L11.6886 9.09129C11.6601 9.06266 11.6263 9.03995 11.589 9.02445C11.5517 9.00895 11.5117 9.00098 11.4713 9.00098C11.4309 9.00098 11.3909 9.00895 11.3536 9.02445C11.3163 9.03995 11.2825 9.06266 11.254 9.09129L9.94263 10.4026" stroke="#4B5563" stroke-width="1.5" stroke-linecap="round" stroke-linejoin="round"/>
</svg>
