<svg width="32" height="32" viewBox="0 0 32 32" fill="none" xmlns="http://www.w3.org/2000/svg">
<mask id="mask0_1146_8273" style="mask-type:luminance" maskUnits="userSpaceOnUse" x="0" y="0" width="32" height="32">
<path d="M16 32C24.8366 32 32 24.8366 32 16C32 7.16344 24.8366 0 16 0C7.16344 0 0 7.16344 0 16C0 24.8366 7.16344 32 16 32Z" fill="white"/>
</mask>
<g mask="url(#mask0_1146_8273)">
<path d="M7.875 9.8752L15.8625 9.23145L32 10.4377V21.5627L16.0688 23.5814L7.875 20.9939V9.8752Z" fill="#EEEEEE"/>
<path d="M0 0H32V10.4375H6.6875L0 0Z" fill="#333333"/>
<path d="M6.6875 21.5625H32V32H0L6.6875 21.5625Z" fill="#6DA544"/>
<path d="M0 0V32L16 16L0 0Z" fill="#D80027"/>
<path d="M6.35 12.5186L7.225 14.3561L9.2125 13.8998L8.325 15.7311L9.91875 16.9936L7.93125 17.4436L7.9375 19.4811L6.35 18.2061L4.7625 19.4811V17.4373L2.78125 16.9873L4.375 15.7373L3.4875 13.8998L5.475 14.3561L6.35 12.5186Z" fill="#EEEEEE"/>
</g>
</svg>
