<svg width="12" height="13" viewBox="0 0 12 13" fill="none" xmlns="http://www.w3.org/2000/svg">
<path d="M6.33333 4.06686H5.65333L5.65333 7.52602L4.25333 6.04715L3.79467 6.53165L5.98733 8.84785L8.19267 6.53165L7.73333 6.04715L6.33333 7.52602L6.33333 4.06686ZM5.998 0.112638C6.82733 0.112638 7.60733 0.278836 8.338 0.611231C9.06822 0.944095 9.70356 1.39574 10.244 1.96616C10.7844 2.53658 11.2122 3.20701 11.5273 3.97743C11.8424 4.74785 12 5.57156 12 6.44855C12 7.32555 11.8424 8.14949 11.5273 8.92039C11.2127 9.69175 10.7858 10.3629 10.2467 10.9338C9.70756 11.5047 9.07267 11.9565 8.342 12.2894C7.61133 12.6223 6.83133 12.7887 6.002 12.7887C5.17267 12.7887 4.39267 12.6223 3.662 12.2894C2.93178 11.957 2.29644 11.5058 1.756 10.9359C1.21556 10.3659 0.787777 9.69527 0.472666 8.92391C0.157555 8.15255 0 7.32884 0 6.45278C0 5.57672 0.157333 4.75278 0.472 3.98095C0.786667 3.20912 1.21422 2.53799 1.75467 1.96757C2.29511 1.39715 2.92978 0.945268 3.65867 0.611935C4.38756 0.278601 5.16733 0.112169 5.998 0.112638ZM6 0.816864C4.51111 0.816864 3.25 1.36264 2.21667 2.45419C1.18333 3.54574 0.666666 4.8779 0.666666 6.45067C0.666666 8.02344 1.18333 9.3556 2.21667 10.4471C3.25 11.5387 4.51111 12.0845 6 12.0845C7.48889 12.0845 8.75 11.5387 9.78333 10.4471C10.8167 9.3556 11.3333 8.02344 11.3333 6.45067C11.3333 4.8779 10.8167 3.54574 9.78333 2.45419C8.75 1.36264 7.48889 0.816864 6 0.816864Z" fill="#E6E6E6"/>
</svg>
