<svg width="12" height="13" viewBox="0 0 12 13" fill="none" xmlns="http://www.w3.org/2000/svg">
<path d="M5.66667 8.8345H6.34667V5.37535L7.74667 6.85422L8.20533 6.36971L6.01267 4.05352L3.80733 6.36971L4.26667 6.85422L5.66667 5.37535V8.8345ZM6.002 12.7887C5.17267 12.7887 4.39267 12.6225 3.662 12.2901C2.93178 11.9573 2.29644 11.5056 1.756 10.9352C1.21556 10.3648 0.787778 9.69436 0.472667 8.92394C0.157556 8.15352 0 7.32981 0 6.45281C0 5.57582 0.157556 4.75187 0.472667 3.98098C0.787333 3.20962 1.21422 2.53849 1.75333 1.9676C2.29244 1.39671 2.92733 0.944831 3.658 0.611967C4.38867 0.279103 5.16867 0.112671 5.998 0.112671C6.82733 0.112671 7.60733 0.279103 8.338 0.611967C9.06822 0.944361 9.70355 1.39553 10.244 1.96549C10.7844 2.53544 11.2122 3.2061 11.5273 3.97746C11.8424 4.74882 12 5.57253 12 6.44859C12 7.32464 11.8427 8.14859 11.528 8.92042C11.2133 9.69225 10.7858 10.3634 10.2453 10.9338C9.70489 11.5042 9.07022 11.9561 8.34133 12.2894C7.61244 12.6228 6.83267 12.7892 6.002 12.7887ZM6 12.0845C7.48889 12.0845 8.75 11.5387 9.78333 10.4472C10.8167 9.35563 11.3333 8.02347 11.3333 6.4507C11.3333 4.87793 10.8167 3.54577 9.78333 2.45422C8.75 1.36267 7.48889 0.816896 6 0.816896C4.51111 0.816896 3.25 1.36267 2.21667 2.45422C1.18333 3.54577 0.666667 4.87793 0.666667 6.4507C0.666667 8.02347 1.18333 9.35563 2.21667 10.4472C3.25 11.5387 4.51111 12.0845 6 12.0845Z" fill="#E6E6E6"/>
</svg>
