<svg width="8" height="14" viewBox="0 0 8 14" fill="none" xmlns="http://www.w3.org/2000/svg">
<path d="M0.335878 13.6555C0.111959 13.4316 0 13.1466 0 12.8005C0 12.4545 0.111959 12.1695 0.335878 11.9456L5.09924 7.18221L0.335878 2.41885C0.111959 2.19493 0 1.90994 0 1.56389C0 1.21783 0.111959 0.932843 0.335878 0.708925C0.559796 0.485006 0.844784 0.373047 1.19084 0.373047C1.5369 0.373047 1.82188 0.485006 2.0458 0.708925L7.66412 6.32725C7.78626 6.44938 7.87277 6.5817 7.92366 6.72419C7.97456 6.86669 8 7.01936 8 7.18221C8 7.34506 7.97456 7.49773 7.92366 7.64022C7.87277 7.78272 7.78626 7.91503 7.66412 8.03717L2.0458 13.6555C1.82188 13.8794 1.5369 13.9914 1.19084 13.9914C0.844784 13.9914 0.559796 13.8794 0.335878 13.6555Z" fill="#121212"/>
</svg>
