<svg width="12" height="22" viewBox="0 0 12 22" fill="none" xmlns="http://www.w3.org/2000/svg">
<path d="M11.4286 18.8214C11.6752 19.068 11.8137 19.4024 11.8137 19.7511C11.8137 20.0998 11.6752 20.4342 11.4286 20.6808C11.1821 20.9273 10.8477 21.0659 10.499 21.0659C10.1502 21.0659 9.81583 20.9273 9.56926 20.6808L0.819262 11.9308C0.696902 11.8088 0.599817 11.6639 0.533572 11.5044C0.467327 11.3449 0.433228 11.1738 0.433228 11.0011C0.433228 10.8283 0.467327 10.6573 0.533572 10.4978C0.599817 10.3382 0.696902 10.1933 0.819262 10.0714L9.56926 1.3214C9.81583 1.07483 10.1502 0.93631 10.499 0.93631C10.8477 0.93631 11.1821 1.07483 11.4286 1.3214C11.6752 1.56797 11.8137 1.90239 11.8137 2.25109C11.8137 2.59979 11.6752 2.93421 11.4286 3.18077L3.60942 11L11.4286 18.8214Z" fill="#323232"/>
</svg>
