<svg width="19" height="16" viewBox="0 0 19 16" fill="none" xmlns="http://www.w3.org/2000/svg">
<path d="M2.80993 8.70305H2.69675L2.77678 8.78308L8.2471 14.2525C8.31242 14.3178 8.36425 14.3953 8.3996 14.4807C8.43496 14.5661 8.45316 14.6575 8.45316 14.7499C8.45316 14.8423 8.43496 14.9338 8.3996 15.0192C8.36425 15.1045 8.31242 15.1821 8.24709 15.2474C8.18176 15.3127 8.10421 15.3646 8.01885 15.3999C7.93349 15.4353 7.842 15.4535 7.74961 15.4535C7.65722 15.4535 7.56574 15.4353 7.48038 15.3999C7.39502 15.3646 7.31746 15.3127 7.25213 15.2474L0.502134 8.49741L0.502115 8.49739C0.436742 8.43209 0.38488 8.35454 0.349495 8.26918C0.314111 8.18383 0.295898 8.09233 0.295898 7.99993C0.295898 7.90753 0.314111 7.81603 0.349495 7.73067C0.38488 7.64532 0.436742 7.56777 0.502116 7.50247L0.502134 7.50245L7.25213 0.752449C7.38407 0.62051 7.56302 0.546387 7.74961 0.546387C7.9362 0.546387 8.11515 0.62051 8.24709 0.752449C8.37903 0.884389 8.45316 1.06334 8.45316 1.24993C8.45316 1.43652 8.37903 1.61547 8.24709 1.74741L2.77678 7.21678L2.69675 7.2968H2.80993H17.4996C17.6861 7.2968 17.8649 7.37088 17.9968 7.50274C18.1287 7.63461 18.2027 7.81345 18.2027 7.99993C18.2027 8.18641 18.1287 8.36525 17.9968 8.49711C17.8649 8.62897 17.6861 8.70305 17.4996 8.70305H2.80993Z" fill="#0369A1" stroke="#0369A1" stroke-width="0.09375"/>
</svg>
