<svg width="26" height="26" viewBox="0 0 26 26" fill="none" xmlns="http://www.w3.org/2000/svg">
<path d="M14.25 18H6.75001C6.41849 18 6.10055 18.1317 5.86613 18.3661C5.63171 18.6005 5.50001 18.9184 5.50001 19.25C5.50001 19.5815 5.63171 19.8994 5.86613 20.1338C6.10055 20.3683 6.41849 20.5 6.75001 20.5H14.25C14.5815 20.5 14.8995 20.3683 15.1339 20.1338C15.3683 19.8994 15.5 19.5815 15.5 19.25C15.5 18.9184 15.3683 18.6005 15.1339 18.3661C14.8995 18.1317 14.5815 18 14.25 18ZM9.25001 10.5H11.75C12.0815 10.5 12.3995 10.3683 12.6339 10.1338C12.8683 9.89943 13 9.58148 13 9.24996C13 8.91844 12.8683 8.6005 12.6339 8.36608C12.3995 8.13166 12.0815 7.99996 11.75 7.99996H9.25001C8.91849 7.99996 8.60055 8.13166 8.36613 8.36608C8.13171 8.6005 8.00001 8.91844 8.00001 9.24996C8.00001 9.58148 8.13171 9.89943 8.36613 10.1338C8.60055 10.3683 8.91849 10.5 9.25001 10.5ZM24.25 13H20.5V1.74996C20.5009 1.5297 20.4435 1.31312 20.3338 1.12215C20.224 0.931174 20.0658 0.772594 19.875 0.662463C19.685 0.552753 19.4694 0.494995 19.25 0.494995C19.0306 0.494995 18.815 0.552753 18.625 0.662463L14.875 2.81246L11.125 0.662463C10.935 0.552753 10.7194 0.494995 10.5 0.494995C10.2806 0.494995 10.065 0.552753 9.87501 0.662463L6.12501 2.81246L2.37501 0.662463C2.18499 0.552753 1.96943 0.494995 1.75001 0.494995C1.53059 0.494995 1.31503 0.552753 1.12501 0.662463C0.934254 0.772594 0.775987 0.931174 0.666233 1.12215C0.556478 1.31312 0.499135 1.5297 0.50001 1.74996V21.75C0.50001 22.7445 0.895098 23.6984 1.59836 24.4016C2.30162 25.1049 3.25545 25.5 4.25001 25.5H21.75C22.7446 25.5 23.6984 25.1049 24.4017 24.4016C25.1049 23.6984 25.5 22.7445 25.5 21.75V14.25C25.5 13.9184 25.3683 13.6005 25.1339 13.3661C24.8995 13.1317 24.5815 13 24.25 13ZM4.25001 23C3.91849 23 3.60055 22.8683 3.36613 22.6338C3.13171 22.3994 3.00001 22.0815 3.00001 21.75V3.91246L5.50001 5.33746C5.69293 5.43823 5.90736 5.49085 6.12501 5.49085C6.34266 5.49085 6.55709 5.43823 6.75001 5.33746L10.5 3.18746L14.25 5.33746C14.4429 5.43823 14.6574 5.49085 14.875 5.49085C15.0927 5.49085 15.3071 5.43823 15.5 5.33746L18 3.91246V21.75C18.0034 22.1764 18.0795 22.5991 18.225 23H4.25001ZM23 21.75C23 22.0815 22.8683 22.3994 22.6339 22.6338C22.3995 22.8683 22.0815 23 21.75 23C21.4185 23 21.1005 22.8683 20.8661 22.6338C20.6317 22.3994 20.5 22.0815 20.5 21.75V15.5H23V21.75ZM14.25 13H6.75001C6.41849 13 6.10055 13.1317 5.86613 13.3661C5.63171 13.6005 5.50001 13.9184 5.50001 14.25C5.50001 14.5815 5.63171 14.8994 5.86613 15.1338C6.10055 15.3683 6.41849 15.5 6.75001 15.5H14.25C14.5815 15.5 14.8995 15.3683 15.1339 15.1338C15.3683 14.8994 15.5 14.5815 15.5 14.25C15.5 13.9184 15.3683 13.6005 15.1339 13.3661C14.8995 13.1317 14.5815 13 14.25 13Z" fill="#3A5B8D"/>
</svg>
