<svg width="21" height="21" viewBox="0 0 21 21" fill="none" xmlns="http://www.w3.org/2000/svg">
<path fill-rule="evenodd" clip-rule="evenodd" d="M16.5 2.25H4.5C3.90326 2.25 3.33097 2.48705 2.90901 2.90901C2.48705 3.33097 2.25 3.90326 2.25 4.5V16.5C2.25 17.0967 2.48705 17.669 2.90901 18.091C3.33097 18.5129 3.90326 18.75 4.5 18.75H16.5C17.0967 18.75 17.669 18.5129 18.091 18.091C18.5129 17.669 18.75 17.0967 18.75 16.5V4.5C18.75 3.90326 18.5129 3.33097 18.091 2.90901C17.669 2.48705 17.0967 2.25 16.5 2.25ZM4.5 0C3.30653 0 2.16193 0.474106 1.31802 1.31802C0.474106 2.16193 0 3.30653 0 4.5V16.5C0 17.6935 0.474106 18.8381 1.31802 19.682C2.16193 20.5259 3.30653 21 4.5 21H16.5C17.6935 21 18.8381 20.5259 19.682 19.682C20.5259 18.8381 21 17.6935 21 16.5V4.5C21 3.30653 20.5259 2.16193 19.682 1.31802C18.8381 0.474106 17.6935 0 16.5 0H4.5ZM13.8255 12.234C14.1948 11.5264 14.3287 10.7194 14.2077 9.93045C14.0866 9.1415 13.7171 8.41174 13.1527 7.84734C12.5883 7.28294 11.8585 6.91335 11.0695 6.79234C10.2806 6.67133 9.47361 6.80521 8.766 7.1745L13.8255 12.234ZM12.2355 13.8255C11.5279 14.1948 10.7209 14.3287 9.93195 14.2077C9.143 14.0866 8.41324 13.7171 7.84884 13.1527C7.28444 12.5883 6.91485 11.8585 6.79384 11.0695C6.67283 10.2806 6.80671 9.47361 7.176 8.766L12.2355 13.8255ZM10.5 16.5C12.0913 16.5 13.6174 15.8679 14.7426 14.7426C15.8679 13.6174 16.5 12.0913 16.5 10.5C16.5 8.9087 15.8679 7.38258 14.7426 6.25736C13.6174 5.13214 12.0913 4.5 10.5 4.5C8.9087 4.5 7.38258 5.13214 6.25736 6.25736C5.13214 7.38258 4.5 8.9087 4.5 10.5C4.5 12.0913 5.13214 13.6174 6.25736 14.7426C7.38258 15.8679 8.9087 16.5 10.5 16.5Z" fill="white"/>
</svg>
