<svg width="32" height="28" viewBox="0 0 32 28" fill="none" xmlns="http://www.w3.org/2000/svg">
<g filter="url(#filter0_d_587_1368)">
<path d="M29.3007 15.4453V19.374C29.3008 19.7195 29.2328 20.0617 29.1006 20.3809C28.9684 20.7002 28.7747 20.9902 28.5304 21.2346C28.2861 21.4789 27.9961 21.6728 27.6769 21.805C27.3577 21.9373 27.0155 22.0053 26.67 22.0053H6.63067C6.28515 22.0053 5.94301 21.9373 5.6238 21.805C5.30459 21.6728 5.01456 21.4789 4.77027 21.2346C4.52598 20.9902 4.33222 20.7002 4.20006 20.3809C4.06789 20.0617 3.99991 19.7195 4 19.374V3.63133C3.99991 3.28576 4.06791 2.94355 4.20012 2.62426C4.33233 2.30497 4.52615 2.01486 4.7705 1.7705C5.01486 1.52614 5.30497 1.33233 5.62426 1.20012C5.94355 1.06791 6.28576 0.999912 6.63133 1H26.67C27.0155 1 27.3577 1.06807 27.6769 1.20031C27.9961 1.33256 28.2861 1.52639 28.5304 1.77074C28.7747 2.01509 28.9684 2.30517 29.1006 2.62442C29.2328 2.94366 29.3008 3.28581 29.3007 3.63133V7.69667" stroke="#3A5B8D" stroke-width="1.67" stroke-linecap="round" stroke-linejoin="round"/>
<path d="M29.1963 15.4527H22.2837C21.7739 15.4528 21.2691 15.3526 20.7981 15.1576C20.3272 14.9626 19.8992 14.6767 19.5388 14.3162C19.1783 13.9558 18.8924 13.5278 18.6974 13.0569C18.5024 12.5859 18.4022 12.0811 18.4023 11.5713C18.4021 11.0615 18.5023 10.5567 18.6972 10.0856C18.8922 9.61454 19.1781 9.18651 19.5385 8.82599C19.899 8.46547 20.327 8.17952 20.798 7.98449C21.269 7.78945 21.7739 7.68916 22.2837 7.68933H29.197C29.6403 7.68933 30.0003 8.04933 30.0003 8.49333V14.6493C30.0003 15.0927 29.6403 15.4527 29.1963 15.4527Z" stroke="#3A5B8D" stroke-width="1.67" stroke-linecap="round" stroke-linejoin="round"/>
<path d="M22.6383 13.42C23.6342 13.42 24.4416 12.6126 24.4416 11.6167C24.4416 10.6207 23.6342 9.81335 22.6383 9.81335C21.6423 9.81335 20.835 10.6207 20.835 11.6167C20.835 12.6126 21.6423 13.42 22.6383 13.42Z" stroke="#3A5B8D" stroke-width="0.666667" stroke-linecap="round" stroke-linejoin="round"/>
</g>
<defs>
<filter id="filter0_d_587_1368" x="-0.834961" y="0.165039" width="35.6699" height="30.6753" filterUnits="userSpaceOnUse" color-interpolation-filters="sRGB">
<feFlood flood-opacity="0" result="BackgroundImageFix"/>
<feColorMatrix in="SourceAlpha" type="matrix" values="0 0 0 0 0 0 0 0 0 0 0 0 0 0 0 0 0 0 127 0" result="hardAlpha"/>
<feOffset dy="4"/>
<feGaussianBlur stdDeviation="2"/>
<feComposite in2="hardAlpha" operator="out"/>
<feColorMatrix type="matrix" values="0 0 0 0 0 0 0 0 0 0 0 0 0 0 0 0 0 0 0.25 0"/>
<feBlend mode="normal" in2="BackgroundImageFix" result="effect1_dropShadow_587_1368"/>
<feBlend mode="normal" in="SourceGraphic" in2="effect1_dropShadow_587_1368" result="shape"/>
</filter>
</defs>
</svg>
