<svg width="16" height="16" viewBox="0 0 16 16" fill="none" xmlns="http://www.w3.org/2000/svg">
<path d="M12.2742 2.66671H10.9821V2.00004C10.9821 1.82323 10.9141 1.65366 10.7929 1.52864C10.6718 1.40361 10.5075 1.33337 10.3361 1.33337C10.1648 1.33337 10.0005 1.40361 9.87933 1.52864C9.75818 1.65366 9.69011 1.82323 9.69011 2.00004V2.66671H5.81406V2.00004C5.81406 1.82323 5.746 1.65366 5.62485 1.52864C5.5037 1.40361 5.33938 1.33337 5.16805 1.33337C4.99672 1.33337 4.8324 1.40361 4.71125 1.52864C4.5901 1.65366 4.52204 1.82323 4.52204 2.00004V2.66671H3.23002C2.71602 2.66671 2.22308 2.87742 1.85963 3.25249C1.49618 3.62757 1.29199 4.13627 1.29199 4.66671V12.6667C1.29199 13.1971 1.49618 13.7058 1.85963 14.0809C2.22308 14.456 2.71602 14.6667 3.23002 14.6667H12.2742C12.7881 14.6667 13.2811 14.456 13.6445 14.0809C14.008 13.7058 14.2122 13.1971 14.2122 12.6667V4.66671C14.2122 4.13627 14.008 3.62757 13.6445 3.25249C13.2811 2.87742 12.7881 2.66671 12.2742 2.66671ZM12.9202 12.6667C12.9202 12.8435 12.8521 13.0131 12.7309 13.1381C12.6098 13.2631 12.4455 13.3334 12.2742 13.3334H3.23002C3.05869 13.3334 2.89437 13.2631 2.77322 13.1381C2.65207 13.0131 2.58401 12.8435 2.58401 12.6667V8.00004H12.9202V12.6667ZM12.9202 6.66671H2.58401V4.66671C2.58401 4.4899 2.65207 4.32033 2.77322 4.1953C2.89437 4.07028 3.05869 4.00004 3.23002 4.00004H4.52204V4.66671C4.52204 4.84352 4.5901 5.01309 4.71125 5.13811C4.8324 5.26314 4.99672 5.33337 5.16805 5.33337C5.33938 5.33337 5.5037 5.26314 5.62485 5.13811C5.746 5.01309 5.81406 4.84352 5.81406 4.66671V4.00004H9.69011V4.66671C9.69011 4.84352 9.75818 5.01309 9.87933 5.13811C10.0005 5.26314 10.1648 5.33337 10.3361 5.33337C10.5075 5.33337 10.6718 5.26314 10.7929 5.13811C10.9141 5.01309 10.9821 4.84352 10.9821 4.66671V4.00004H12.2742C12.4455 4.00004 12.6098 4.07028 12.7309 4.1953C12.8521 4.32033 12.9202 4.4899 12.9202 4.66671V6.66671Z" fill="#587D98"/>
</svg>
