<svg width="44" height="28" viewBox="0 0 44 28" fill="none" xmlns="http://www.w3.org/2000/svg">
<rect x="1.07568" y="0.5" width="41.8788" height="27" rx="1.5" fill="white" stroke="#CBD5E1"/>
<path fill-rule="evenodd" clip-rule="evenodd" d="M20.5858 8.66675H23.4444C26.1393 8.66675 27.4872 8.66675 28.324 9.44808C29.1609 10.2294 29.1616 11.4861 29.1616 14.0001C29.1616 16.5141 29.1616 17.7714 28.324 18.5521C27.4865 19.3327 26.1393 19.3334 23.4444 19.3334H20.5858C17.8909 19.3334 16.5431 19.3334 15.7062 18.5521C14.8694 17.7707 14.8687 16.5141 14.8687 14.0001C14.8687 11.4861 14.8687 10.2287 15.7062 9.44808C16.5438 8.66741 17.8909 8.66675 20.5858 8.66675ZM22.9084 12.0001C22.9084 11.8675 22.9649 11.7403 23.0654 11.6465C23.1659 11.5528 23.3023 11.5001 23.4444 11.5001H27.0176C27.1598 11.5001 27.2961 11.5528 27.3966 11.6465C27.4972 11.7403 27.5536 11.8675 27.5536 12.0001C27.5536 12.1327 27.4972 12.2599 27.3966 12.3536C27.2961 12.4474 27.1598 12.5001 27.0176 12.5001H23.4444C23.3023 12.5001 23.1659 12.4474 23.0654 12.3536C22.9649 12.2599 22.9084 12.1327 22.9084 12.0001ZM23.6231 14.0001C23.6231 13.8675 23.6795 13.7403 23.7801 13.6465C23.8806 13.5528 24.0169 13.5001 24.1591 13.5001H27.0176C27.1598 13.5001 27.2961 13.5528 27.3966 13.6465C27.4972 13.7403 27.5536 13.8675 27.5536 14.0001C27.5536 14.1327 27.4972 14.2599 27.3966 14.3536C27.2961 14.4474 27.1598 14.5001 27.0176 14.5001H24.1591C24.0169 14.5001 23.8806 14.4474 23.7801 14.3536C23.6795 14.2599 23.6231 14.1327 23.6231 14.0001ZM24.3377 16.0001C24.3377 15.8675 24.3942 15.7403 24.4947 15.6465C24.5952 15.5528 24.7316 15.5001 24.8737 15.5001H27.0176C27.1598 15.5001 27.2961 15.5528 27.3966 15.6465C27.4972 15.7403 27.5536 15.8675 27.5536 16.0001C27.5536 16.1327 27.4972 16.2599 27.3966 16.3536C27.2961 16.4474 27.1598 16.5001 27.0176 16.5001H24.8737C24.7316 16.5001 24.5952 16.4474 24.4947 16.3536C24.3942 16.2599 24.3377 16.1327 24.3377 16.0001ZM21.3005 12.0001C21.3005 12.3537 21.1499 12.6928 20.8818 12.9429C20.6138 13.1929 20.2502 13.3334 19.8712 13.3334C19.4921 13.3334 19.1286 13.1929 18.8605 12.9429C18.5925 12.6928 18.4419 12.3537 18.4419 12.0001C18.4419 11.6465 18.5925 11.3073 18.8605 11.0573C19.1286 10.8072 19.4921 10.6667 19.8712 10.6667C20.2502 10.6667 20.6138 10.8072 20.8818 11.0573C21.1499 11.3073 21.3005 11.6465 21.3005 12.0001ZM19.8712 17.3334C22.7298 17.3334 22.7298 16.7367 22.7298 16.0001C22.7298 15.2634 21.4505 14.6667 19.8712 14.6667C18.2918 14.6667 17.0126 15.2634 17.0126 16.0001C17.0126 16.7367 17.0126 17.3334 19.8712 17.3334Z" fill="#4B5563"/>
</svg>
