<svg width="160" height="140" viewBox="0 0 160 140" fill="none" xmlns="http://www.w3.org/2000/svg">
<path opacity="0.1" d="M75.7952 146.36C75.7952 162.386 66.3588 178.869 47.0796 192.119C27.8806 205.313 0.367508 214.052 -30.8944 214.052C-62.1563 214.052 -89.6693 205.313 -108.868 192.119C-128.148 178.869 -137.584 162.386 -137.584 146.36C-137.584 130.334 -128.148 113.851 -108.868 100.602C-89.6693 87.4072 -62.1563 78.6685 -30.8944 78.6685C0.367508 78.6685 27.8806 87.4072 47.0796 100.602C66.3588 113.851 75.7952 130.334 75.7952 146.36Z" fill="black" stroke="black" stroke-width="36"/>
<path opacity="0.1" d="M308.616 -20.1007C308.616 24.1355 264.13 65.4118 201.926 65.4118C139.721 65.4118 95.2363 24.1355 95.2363 -20.1007C95.2363 -64.337 139.721 -105.613 201.926 -105.613C264.13 -105.613 308.616 -64.337 308.616 -20.1007Z" fill="black" stroke="black" stroke-width="36"/>
</svg>
