<svg width="26" height="26" viewBox="0 0 26 26" fill="none" xmlns="http://www.w3.org/2000/svg">
<path d="M2.37969 0.0617914C1.57344 0.218041 0.710938 0.886792 0.342187 1.64304C0.223438 1.88679 0.0921875 2.23679 0.0609375 2.42429C-0.0203125 2.87429 -0.0203125 9.11804 0.0609375 9.56179C0.167187 10.118 0.454688 10.6493 0.892188 11.0805C1.55469 11.743 2.21719 11.993 3.36094 11.993H3.99844V9.50554V7.01804L3.72344 6.94304C2.84219 6.71179 2.76094 5.43054 3.60469 5.08054C3.90469 4.94929 22.0922 4.94929 22.3922 5.08054C23.2359 5.43054 23.1547 6.71179 22.2734 6.94304L21.9984 7.01804V9.50554V11.993H22.6172C23.4172 11.993 23.8047 11.918 24.3484 11.6493C25.1297 11.268 25.7734 10.4243 25.9359 9.56179C26.0172 9.11179 26.0172 2.87429 25.9359 2.42429C25.7734 1.56179 25.1297 0.718041 24.3484 0.336792C24.1047 0.218041 23.7547 0.086792 23.5672 0.055542C23.1484 -0.0194578 2.77969 -0.0194578 2.37969 0.0617914Z" fill="#3A5B8D"/>
<path d="M5.99805 15.1118C5.99805 20.368 6.02305 23.343 6.06055 23.5618C6.2168 24.3805 6.8793 25.2743 7.61055 25.643C8.2918 25.9868 8.3543 25.993 12.973 25.993C15.548 25.993 17.3668 25.968 17.5668 25.9305C18.7043 25.718 19.7168 24.7055 19.9355 23.5618C19.973 23.343 19.998 20.368 19.998 15.1118V6.99304H12.998H5.99805V15.1118ZM13.548 11.1618C13.6355 11.2243 13.7668 11.3618 13.8355 11.4555C13.9605 11.618 13.9668 11.7118 13.9855 14.0993L14.0043 16.5743L14.773 15.818C15.4668 15.1368 15.5668 15.0618 15.823 15.0243C16.373 14.943 16.8668 15.2993 16.973 15.8555C17.0605 16.2993 16.9105 16.4868 15.1418 18.2555C13.3355 20.0555 13.3168 20.0618 12.7605 19.9618C12.5605 19.9305 12.2918 19.6868 10.798 18.193C8.9293 16.3243 8.92305 16.3118 9.0293 15.7618C9.08555 15.4555 9.46055 15.0805 9.7668 15.0243C10.2605 14.9305 10.4105 15.0118 11.2355 15.8243L11.998 16.5805V14.1993C11.998 12.6618 12.023 11.7493 12.0668 11.6368C12.1543 11.4055 12.3605 11.1868 12.5918 11.0805C12.8418 10.9618 13.3355 11.0055 13.548 11.1618Z" fill="#3A5B8D"/>
</svg>
