<svg width="28" height="20" viewBox="0 0 28 20" fill="none" xmlns="http://www.w3.org/2000/svg">
<path fill-rule="evenodd" clip-rule="evenodd" d="M23.5786 0.549374L13.9999 0.333374L4.42127 0.549374C3.56036 0.569131 2.73254 0.88484 2.07712 1.44337C1.42169 2.00191 0.978666 2.76917 0.822602 3.61604C0.047414 7.83629 0.047414 12.1625 0.822602 16.3827C0.978714 17.2298 1.42193 17.9972 2.07763 18.5558C2.73333 19.1143 3.56147 19.4299 4.4226 19.4494L13.9999 19.6667L23.5786 19.4507C24.4395 19.431 25.2673 19.1152 25.9228 18.5567C26.5782 17.9982 27.0212 17.2309 27.1773 16.384C27.9519 12.1627 27.9519 7.83737 27.1773 3.61737C27.0212 2.77028 26.5779 2.00285 25.9222 1.44429C25.2665 0.885734 24.4384 0.570161 23.5773 0.550708M4.4666 2.54937L13.9999 2.33337L23.5333 2.54937C24.3599 2.56804 25.0599 3.16404 25.2093 3.97871C25.4137 5.0916 25.5613 6.20982 25.6519 7.33337H2.3466C2.43638 6.20982 2.58394 5.0916 2.78927 3.97871C2.86208 3.58402 3.06859 3.22644 3.37407 2.96613C3.67955 2.70582 4.06536 2.55865 4.4666 2.54937ZM2.24127 10C2.24127 12.016 2.42393 14.0307 2.7906 16.0214C2.93993 16.8347 3.63994 17.432 4.4666 17.4507L13.9999 17.6667L23.5333 17.4507C23.9343 17.4411 24.3198 17.2938 24.625 17.0335C24.9302 16.7733 25.1365 16.4158 25.2093 16.0214C25.5759 14.0307 25.7586 12.016 25.7586 10H2.24127Z" fill="#3A5B8D"/>
</svg>
