<svg width="274" height="196" viewBox="0 0 274 196" fill="none" xmlns="http://www.w3.org/2000/svg">
<path fill-rule="evenodd" clip-rule="evenodd" d="M0.299805 196C0.299805 144.148 42.3512 102.114 94.2242 102.114H125C140.869 102.114 155.574 110.437 163.739 124.039L206.933 196H150.579L94.2242 102.114V196H0.299805ZM0.299805 0C0.299805 51.8516 42.3512 93.8856 94.2242 93.8856V0H0.299805ZM94.2242 93.8856L150.579 0H206.933L163.739 71.9611C155.574 85.563 140.869 93.8856 125 93.8856H94.2242ZM161.29 93.8856H192.066C207.935 93.8856 222.64 85.563 230.805 71.9611L273.999 0H217.645L161.29 93.8856ZM192.066 102.114H161.291L217.645 196H274L230.805 124.039C222.641 110.437 207.935 102.114 192.066 102.114Z" fill="#09094F" fill-opacity="0.26"/>
</svg>
