<svg width="18" height="18" viewBox="0 0 18 18" fill="none" xmlns="http://www.w3.org/2000/svg">
<path d="M15.3124 6.89492L2.68883 6.89492C2.43336 6.8952 2.18126 6.95323 1.95137 7.06465C1.72148 7.17608 1.51975 7.33802 1.36125 7.53838C1.20342 7.73818 1.09313 7.97128 1.03873 8.22002C0.984339 8.46876 0.987271 8.72662 1.04731 8.97405L2.40082 14.5161C2.59679 15.2302 3.02228 15.8599 3.61164 16.3081C4.20148 16.757 4.92364 17 5.66656 17L12.333 17C13.0759 17 13.798 16.757 14.3879 16.3081C14.9772 15.8599 15.4027 15.2302 15.5987 14.5161L16.9522 8.97492C17.0433 8.60134 17.0034 8.20781 16.839 7.86019C16.6746 7.51256 16.3958 7.23194 16.0493 7.0653C15.8187 6.9546 15.5665 6.89641 15.3107 6.89492M5.6164 10.2627L5.6164 13.6314M9.00063 10.2627L9.00063 13.6314M12.3849 10.2627L12.3849 13.6314M14.9232 6.89492C14.9229 6.12004 14.7695 5.35286 14.4718 4.63746C14.174 3.92207 13.7379 3.27256 13.1883 2.72627C12.0756 1.61968 10.5699 0.998965 9.00063 1C7.43137 0.998965 5.92561 1.61968 4.81294 2.72627C4.26354 3.27263 3.82753 3.92217 3.52994 4.63756C3.23235 5.35296 3.07906 6.1201 3.07888 6.89492" stroke="#64748B" stroke-linecap="round" stroke-linejoin="round"/>
</svg>
