<svg width="24" height="23" viewBox="0 0 24 23" fill="none" xmlns="http://www.w3.org/2000/svg">
<path d="M9.872 1.08074L9.54388 0.874962C8.90169 0.481212 8.10013 0.252462 7.41106 0.46715C6.67044 0.697775 6.07981 1.26824 5.77044 2.12512L5.32981 1.89824C4.57044 1.50731 4.17294 1.50121 3.84341 1.64934C3.58044 1.76699 3.30622 2.05012 2.99544 2.46356L6.85794 5.44996C7.46263 5.64684 8.34856 5.64215 9.2345 5.41246C10.1251 5.18278 11.0111 4.73277 11.6579 4.12809L13.1158 0.5234C11.8314 -0.491444 10.6595 0.0963686 9.872 1.08074ZM12.3611 4.66715C11.5642 5.4734 10.3783 6.01715 9.45481 6.2609C9.13138 6.34527 8.80794 6.40621 8.49388 6.43902C8.32044 6.72496 8.17513 7.01559 8.06262 7.30621C8.28762 8.44996 8.7095 9.38746 9.34231 10.1562L8.66731 10.7187C8.27825 10.25 7.93138 9.74371 7.66888 9.18121C7.62669 10.2687 7.87044 11.3937 8.26887 12.5656L7.43919 12.8468C6.70794 10.7093 6.4595 8.52028 7.48606 6.45778C7.13919 6.42965 6.81106 6.36403 6.50637 6.25621L6.49231 6.25152C6.29075 6.44371 6.09856 6.64528 5.91575 6.85621C4.43591 8.57184 3.62075 10.8546 4.04731 12.6312C4.27559 13.5828 4.68481 14.4828 5.27356 15.2515C6.13606 15.2328 6.95169 15.2515 7.69231 15.5328C8.04388 15.4953 8.40481 15.4718 8.77981 15.4718C10.1158 15.4718 11.3251 15.7203 12.2392 16.1515C12.5954 16.3203 12.9189 16.5218 13.1767 16.7515C13.1767 16.5031 13.2142 16.2359 13.2892 16.039C12.872 15.6453 12.6095 15.1671 12.6095 14.6234C12.6095 13.8687 13.1111 13.2453 13.8376 12.7953C13.8376 12.5796 13.8798 12.3734 13.9548 12.1765C13.4814 11.7687 13.1767 11.2625 13.1767 10.6718C13.1767 10.3015 13.2986 9.96402 13.5048 9.65934C13.2986 9.35934 13.1767 9.02184 13.1767 8.65152C13.1767 8.46871 13.2048 8.29996 13.2564 8.1359C12.8017 7.73277 12.5157 7.2359 12.5157 6.66403C12.5157 6.09684 12.797 5.60465 13.247 5.20621C12.9704 4.99059 12.6751 4.80777 12.3611 4.66715ZM17.5829 4.77496C16.3642 4.77496 15.2626 5.03277 14.5079 5.41246C13.7486 5.79215 13.3923 6.2609 13.3923 6.66403C13.3923 7.07184 13.7486 7.54059 14.5079 7.92028C15.2626 8.29996 16.3642 8.55777 17.5829 8.55777C18.1126 8.55777 18.6142 8.50621 19.0783 8.42184V7.62496C19.7298 7.52653 20.2689 7.3484 20.6158 7.11871V7.94371C21.2017 7.77496 21.7642 7.15153 21.7783 6.66403C21.7783 6.2609 21.422 5.79215 20.6626 5.41246C19.9032 5.03277 18.8064 4.77496 17.5829 4.77496ZM22.1064 7.9484C21.9517 8.11246 21.7689 8.26715 21.5626 8.40777L21.572 9.76715C22.1626 9.41559 22.4392 9.00777 22.4392 8.65152C22.4392 8.42653 22.3314 8.18277 22.1064 7.9484ZM14.0533 8.67027C14.0673 9.0734 14.4236 9.52809 15.1689 9.90309C15.9283 10.2875 17.0251 10.5406 18.2486 10.5406C19.0126 10.5406 19.7298 10.4375 20.3439 10.2687L20.3767 8.99371C19.5704 9.27496 18.6142 9.42965 17.5829 9.42965C16.247 9.42965 15.0329 9.16246 14.1142 8.70309C14.0908 8.69371 14.072 8.67965 14.0533 8.67027ZM14.147 10.3015C14.0814 10.4281 14.0533 10.5547 14.0533 10.6718C14.0533 11.0796 14.4095 11.5484 15.1689 11.9281C15.9283 12.3078 17.0251 12.5609 18.2486 12.5609C18.8673 12.5609 19.4533 12.5 19.9829 12.3828V11.2578C19.4392 11.3609 18.8579 11.4125 18.2486 11.4125C16.9079 11.4125 15.6939 11.15 14.7751 10.6859C14.5454 10.5734 14.3345 10.4422 14.147 10.3015ZM22.3454 10.3015C22.0595 10.5031 21.8111 10.6531 21.5204 10.7796V11.825C22.1439 11.464 22.4392 11.0422 22.4392 10.6718C22.4392 10.5547 22.4111 10.4281 22.3454 10.3015ZM22.697 12.0265C22.6033 12.1203 22.5001 12.2093 22.3876 12.2984V13.8172C22.8704 13.489 23.1048 13.1281 23.1048 12.8C23.1048 12.5515 22.9689 12.2843 22.697 12.0265ZM14.7236 12.6828C14.7189 12.725 14.7142 12.7625 14.7142 12.8C14.7142 13.2078 15.0704 13.6718 15.8298 14.0515C16.5892 14.4359 17.6908 14.689 18.9095 14.689C19.6079 14.689 20.2736 14.6046 20.8501 14.464V13.0625C20.0861 13.3062 19.2001 13.4375 18.2486 13.4375C16.9079 13.4375 15.6939 13.1703 14.7751 12.7109C14.7564 12.7015 14.7423 12.6921 14.7236 12.6828ZM14.0861 13.6859C13.6783 13.9906 13.4861 14.3234 13.4861 14.6234C13.4861 15.0312 13.8423 15.4953 14.6017 15.8797C15.3611 16.2593 16.4579 16.5125 17.6814 16.5125C18.1267 16.5125 18.5579 16.4797 18.9611 16.4187V15.5656H18.9095C17.5689 15.5656 16.3548 15.2984 15.4361 14.8343C14.8501 14.5437 14.3626 14.1546 14.0861 13.6859ZM21.7033 15.1203C21.3329 15.2515 20.9298 15.3593 20.4986 15.4296V15.9968C20.5876 15.9593 20.6767 15.9218 20.7611 15.8797C21.2204 15.6453 21.5298 15.3828 21.7033 15.1203ZM22.1345 15.9734C21.9564 16.1515 21.7501 16.3109 21.5204 16.4562V17.7968C22.1439 17.4406 22.4392 17.0187 22.4392 16.6484C22.4392 16.4328 22.3408 16.1984 22.1345 15.9734ZM5.78919 16.1046C5.31106 16.1093 4.79544 16.1703 4.26106 16.2968C3.19184 16.5453 2.27262 17 1.67262 17.5015C1.07262 17.9984 0.838249 18.5046 0.908562 18.8656C0.978874 19.2265 1.34919 19.5593 2.07106 19.7515C2.79059 19.939 3.797 19.9484 4.86575 19.7C5.297 19.5968 5.70012 19.4656 6.07044 19.3109V18.3406C6.75481 18.0359 7.26575 17.6703 7.49544 17.314V18.4578C8.06262 17.9703 8.28294 17.4828 8.21731 17.1265C8.15169 16.7656 7.77669 16.4328 7.05481 16.2453C6.69387 16.1515 6.26262 16.1 5.78919 16.1046ZM8.81731 16.3484C8.94388 16.5312 9.03294 16.7375 9.07981 16.9671C9.13138 17.2484 9.10794 17.5203 9.02356 17.7875C9.48763 17.9093 9.9095 18.0734 10.2751 18.2796C10.4814 18.3921 10.6736 18.5281 10.8423 18.6687C11.2642 18.5703 11.6204 18.4296 11.8736 18.2609V19.2265C12.6283 18.8703 12.9751 18.4343 12.9751 18.0875C12.9751 17.7359 12.6283 17.3 11.8689 16.9437C11.1142 16.5921 10.0267 16.3531 8.81731 16.3484ZM14.0579 16.5828C14.0533 16.6015 14.0533 16.625 14.0533 16.6484C14.0533 17.0562 14.4095 17.5203 15.1689 17.9046C15.9283 18.2843 17.0251 18.5375 18.2486 18.5375C18.8673 18.5375 19.4533 18.4718 19.9829 18.3593V17.0984C19.2892 17.2859 18.5064 17.389 17.6814 17.389C16.3408 17.389 15.1267 17.1218 14.2079 16.6625C14.1564 16.6343 14.1048 16.6062 14.0579 16.5828ZM14.1892 18.3312C14.0954 18.4859 14.0533 18.6359 14.0533 18.7812C14.0533 19.189 14.4095 19.6531 15.1689 20.0375C15.9283 20.4171 17.0251 20.6703 18.2486 20.6703C18.8673 20.6703 19.4533 20.6046 19.9829 20.4921V19.2547C19.4392 19.3578 18.8579 19.414 18.2486 19.414C16.9079 19.414 15.6939 19.1468 14.7751 18.6828C14.5642 18.5796 14.3673 18.4625 14.1892 18.3312ZM22.3033 18.3312C22.0314 18.514 21.7923 18.6593 21.5204 18.7765V19.9296C22.1439 19.5734 22.4392 19.1515 22.4392 18.7812C22.4392 18.6359 22.397 18.4859 22.3033 18.3312ZM8.58763 18.5843C8.42356 18.7906 8.23138 18.9875 8.01575 19.1656C7.2845 19.7796 6.25325 20.2765 5.06262 20.5531C4.63794 20.6515 4.21606 20.7125 3.81106 20.7453C3.96106 20.9937 4.22497 21.2375 4.61122 21.4531C5.25012 21.814 6.18762 22.0578 7.22825 22.0578C7.70169 22.0578 8.15169 22.0062 8.56419 21.9171V20.9422C9.21106 20.8437 9.75481 20.6656 10.1017 20.4359V21.2984C10.5704 20.9703 10.7954 20.6 10.7954 20.2484C10.7954 19.8406 10.4908 19.4046 9.84856 19.0437C9.50169 18.8515 9.07044 18.6921 8.58763 18.5843Z" fill="#14AE5C"/>
</svg>
