<svg width="10" height="8" viewBox="0 0 10 8" fill="none" xmlns="http://www.w3.org/2000/svg">
<path d="M1.6925 5.346H2.1345V4.308H3.346C3.49433 4.308 3.62117 4.25517 3.7265 4.1495C3.83183 4.04417 3.8845 3.9175 3.8845 3.7695V3.1925C3.8845 3.0445 3.83183 2.91767 3.7265 2.812C3.62117 2.70667 3.4945 2.654 3.3465 2.654H1.692L1.6925 5.346ZM4.6825 5.346H5.125V2.654H4.6825V5.346ZM6.1155 5.346H6.529V3.385L7.881 5.3465H8.308V2.654H7.8945V4.6155L6.567 2.654H6.1155V5.346ZM2.1345 3.8655V3.096H3.2885C3.32683 3.096 3.36217 3.11217 3.3945 3.1445C3.42617 3.1765 3.442 3.21167 3.442 3.25V3.7115C3.442 3.75017 3.426 3.7855 3.394 3.8175C3.362 3.8495 3.32683 3.8655 3.2885 3.8655H2.1345ZM1.3075 7.5C1.0775 7.5 0.885334 7.423 0.731001 7.269C0.576668 7.115 0.499668 6.92267 0.500001 6.692V1.308C0.500001 1.07767 0.577168 0.8855 0.731501 0.7315C0.885834 0.5775 1.07783 0.500333 1.3075 0.5H8.6925C8.9225 0.5 9.1145 0.577167 9.2685 0.7315C9.4225 0.885833 9.49967 1.078 9.5 1.308V6.6925C9.5 6.9225 9.42283 7.11467 9.2685 7.269C9.11417 7.42333 8.92217 7.50033 8.6925 7.5H1.3075ZM1.3075 7H8.6925C8.76917 7 8.83967 6.968 8.904 6.904C8.96833 6.84 9.00033 6.76933 9 6.692V1.308C9 1.231 8.968 1.16033 8.904 1.096C8.84 1.03167 8.7695 0.999667 8.6925 1H1.3075C1.23083 1 1.16033 1.032 1.096 1.096C1.03167 1.16 0.999668 1.23067 1 1.308V6.6925C1 6.76917 1.032 6.83967 1.096 6.904C1.16 6.96833 1.2305 7.00033 1.3075 7Z" fill="#3A5B8D"/>
</svg>
