<svg width="12" height="12" viewBox="0 0 12 12" fill="none" xmlns="http://www.w3.org/2000/svg">
<g clip-path="url(#clip0_1146_7851)">
<path d="M9.9999 6.80039V6.00039C9.9999 5.78822 9.91562 5.58473 9.76559 5.43471C9.61556 5.28468 9.41208 5.20039 9.1999 5.20039H1.1999C0.987729 5.20039 0.784246 5.28468 0.634217 5.43471C0.484188 5.58473 0.399902 5.78822 0.399902 6.00039V10.8004C0.399902 11.0126 0.484188 11.216 0.634217 11.3661C0.784246 11.5161 0.987729 11.6004 1.1999 11.6004H9.1999C9.41208 11.6004 9.61556 11.5161 9.76559 11.3661C9.91562 11.216 9.9999 11.0126 9.9999 10.8004V10.0004M9.9999 6.80039H6.7999C6.37556 6.80039 5.96859 6.96896 5.66853 7.26902C5.36847 7.56908 5.1999 7.97604 5.1999 8.40039C5.1999 8.82474 5.36847 9.2317 5.66853 9.53176C5.96859 9.83182 6.37556 10.0004 6.7999 10.0004H9.9999M9.9999 6.80039C10.4242 6.80039 10.8312 6.96896 11.1313 7.26902C11.4313 7.56908 11.5999 7.97604 11.5999 8.40039C11.5999 8.82474 11.4313 9.2317 11.1313 9.53176C10.8312 9.83182 10.4242 10.0004 9.9999 10.0004M2.7999 5.20039V2.80039C2.7999 2.16387 3.05276 1.55342 3.50285 1.10333C3.95293 0.653247 4.56338 0.400391 5.1999 0.400391C5.83642 0.400391 6.44687 0.653247 6.89696 1.10333C7.34705 1.55342 7.5999 2.16387 7.5999 2.80039V5.20039M9.5999 8.40039H10.3999M7.9999 8.40039H8.7999M6.3999 8.40039H7.1999" stroke="#3A5B8D" stroke-width="0.8"/>
</g>
<defs>
<clipPath id="clip0_1146_7851">
<rect width="12" height="12" fill="white"/>
</clipPath>
</defs>
</svg>
