<svg width="12" height="10" viewBox="0 0 12 10" fill="none" xmlns="http://www.w3.org/2000/svg">
<path d="M4.5 5H4.5045M6.5 5H6.5045M8.5 5H8.5045M2.037 2.9645C2.6185 2.123 2.91 1.7025 3.3265 1.476C3.743 1.2495 4.228 1.25 5.1975 1.25H7.543C8.9305 1.25 9.624 1.25 10.122 1.611C10.338 1.7675 10.523 1.9685 10.667 2.2025C11 2.7425 11 3.495 11 5C11 6.505 11 7.257 10.667 7.7975C10.523 8.0315 10.338 8.2325 10.122 8.389C9.624 8.75 8.9305 8.75 7.543 8.75H5.198C4.228 8.75 3.7435 8.75 3.3265 8.5235C2.9095 8.2975 2.6185 7.877 2.037 7.0355L1.963 6.9285C1.321 6 1 5.5355 1 5C1 4.4645 1.321 4 1.963 3.0715L2.037 2.9645Z" stroke="#3A5B8D" stroke-width="0.75" stroke-linecap="round" stroke-linejoin="round"/>
</svg>
