<svg width="23" height="23" viewBox="0 0 23 23" fill="none" xmlns="http://www.w3.org/2000/svg">
<path d="M7.45 17.1366L11.5 13.2045L15.55 17.1366L17.125 15.6074L13.075 11.6753L17.125 7.74322L15.55 6.21406L11.5 10.1462L7.45 6.21406L5.875 7.74322L9.925 11.6753L5.875 15.6074L7.45 17.1366ZM11.5 22.5978C9.94375 22.5978 8.48125 22.3111 7.1125 21.7377C5.74375 21.1643 4.55312 20.386 3.54062 19.403C2.52812 18.42 1.72656 17.264 1.13594 15.9351C0.545312 14.6062 0.25 13.1863 0.25 11.6753C0.25 10.1644 0.545312 8.74445 1.13594 7.41554C1.72656 6.08663 2.52812 4.93067 3.54062 3.94764C4.55312 2.96462 5.74375 2.18639 7.1125 1.61296C8.48125 1.03952 9.94375 0.752808 11.5 0.752808C13.0562 0.752808 14.5188 1.03952 15.8875 1.61296C17.2563 2.18639 18.4469 2.96462 19.4594 3.94764C20.4719 4.93067 21.2734 6.08663 21.8641 7.41554C22.4547 8.74445 22.75 10.1644 22.75 11.6753C22.75 13.1863 22.4547 14.6062 21.8641 15.9351C21.2734 17.264 20.4719 18.42 19.4594 19.403C18.4469 20.386 17.2563 21.1643 15.8875 21.7377C14.5188 22.3111 13.0562 22.5978 11.5 22.5978Z" fill="#4B5563"/>
</svg>
