<svg width="11" height="16" viewBox="0 0 11 16" fill="none" xmlns="http://www.w3.org/2000/svg">
<path d="M2.25523 9.99021H9.06099M2.14574 8.49184H9.17048M2.93203 3.99674H8.38355M2.93203 3.99674C2.54464 3.99674 2.35127 3.99674 2.20849 4.08664C2.08292 4.16638 1.98375 4.29296 1.92675 4.44625C1.86208 4.62081 1.87809 4.84631 1.91139 5.29732L2.42363 12.2925C2.48061 13.0656 2.50879 13.4537 2.65542 13.7459C2.78487 14.0038 2.97732 14.2104 3.208 14.3392C3.47052 14.4853 3.80156 14.4853 4.46555 14.4853H6.85067C7.51402 14.4853 7.8457 14.4853 8.10758 14.3392C8.33826 14.2104 8.53071 14.0038 8.66016 13.7459C8.80743 13.4537 8.83561 13.0664 8.89195 12.2925L9.40419 5.29657C9.43749 4.84556 9.45414 4.62081 9.38947 4.447C9.33247 4.29371 9.2333 4.16712 9.10773 4.08739C8.96495 3.99674 8.77029 3.99674 8.38355 3.99674M2.93203 3.99674H2.29621C1.71994 3.99674 1.4318 3.99674 1.26468 3.85589C1.19151 3.79421 1.1303 3.71514 1.08506 3.62387C1.03982 3.53259 1.01157 3.43116 1.00216 3.32622C0.980388 3.08648 1.12382 2.7928 1.41003 2.20694C1.62389 1.76866 1.73082 1.54915 1.88129 1.38958C2.01556 1.2468 2.17423 1.13903 2.34679 1.07342C2.53888 1 2.7553 1 3.18623 1H8.12935C8.56092 1 8.77606 1 8.96943 1.07342C9.14231 1.1386 9.30047 1.24648 9.43429 1.38958C9.58476 1.54915 9.69169 1.76791 9.90555 2.20619C10.1918 2.79205 10.3352 3.08573 10.3134 3.32622C10.304 3.43116 10.2758 3.53259 10.2305 3.62387C10.1853 3.71514 10.1241 3.79421 10.0509 3.85589C9.88506 3.99674 9.59564 3.99674 9.02065 3.99674H8.38355" stroke="#308289" stroke-width="1.33333" stroke-linecap="round" stroke-linejoin="round"/>
</svg>
