<svg width="10" height="11" viewBox="0 0 10 11" fill="none" xmlns="http://www.w3.org/2000/svg">
<path d="M10 7.501C9.99996 8.18483 9.7663 8.84812 9.33773 9.38099C8.90917 9.91386 8.31141 10.2843 7.6435 10.431L7.3245 9.474C7.61665 9.42599 7.8945 9.31371 8.13799 9.14528C8.38148 8.97684 8.58453 8.75644 8.7325 8.5H7.5C7.23478 8.5 6.98043 8.39464 6.79289 8.20711C6.60536 8.01957 6.5 7.76522 6.5 7.5V5.5C6.5 5.23478 6.60536 4.98043 6.79289 4.79289C6.98043 4.60536 7.23478 4.5 7.5 4.5H8.969C8.84698 3.53345 8.37646 2.64464 7.64571 2.00034C6.91497 1.35604 5.97422 1.00054 5 1.00054C4.02578 1.00054 3.08503 1.35604 2.35429 2.00034C1.62354 2.64464 1.15302 3.53345 1.031 4.5H2.5C2.76522 4.5 3.01957 4.60536 3.20711 4.79289C3.39464 4.98043 3.5 5.23478 3.5 5.5V7.5C3.5 7.76522 3.39464 8.01957 3.20711 8.20711C3.01957 8.39464 2.76522 8.5 2.5 8.5H1C0.734784 8.5 0.48043 8.39464 0.292893 8.20711C0.105357 8.01957 0 7.76522 0 7.5V5C0 2.2385 2.2385 0 5 0C7.7615 0 10 2.2385 10 5V7.501Z" fill="#3A5B8D"/>
</svg>
