<svg width="12" height="10" viewBox="0 0 12 10" fill="none" xmlns="http://www.w3.org/2000/svg">
<path d="M9.3601 0.875187C9.22608 0.885625 9.09799 0.934857 8.99148 1.01687C8.88497 1.09889 8.80464 1.21014 8.76029 1.33705C8.71595 1.46396 8.70952 1.60103 8.74178 1.73153C8.77403 1.86203 8.84359 1.98032 8.94195 2.07196C9.32688 2.45609 9.63208 2.91253 9.84 3.41502C10.0479 3.91751 10.1545 4.45615 10.1535 4.99996C10.1542 5.54373 10.0476 6.08229 9.83965 6.58475C9.63174 7.08721 9.32668 7.54367 8.94195 7.92796C8.8751 7.9918 8.82168 8.06836 8.78484 8.15314C8.74799 8.23792 8.72846 8.32921 8.7274 8.42165C8.72634 8.51408 8.74376 8.6058 8.77864 8.6914C8.81353 8.77701 8.86517 8.85478 8.93053 8.92014C8.9959 8.98551 9.07367 9.03715 9.15927 9.07203C9.24488 9.10692 9.3366 9.12434 9.42903 9.12328C9.52146 9.12221 9.61275 9.10268 9.69753 9.06584C9.78231 9.029 9.85888 8.97558 9.92272 8.90872C10.9574 7.87098 11.5383 6.46535 11.5383 4.99996C11.5383 3.53456 10.9574 2.12894 9.92272 1.09119C9.85945 1.02429 9.78346 0.970693 9.69922 0.933525C9.61498 0.896357 9.52417 0.876367 9.43211 0.874726C9.40811 0.873789 9.3841 0.873789 9.3601 0.874726V0.875187ZM2.48041 0.889033C2.32698 0.909382 2.1848 0.980556 2.07657 1.09119C1.04193 2.12894 0.460937 3.53456 0.460938 4.99996C0.460937 6.46535 1.04193 7.87098 2.07657 8.90872C2.14041 8.97558 2.21697 9.029 2.30175 9.06584C2.38653 9.10268 2.47782 9.12221 2.57026 9.12328C2.66269 9.12434 2.75441 9.10692 2.84001 9.07203C2.92562 9.03715 3.00339 8.98551 3.06875 8.92014C3.13412 8.85478 3.18576 8.77701 3.22064 8.6914C3.25553 8.6058 3.27295 8.51408 3.27189 8.42165C3.27082 8.32921 3.25129 8.23792 3.21445 8.15314C3.1776 8.06836 3.12419 7.9918 3.05733 7.92796C2.67241 7.54382 2.36721 7.08739 2.15929 6.58489C1.95137 6.0824 1.84483 5.54377 1.8458 4.99996C1.84508 4.45618 1.95173 3.91762 2.15964 3.41516C2.36755 2.91271 2.67261 2.45624 3.05733 2.07196C3.16199 1.97032 3.23186 1.83823 3.25698 1.69452C3.2821 1.55082 3.26119 1.40285 3.19722 1.27174C3.13325 1.14063 3.0295 1.03307 2.90077 0.964429C2.77205 0.895785 2.62493 0.869098 2.48041 0.889033ZM4.24026 2.41811C4.08846 2.43443 3.94632 2.50047 3.83595 2.60596C3.5007 2.9083 3.23253 3.27754 3.04873 3.68988C2.86494 4.10223 2.7696 4.54851 2.76887 4.99996C2.76887 5.94519 3.17041 6.80457 3.82164 7.39442C3.88892 7.45597 3.96766 7.50366 4.05337 7.53478C4.13908 7.5659 4.23008 7.57983 4.32118 7.57578C4.41227 7.57173 4.50167 7.54978 4.58428 7.51118C4.66689 7.47258 4.74109 7.41808 4.80264 7.3508C4.86419 7.28352 4.91189 7.20478 4.94301 7.11907C4.97412 7.03336 4.98806 6.94236 4.98401 6.85127C4.97996 6.76018 4.958 6.67077 4.9194 6.58816C4.8808 6.50555 4.8263 6.43135 4.75903 6.3698C4.56754 6.19682 4.41464 5.98542 4.31031 5.7494C4.20597 5.51337 4.15254 5.25801 4.15349 4.99996C4.15253 4.74179 4.20601 4.48632 4.31042 4.25021C4.41484 4.0141 4.56786 3.80265 4.75949 3.62965C4.87009 3.53343 4.9473 3.40457 4.97998 3.26166C5.01266 3.11874 4.99913 2.96915 4.94134 2.83441C4.88354 2.69968 4.78447 2.58678 4.65839 2.51196C4.53232 2.43714 4.38621 2.40428 4.24026 2.41811ZM7.65841 2.41811C7.52111 2.42568 7.38918 2.47397 7.27943 2.55681C7.16967 2.63966 7.08708 2.75331 7.04217 2.88328C6.99727 3.01324 6.99208 3.15364 7.02728 3.28657C7.06247 3.4195 7.13646 3.53893 7.2398 3.62965C7.43143 3.80265 7.58444 4.0141 7.68886 4.25021C7.79328 4.48632 7.84675 4.74179 7.8458 4.99996C7.84675 5.25812 7.79328 5.51359 7.68886 5.74971C7.58444 5.98582 7.43143 6.19727 7.2398 6.37026C7.16266 6.42788 7.09838 6.50095 7.05108 6.58481C7.00377 6.66866 6.97448 6.76147 6.96507 6.85729C6.95566 6.95311 6.96634 7.04983 6.99643 7.14129C7.02652 7.23275 7.07535 7.31693 7.13981 7.38845C7.20427 7.45996 7.28294 7.51725 7.37079 7.55664C7.45864 7.59604 7.55375 7.61668 7.65002 7.61724C7.7463 7.6178 7.84164 7.59828 7.92995 7.55991C8.01825 7.52154 8.09758 7.46518 8.16287 7.39442C8.49827 7.09207 8.76656 6.72276 8.95043 6.31034C9.13431 5.89791 9.22969 5.45152 9.23041 4.99996C9.23213 4.54941 9.13932 4.10352 8.95798 3.69107C8.77664 3.27863 8.51081 2.90881 8.17764 2.60549C8.10857 2.54032 8.02684 2.49005 7.93751 2.45781C7.84819 2.42558 7.75318 2.41206 7.65841 2.41811ZM5.99964 4.16365C5.83426 4.16374 5.67261 4.21287 5.53514 4.30482C5.39767 4.39677 5.29055 4.52741 5.22732 4.68023C5.1641 4.83306 5.1476 5.0012 5.17992 5.16339C5.21224 5.32559 5.29193 5.47456 5.40891 5.59148C5.52589 5.70839 5.6749 5.788 5.83712 5.82023C5.99933 5.85246 6.16746 5.83587 6.32025 5.77256C6.47304 5.70925 6.60363 5.60206 6.6955 5.46454C6.78737 5.32702 6.83641 5.16534 6.83641 4.99996C6.83659 4.89002 6.81507 4.78113 6.77309 4.67952C6.7311 4.57792 6.66947 4.4856 6.59173 4.40786C6.514 4.33013 6.42168 4.2685 6.32008 4.22651C6.21847 4.18452 6.10958 4.16347 5.99964 4.16365Z" fill="#3A5B8D"/>
</svg>
