<svg width="10" height="10" viewBox="0 0 10 10" fill="none" xmlns="http://www.w3.org/2000/svg">
<path d="M7.625 2H0.875C0.775544 2 0.680161 2.03951 0.609835 2.10984C0.539509 2.18016 0.5 2.27554 0.5 2.375V9.125C0.5 9.22446 0.539509 9.31984 0.609835 9.39017C0.680161 9.46049 0.775544 9.5 0.875 9.5H7.625C7.72446 9.5 7.81984 9.46049 7.89017 9.39017C7.96049 9.31984 8 9.22446 8 9.125V2.375C8 2.27554 7.96049 2.18016 7.89017 2.10984C7.81984 2.03951 7.72446 2 7.625 2ZM7.25 8.75H1.25V2.75H7.25V8.75ZM9.5 0.875V7.625C9.5 7.72446 9.46049 7.81984 9.39017 7.89017C9.31984 7.96049 9.22446 8 9.125 8C9.02554 8 8.93016 7.96049 8.85983 7.89017C8.78951 7.81984 8.75 7.72446 8.75 7.625V1.25H2.375C2.27554 1.25 2.18016 1.21049 2.10984 1.14016C2.03951 1.06984 2 0.974456 2 0.875C2 0.775544 2.03951 0.680161 2.10984 0.609835C2.18016 0.539509 2.27554 0.5 2.375 0.5H9.125C9.22446 0.5 9.31984 0.539509 9.39017 0.609835C9.46049 0.680161 9.5 0.775544 9.5 0.875Z" fill="#4B5563"/>
</svg>
