<svg width="11" height="11" viewBox="0 0 11 11" fill="none" xmlns="http://www.w3.org/2000/svg">
<path d="M2.29785 0.800049C1.90003 0.800049 1.5185 0.958084 1.23719 1.23939C0.955887 1.52069 0.797852 1.90222 0.797852 2.30005V7.70005C0.797852 8.09787 0.955887 8.4794 1.23719 8.76071C1.5185 9.04201 1.90003 9.20005 2.29785 9.20005H5.09625C5.03533 9.00576 5.003 8.80365 5.00025 8.60005H2.29785C2.05916 8.60005 1.83024 8.50523 1.66146 8.33645C1.49267 8.16766 1.39785 7.93874 1.39785 7.70005V3.20005H9.19965V2.60005H9.19785V2.30005C9.19785 1.90222 9.03982 1.52069 8.75851 1.23939C8.47721 0.958084 8.09568 0.800049 7.69785 0.800049H2.29785ZM8.59785 2.30005V2.60005H1.39785V2.30005C1.39785 2.06135 1.49267 1.83244 1.66146 1.66365C1.83024 1.49487 2.05916 1.40005 2.29785 1.40005H7.69785C7.93655 1.40005 8.16547 1.49487 8.33425 1.66365C8.50303 1.83244 8.59785 2.06135 8.59785 2.30005ZM7.99965 6.20005C7.76096 6.20005 7.53204 6.10523 7.36326 5.93645C7.19447 5.76766 7.09965 5.53874 7.09965 5.30005C7.09965 5.06135 7.19447 4.83244 7.36326 4.66365C7.53204 4.49487 7.76096 4.40005 7.99965 4.40005H9.19965C9.01076 4.14819 8.74741 3.96215 8.4469 3.86828C8.1464 3.77441 7.82398 3.77747 7.52531 3.87702C7.22664 3.97658 6.96687 4.16759 6.78279 4.42298C6.59871 4.67838 6.49965 4.98523 6.49965 5.30005C6.49965 5.61487 6.59871 5.92172 6.78279 6.17711C6.96687 6.43251 7.22664 6.62352 7.52531 6.72307C7.82398 6.82263 8.1464 6.82569 8.4469 6.73182C8.74741 6.63795 9.01076 6.45191 9.19965 6.20005H7.99965ZM6.52965 8.00005C6.46065 8.00005 6.37965 8.03605 6.30825 8.11585C6.24315 8.18588 6.20471 8.27656 6.19965 8.37205V8.56405C6.19965 9.09745 6.78165 9.80005 7.99965 9.80005H9.79245C9.36765 10.1648 8.74425 10.4 7.99965 10.4C6.57945 10.4 5.59965 9.54445 5.59965 8.56405V8.37205C5.59965 8.12905 5.70465 7.89205 5.86005 7.71745C6.01665 7.54105 6.25065 7.40005 6.52965 7.40005H9.46965C9.74865 7.40005 9.98265 7.54105 10.1393 7.71745C10.2125 7.79965 10.2749 7.89625 10.3193 8.00005H6.52965ZM9.49965 5.30005C9.49965 5.40285 9.48965 5.50285 9.46965 5.60005H7.99965V5.00005H9.46965C9.48965 5.09725 9.49965 5.19725 9.49965 5.30005ZM7.99965 9.20005H10.2563C10.3449 9.0121 10.3935 8.80778 10.3991 8.60005H7.99965V9.20005Z" fill="#3A5B8D"/>
</svg>
