<svg width="12" height="9" viewBox="0 0 12 9" fill="none" xmlns="http://www.w3.org/2000/svg">
<path d="M6 7.4965C6.5525 7.4965 7 7.161 7 6.7475C7 6.3335 6.5525 5.998 6 5.998C5.4475 5.998 5 5.6625 5 5.249C5 4.8345 5.4475 4.4995 6 4.4995V4M6 7.4965C5.565 7.4965 5.194 7.288 5.057 6.997M6 7.4965L6.0015 8M6 4.5C6.435 4.5 6.806 4.7085 6.943 4.9995" stroke="#3A5B8D" stroke-width="0.75" stroke-linecap="round" stroke-linejoin="round"/>
<path d="M10.5 4.5C10.5773 4.46146 10.6473 4.40987 10.707 4.3475C11 4.0445 11 3.555 11 2.576C11 1.597 11 1.108 10.707 0.804C10.414 0.5 9.943 0.5 9 0.5H3C2.057 0.5 1.586 0.5 1.293 0.804C1 1.108 1 1.5975 1 2.576C1 3.5545 1 4.044 1.293 4.3475C1.353 4.41017 1.422 4.461 1.5 4.5M2.5 2.5H9.5" stroke="#3A5B8D" stroke-width="0.75" stroke-linecap="round" stroke-linejoin="round"/>
</svg>
