<svg width="13" height="16" viewBox="0 0 13 16" fill="none" xmlns="http://www.w3.org/2000/svg">
<path d="M5.5 8.75024C5.30109 8.75024 5.11032 8.67122 4.96967 8.53057C4.82902 8.38992 4.75 8.19915 4.75 8.00024V2.81274L4.28062 3.28211C4.13973 3.42301 3.94863 3.50217 3.74937 3.50217C3.55012 3.50217 3.35902 3.42301 3.21812 3.28211C3.07723 3.14122 2.99807 2.95012 2.99807 2.75086C2.99807 2.55161 3.07723 2.36051 3.21812 2.21961L4.96812 0.469615C5.0378 0.399695 5.1206 0.344217 5.21176 0.306363C5.30292 0.268509 5.40066 0.249023 5.49937 0.249023C5.59809 0.249023 5.69583 0.268509 5.78699 0.306363C5.87815 0.344217 5.96095 0.399695 6.03063 0.469615L7.78063 2.21961C7.92152 2.36051 8.00068 2.55161 8.00068 2.75086C8.00068 2.95012 7.92152 3.14122 7.78063 3.28211C7.63973 3.42301 7.44863 3.50217 7.24938 3.50217C7.05012 3.50217 6.85902 3.42301 6.71813 3.28211L6.25 2.81274V8.00024C6.25 8.19915 6.17098 8.38992 6.03033 8.53057C5.88968 8.67122 5.69891 8.75024 5.5 8.75024ZM10.25 7.59524V6.00024C10.25 5.66872 10.1183 5.35078 9.88388 5.11636C9.64946 4.88194 9.33152 4.75024 9 4.75024H8.25C8.05109 4.75024 7.86032 4.82926 7.71967 4.96991C7.57902 5.11056 7.5 5.30133 7.5 5.50024C7.5 5.69915 7.57902 5.88992 7.71967 6.03057C7.86032 6.17122 8.05109 6.25024 8.25 6.25024H8.75V10.519C8.36879 10.2992 7.92573 10.2112 7.48947 10.2688C7.05321 10.3263 6.6481 10.5261 6.3369 10.8372C6.02571 11.1483 5.82582 11.5534 5.76818 11.9897C5.71055 12.4259 5.7984 12.869 6.01812 13.2502C6.025 13.2627 6.0325 13.2746 6.04 13.2865L7.43125 15.4115C7.54024 15.5781 7.71094 15.6946 7.9058 15.7353C8.10066 15.776 8.30372 15.7377 8.47031 15.6287C8.6369 15.5197 8.75337 15.349 8.7941 15.1541C8.83483 14.9593 8.79649 14.7562 8.6875 14.5896L7.3125 12.4859C7.2481 12.3698 7.23244 12.233 7.26895 12.1054C7.30546 11.9778 7.39116 11.87 7.50719 11.8056C7.62322 11.7412 7.76008 11.7255 7.88766 11.762C8.01525 11.7985 8.1231 11.8842 8.1875 12.0002C8.19438 12.0127 8.20188 12.0246 8.21 12.0365L8.875 13.0552C8.96387 13.1892 9.09345 13.2911 9.24462 13.3459C9.3958 13.4006 9.56056 13.4053 9.71462 13.3593C9.86868 13.3133 10.0039 13.219 10.1003 13.0903C10.1967 12.9616 10.2492 12.8054 10.25 12.6446V9.62524C10.8944 10.4118 11.2476 11.3966 11.25 12.4134V15.0002C11.25 15.1992 11.329 15.3899 11.4697 15.5306C11.6103 15.6712 11.8011 15.7502 12 15.7502C12.1989 15.7502 12.3897 15.6712 12.5303 15.5306C12.671 15.3899 12.75 15.1992 12.75 15.0002V12.4159C12.7472 11.4713 12.5189 10.5412 12.084 9.70268C11.6492 8.8642 11.0204 8.14169 10.25 7.59524ZM2.75 4.75024H2C1.66848 4.75024 1.35054 4.88194 1.11612 5.11636C0.881696 5.35078 0.75 5.66872 0.75 6.00024V12.5002C0.75 12.6992 0.829018 12.8899 0.96967 13.0306C1.11032 13.1712 1.30109 13.2502 1.5 13.2502C1.69891 13.2502 1.88968 13.1712 2.03033 13.0306C2.17098 12.8899 2.25 12.6992 2.25 12.5002V6.25024H2.75C2.94891 6.25024 3.13968 6.17122 3.28033 6.03057C3.42098 5.88992 3.5 5.69915 3.5 5.50024C3.5 5.30133 3.42098 5.11056 3.28033 4.96991C3.13968 4.82926 2.94891 4.75024 2.75 4.75024Z" fill="#3A5B8D"/>
</svg>
