<svg width="8" height="12" viewBox="0 0 8 12" fill="none" xmlns="http://www.w3.org/2000/svg">
<path d="M3.58807 11.0909V0.181818H4.28693V11.0909H3.58807ZM5.60369 3.67188C5.56392 3.29972 5.39631 3.00994 5.10085 2.80256C4.80824 2.59517 4.42756 2.49148 3.95881 2.49148C3.62926 2.49148 3.34659 2.54119 3.1108 2.64062C2.875 2.74006 2.6946 2.875 2.5696 3.04545C2.4446 3.21591 2.38068 3.41051 2.37784 3.62926C2.37784 3.81108 2.41903 3.96875 2.50142 4.10227C2.58665 4.2358 2.7017 4.34943 2.84659 4.44318C2.99148 4.53409 3.15199 4.6108 3.32812 4.6733C3.50426 4.7358 3.68182 4.78835 3.8608 4.83097L4.67898 5.03551C5.00852 5.11222 5.32528 5.21591 5.62926 5.34659C5.93608 5.47727 6.21023 5.64205 6.4517 5.84091C6.69602 6.03977 6.8892 6.27983 7.03125 6.56108C7.1733 6.84233 7.24432 7.17187 7.24432 7.54972C7.24432 8.06108 7.11364 8.51136 6.85227 8.90057C6.59091 9.28693 6.21307 9.58949 5.71875 9.80824C5.22727 10.0241 4.6321 10.1321 3.93324 10.1321C3.25426 10.1321 2.66477 10.027 2.16477 9.81676C1.66761 9.60653 1.27841 9.29972 0.997159 8.89631C0.71875 8.4929 0.568182 8.00142 0.545455 7.42188H2.10085C2.12358 7.72585 2.21733 7.97869 2.3821 8.1804C2.54688 8.3821 2.76136 8.53267 3.02557 8.6321C3.29261 8.73153 3.59091 8.78125 3.92045 8.78125C4.2642 8.78125 4.56534 8.73011 4.82386 8.62784C5.08523 8.52273 5.28977 8.37784 5.4375 8.19318C5.58523 8.00568 5.66051 7.78693 5.66335 7.53693C5.66051 7.30966 5.59375 7.12216 5.46307 6.97443C5.33239 6.82386 5.14915 6.69886 4.91335 6.59943C4.6804 6.49716 4.40767 6.40625 4.09517 6.3267L3.10227 6.07102C2.38352 5.88636 1.81534 5.60653 1.39773 5.23153C0.982955 4.85369 0.775568 4.35227 0.775568 3.72727C0.775568 3.21307 0.914773 2.76278 1.19318 2.37642C1.47443 1.99006 1.85653 1.69034 2.33949 1.47727C2.82244 1.26136 3.36932 1.15341 3.98011 1.15341C4.59943 1.15341 5.14205 1.26136 5.60795 1.47727C6.0767 1.69034 6.4446 1.98722 6.71165 2.3679C6.97869 2.74574 7.11648 3.1804 7.125 3.67188H5.60369Z" fill="#858C95"/>
</svg>
