<svg width="30" height="24" viewBox="0 0 30 24" fill="none" xmlns="http://www.w3.org/2000/svg">
<path d="M13.1255 16.477C13.1255 15.9498 13.0889 15.4592 13.0157 15.0053C12.9425 14.5513 12.8229 14.112 12.6569 13.6873C12.491 13.2626 12.242 12.9283 11.9101 12.6842C11.5782 12.4401 11.1828 12.3181 10.7239 12.3181C10.0991 12.9429 9.33766 13.2553 8.4395 13.2553C7.54135 13.2553 6.77987 12.9429 6.15506 12.3181C5.69622 12.3181 5.30084 12.4401 4.96891 12.6842C4.63698 12.9283 4.38803 13.2626 4.22207 13.6873C4.05611 14.112 3.93652 14.5513 3.8633 15.0053C3.79008 15.4592 3.75347 15.9498 3.75347 16.477C3.75347 17.0139 3.90723 17.4703 4.21475 17.8462C4.52227 18.222 4.89081 18.41 5.32036 18.41H11.5586C11.9882 18.41 12.3567 18.222 12.6643 17.8462C12.9718 17.4703 13.1255 17.0139 13.1255 16.477ZM11.2511 9.9751C11.2511 9.19409 10.9778 8.53024 10.4311 7.98353C9.88436 7.43683 9.22051 7.16348 8.4395 7.16348C7.6585 7.16348 6.99464 7.43683 6.44794 7.98353C5.90123 8.53024 5.62788 9.19409 5.62788 9.9751C5.62788 10.7561 5.90123 11.42 6.44794 11.9667C6.99464 12.5134 7.6585 12.7867 8.4395 12.7867C9.22051 12.7867 9.88436 12.5134 10.4311 11.9667C10.9778 11.42 11.2511 10.7561 11.2511 9.9751ZM26.2464 17.0042V16.0669C26.2464 15.9303 26.2025 15.818 26.1146 15.7301C26.0268 15.6423 25.9145 15.5983 25.7778 15.5983H15.4686C15.3319 15.5983 15.2196 15.6423 15.1317 15.7301C15.0439 15.818 15 15.9303 15 16.0669V17.0042C15 17.1408 15.0439 17.2531 15.1317 17.341C15.2196 17.4288 15.3319 17.4728 15.4686 17.4728H25.7778C25.9145 17.4728 26.0268 17.4288 26.1146 17.341C26.2025 17.2531 26.2464 17.1408 26.2464 17.0042ZM20.6232 13.2553V12.3181C20.6232 12.1814 20.5793 12.0692 20.4914 11.9813C20.4035 11.8934 20.2913 11.8495 20.1546 11.8495H15.4686C15.3319 11.8495 15.2196 11.8934 15.1317 11.9813C15.0439 12.0692 15 12.1814 15 12.3181V13.2553C15 13.392 15.0439 13.5043 15.1317 13.5921C15.2196 13.68 15.3319 13.7239 15.4686 13.7239H20.1546C20.2913 13.7239 20.4035 13.68 20.4914 13.5921C20.5793 13.5043 20.6232 13.392 20.6232 13.2553ZM26.2464 13.2553V12.3181C26.2464 12.1814 26.2025 12.0692 26.1146 11.9813C26.0268 11.8934 25.9145 11.8495 25.7778 11.8495H22.9662C22.8295 11.8495 22.7173 11.8934 22.6294 11.9813C22.5415 12.0692 22.4976 12.1814 22.4976 12.3181V13.2553C22.4976 13.392 22.5415 13.5043 22.6294 13.5921C22.7173 13.68 22.8295 13.7239 22.9662 13.7239H25.7778C25.9145 13.7239 26.0268 13.68 26.1146 13.5921C26.2025 13.5043 26.2464 13.392 26.2464 13.2553ZM26.2464 9.5065V8.56929C26.2464 8.43261 26.2025 8.32034 26.1146 8.23248C26.0268 8.14462 25.9145 8.10068 25.7778 8.10068H15.4686C15.3319 8.10068 15.2196 8.14462 15.1317 8.23248C15.0439 8.32034 15 8.43261 15 8.56929V9.5065C15 9.64317 15.0439 9.75544 15.1317 9.8433C15.2196 9.93117 15.3319 9.9751 15.4686 9.9751H25.7778C25.9145 9.9751 26.0268 9.93117 26.1146 9.8433C26.2025 9.75544 26.2464 9.64317 26.2464 9.5065ZM1.87905 4.35186H28.1209V2.94605C28.1209 2.80937 28.0769 2.6971 27.9891 2.60924C27.9012 2.52137 27.7889 2.47744 27.6523 2.47744H2.34766C2.21098 2.47744 2.09871 2.52137 2.01085 2.60924C1.92298 2.6971 1.87905 2.80937 1.87905 2.94605V4.35186ZM29.9953 2.94605V20.753C29.9953 21.3973 29.7658 21.9489 29.307 22.4077C28.8482 22.8666 28.2966 23.096 27.6523 23.096H2.34766C1.70333 23.096 1.15174 22.8666 0.6929 22.4077C0.234059 21.9489 0.00463867 21.3973 0.00463867 20.753V2.94605C0.00463867 2.30172 0.234059 1.75013 0.6929 1.29129C1.15174 0.832448 1.70333 0.603027 2.34766 0.603027H27.6523C28.2966 0.603027 28.8482 0.832448 29.307 1.29129C29.7658 1.75013 29.9953 2.30172 29.9953 2.94605Z" fill="#09094F"/>
</svg>
