<svg width="18" height="18" viewBox="0 0 18 18" fill="none" xmlns="http://www.w3.org/2000/svg">
<path d="M7.125 0.875C4.71563 0.875 2.75 2.84063 2.75 5.25C2.75 6.75625 3.51875 8.09375 4.68375 8.88313C2.45438 9.83937 0.875 12.0519 0.875 14.625H2.125C2.125 11.8562 4.35625 9.625 7.125 9.625C8.46562 9.625 9.66438 10.1744 10.5625 11.0312L7.61312 13.9806L7.57438 14.1756L7.14437 16.3831L6.94938 17.3006L7.8675 17.1056L10.0738 16.6756L10.2694 16.6369L16.5781 10.3281C17.3031 9.60312 17.3031 8.39687 16.5781 7.67188C16.2281 7.32512 15.7563 7.12898 15.2636 7.12536C14.7709 7.12174 14.2963 7.31093 13.9412 7.6525L11.4613 10.1331C10.9103 9.60537 10.2683 9.18185 9.56625 8.88313C10.1611 8.48183 10.6484 7.94078 10.9856 7.30737C11.3227 6.67397 11.4993 5.96754 11.5 5.25C11.5 2.84063 9.53438 0.875 7.125 0.875ZM7.125 2.125C8.85813 2.125 10.25 3.51688 10.25 5.25C10.25 6.98313 8.85813 8.375 7.125 8.375C5.39187 8.375 4 6.98313 4 5.25C4 3.51688 5.39187 2.125 7.125 2.125ZM15.25 8.375C15.4087 8.375 15.575 8.42625 15.6994 8.55062C15.7584 8.60758 15.8053 8.67584 15.8374 8.75132C15.8694 8.82681 15.886 8.90799 15.886 8.99C15.886 9.07201 15.8694 9.15319 15.8374 9.22868C15.8053 9.30416 15.7584 9.37242 15.6994 9.42937L9.64437 15.4844L8.53125 15.7188L8.76562 14.6056L14.8206 8.55062C14.8763 8.49344 14.9432 8.44834 15.017 8.41812C15.0909 8.3879 15.1702 8.37323 15.25 8.375Z" fill="#3A5B8D"/>
</svg>
