<svg width="21" height="18" viewBox="0 0 21 18" fill="none" xmlns="http://www.w3.org/2000/svg">
<path fill-rule="evenodd" clip-rule="evenodd" d="M11.0002 0.937012L20.7502 5.00051V12.25H19.2502V6.71351L18.5002 7.08851V15.787L17.9932 15.9595L17.9887 15.961L17.9782 15.964L17.9392 15.979L17.7922 16.027C17.0199 16.2799 16.2412 16.5125 15.4567 16.7245C14.0647 17.0995 12.2917 17.5 11.0017 17.5C9.7117 17.5 7.9357 17.098 6.5452 16.7245C5.71041 16.4987 4.88209 16.2496 4.0612 15.9775L4.0222 15.964L4.0117 15.961H4.0102L4.2502 15.25L4.0102 15.9595L3.5002 15.7855V7.09001L0.200195 5.44001L11.0002 0.937012ZM5.0002 7.84001V14.7085C5.6407 14.9134 6.28588 15.1035 6.93519 15.2785C8.3287 15.6535 9.92919 16.0015 11.0002 16.0015C12.0712 16.0015 13.6717 15.6535 15.0652 15.277C15.7144 15.1015 16.3595 14.9114 17.0002 14.707V7.84001L11.0002 10.84L5.0002 7.84001Z" fill="#0D99FF"/>
</svg>
