<svg width="12" height="14" viewBox="0 0 12 14" fill="none" xmlns="http://www.w3.org/2000/svg">
<path d="M2.00008 6.06634V1.66634C1.82327 1.66634 1.6537 1.5961 1.52868 1.47108C1.40365 1.34605 1.33341 1.17649 1.33341 0.999674C1.33341 0.822863 1.40365 0.653294 1.52868 0.52827C1.6537 0.403246 1.82327 0.333008 2.00008 0.333008H10.0001C10.1769 0.333008 10.3465 0.403246 10.4715 0.52827C10.5965 0.653294 10.6667 0.822863 10.6667 0.999674C10.6667 1.17649 10.5965 1.34605 10.4715 1.47108C10.3465 1.5961 10.1769 1.66634 10.0001 1.66634V6.06634C10.6214 6.74634 10.9547 7.42234 11.1327 7.95567C11.2301 8.24767 11.2794 8.49568 11.3061 8.67567C11.3201 8.77068 11.329 8.86638 11.3327 8.96234V8.98501L11.3334 8.99368V8.99901C11.3334 8.99901 11.3301 8.91167 11.3334 8.99967C11.3334 9.17649 11.2632 9.34606 11.1382 9.47108C11.0131 9.5961 10.8436 9.66634 10.6667 9.66634H6.66675V12.9997C6.66675 13.1765 6.59651 13.3461 6.47149 13.4711C6.34646 13.5961 6.17689 13.6663 6.00008 13.6663C5.82327 13.6663 5.6537 13.5961 5.52868 13.4711C5.40365 13.3461 5.33342 13.1765 5.33342 12.9997V9.66634H1.33341C1.1566 9.66634 0.987035 9.5961 0.86201 9.47108C0.736986 9.34606 0.666748 9.17649 0.666748 8.99967V8.98501C0.667082 8.95519 0.668416 8.9254 0.670748 8.89567C0.676089 8.8221 0.683871 8.74873 0.694081 8.67567C0.720748 8.49568 0.770081 8.24767 0.867415 7.95567C1.04541 7.42234 1.37875 6.74634 2.00008 6.06567V6.06634ZM8.66675 1.66634H3.33341V6.33301C3.33338 6.5098 3.26311 6.67935 3.13808 6.80434C2.57341 7.36901 2.29075 7.92301 2.14741 8.33301H9.85342C9.71008 7.92301 9.42675 7.36901 8.86275 6.80434C8.80072 6.7425 8.75148 6.66905 8.71785 6.58818C8.68422 6.5073 8.66685 6.4206 8.66675 6.33301V1.66634Z" fill="#3A5B8D"/>
</svg>
