<svg width="13" height="11" viewBox="0 0 13 11" fill="none" xmlns="http://www.w3.org/2000/svg">
<path d="M12.125 0.490723H0.875C0.68852 0.490723 0.509677 0.564802 0.377816 0.696663C0.245954 0.828525 0.171875 1.00737 0.171875 1.19385V9.1626C0.171875 9.4734 0.29534 9.77147 0.515109 9.99124C0.734878 10.211 1.03295 10.3345 1.34375 10.3345H11.6562C11.9671 10.3345 12.2651 10.211 12.4849 9.99124C12.7047 9.77147 12.8281 9.4734 12.8281 9.1626V1.19385C12.8281 1.00737 12.754 0.828525 12.6222 0.696663C12.4903 0.564802 12.3115 0.490723 12.125 0.490723ZM10.3174 1.89697L6.5 5.39619L2.68262 1.89697H10.3174ZM1.57812 8.92822V2.79229L6.0248 6.86865C6.15449 6.98757 6.32405 7.05354 6.5 7.05354C6.67595 7.05354 6.84551 6.98757 6.9752 6.86865L11.4219 2.79229V8.92822H1.57812Z" fill="#4B5563"/>
</svg>
