<svg width="14" height="12" viewBox="0 0 14 12" fill="none" xmlns="http://www.w3.org/2000/svg">
<path d="M13.6798 1.14235C13.742 1.2038 13.7958 1.27146 13.8413 1.34535C13.9452 1.51627 14 1.71168 14 1.91118V7.51352C14 7.71302 13.9446 7.9096 13.8402 8.07993C13.7796 8.17731 13.7042 8.26468 13.6168 8.33893C13.4213 8.50577 13.1734 8.59735 12.9162 8.59735H6.84076C6.16654 9.78142 5.09041 10.6847 3.80743 11.1436L3.72809 11.1722L3.64934 11.1419C2.58852 10.7341 1.67434 10.0177 1.02493 9.08502C0.355649 8.13021 -0.00231123 6.99195 1.12299e-05 5.82593C-0.000112155 5.41402 0.0442845 5.0033 0.132428 4.60093L0.162761 4.46268L0.300428 4.42885C0.332706 4.42107 0.364206 4.41291 0.394928 4.40435C1.63103 4.07854 2.75432 3.42047 3.64293 2.50152L3.66626 2.47643L3.80159 2.33702V1.91118C3.80159 1.7111 3.85701 1.51452 3.96143 1.34418C4.00693 1.2703 4.06098 1.20302 4.12359 1.14235C4.30936 0.956207 4.557 0.844738 4.81951 0.829102H12.9827C13.2456 0.844458 13.4937 0.955947 13.6798 1.14235ZM4.88601 1.34418C4.86657 1.34418 4.84751 1.34496 4.82884 1.34652H4.74601L4.75943 1.35877L8.73485 4.87568C8.78122 4.91665 8.84097 4.93926 8.90285 4.93926C8.96472 4.93926 9.02447 4.91665 9.07085 4.87568L13.0463 1.35877L13.0597 1.34652H12.9745C12.9555 1.34481 12.9364 1.34403 12.9173 1.34418H4.88601ZM4.36218 1.6971C4.33484 1.76519 4.32059 1.83782 4.32018 1.91118V2.83635C5.14305 3.57827 6.13027 4.11427 7.20068 4.40027L7.26718 4.41718L7.30043 4.42593L7.43868 4.45977L7.46843 4.59918C7.49137 4.7084 7.51083 4.81831 7.52676 4.92877L7.77001 4.71352L4.36218 1.6971ZM1.35859 8.7531C1.94244 9.61779 2.76942 10.2901 3.73509 10.6851C4.88539 10.2516 5.84708 9.42813 6.45256 8.35831C7.05805 7.28848 7.26892 6.04011 7.04843 4.83077C5.82868 4.50012 4.7134 3.86388 3.80801 2.98218C2.89839 3.86776 1.77722 4.50576 0.551261 4.83543C0.48867 5.16188 0.457224 5.49354 0.457345 5.82593C0.461554 6.86933 0.775203 7.88803 1.35859 8.7531ZM7.59093 5.77927C7.59111 6.57189 7.42477 7.35571 7.10268 8.07993H13.0597L13.0433 8.06535L9.64485 5.05943L9.07026 5.56693C9.02421 5.60834 8.96448 5.63124 8.90255 5.63124C8.84063 5.63124 8.78089 5.60834 8.73485 5.56693L8.16026 5.05943L7.58626 5.56693C7.58937 5.63771 7.59093 5.70849 7.59093 5.77927ZM13.4412 7.72702C13.4699 7.65956 13.4842 7.58684 13.4832 7.51352L13.4838 1.91177C13.4833 1.83903 13.4693 1.76701 13.4423 1.69943L10.0357 4.7141L13.4412 7.72702ZM3.85526 3.78718C4.57415 4.47101 5.45205 4.96499 6.40968 5.22452C6.45246 5.46057 6.4754 5.69838 6.47851 5.93793V5.98577C6.47736 6.97983 6.12511 7.94154 5.48393 8.70118L5.47985 8.70585C5.01636 9.25467 4.41985 9.67544 3.74734 9.92793C2.97128 9.61098 2.30673 9.07084 1.83788 8.37592C1.36902 7.68099 1.11695 6.86256 1.11359 6.02427C1.11359 5.75632 1.13868 5.49091 1.18884 5.22802C2.17376 4.96329 3.07459 4.45102 3.80568 3.73993L3.85526 3.78718ZM2.00201 6.73477L3.60734 8.3401L5.84268 6.10535L5.34859 5.61185L3.60851 7.35252L2.49551 6.2401L2.00201 6.73477Z" fill="#3A5B8D"/>
</svg>
