<svg width="12" height="12" viewBox="0 0 12 12" fill="none" xmlns="http://www.w3.org/2000/svg">
<path d="M7.72888 4.12222C7.65961 3.92744 7.53185 3.75883 7.36307 3.63945C7.19429 3.52008 6.99275 3.45578 6.78602 3.45536H6.01202C5.7912 3.45421 5.5778 3.53497 5.41308 3.68204C5.24836 3.8291 5.14403 4.03202 5.12025 4.25156C5.09647 4.4711 5.15494 4.69165 5.28436 4.87057C5.41377 5.04949 5.60493 5.17407 5.82088 5.22022L6.99945 5.47736C7.24044 5.53012 7.45343 5.67007 7.5975 5.87033C7.74157 6.07058 7.80657 6.31701 7.77999 6.56227C7.75341 6.80753 7.63714 7.03432 7.45351 7.19906C7.26988 7.36381 7.03186 7.45488 6.78516 7.45479H6.11916C5.68373 7.45479 5.31345 7.17708 5.1763 6.78879M6.45259 3.45536V2.45508M6.45259 8.45508V7.45565M2.28345 11.1431V9.00022H4.4263" stroke="#3A5B8D" stroke-width="0.857143" stroke-linecap="round" stroke-linejoin="round"/>
<path d="M12.0464 4.54836C12.2739 5.7614 12.0923 7.01566 11.5299 8.11428C10.9675 9.2129 10.0562 10.0937 8.93913 10.6184C7.82203 11.1431 6.56232 11.2821 5.35772 11.0134C4.15311 10.7448 3.07181 10.0837 2.28352 9.13407M1.09552 6.59864C0.867969 5.3856 1.04964 4.13134 1.61202 3.03272C2.17441 1.9341 3.08566 1.05331 4.20276 0.528596C5.31987 0.00388185 6.57958 -0.135053 7.78418 0.133597C8.98878 0.402247 10.0701 1.06328 10.8584 2.01293" stroke="#3A5B8D" stroke-width="0.857143" stroke-linecap="round" stroke-linejoin="round"/>
<path d="M10.8584 0.00390625V2.14676H8.71558" stroke="#3A5B8D" stroke-width="0.857143" stroke-linecap="round" stroke-linejoin="round"/>
</svg>
