<svg width="16" height="16" viewBox="0 0 16 16" fill="none" xmlns="http://www.w3.org/2000/svg">
<g clip-path="url(#clip0_1146_8173)">
<path fill-rule="evenodd" clip-rule="evenodd" d="M1.85005 5.22995C2.21466 5.07906 2.60545 5.00158 3.00005 5.00195H3.50005C3.63266 5.00195 3.75984 5.05463 3.8536 5.1484C3.94737 5.24217 4.00005 5.36935 4.00005 5.50195C4.00005 5.63456 3.94737 5.76174 3.8536 5.85551C3.75984 5.94928 3.63266 6.00195 3.50005 6.00195H3.00005C2.47031 6.00195 1.96221 6.21212 1.58725 6.58633C1.21229 6.96053 1.00111 7.46822 1.00005 7.99795V12.998C1.00243 13.5273 1.21403 14.0342 1.5887 14.4081C1.96337 14.7821 2.47071 14.9926 3.00005 14.994H12.0001C12.5301 14.994 13.0401 14.783 13.4101 14.408C13.7801 14.033 13.9961 13.524 13.9961 12.998V7.99795C13.995 7.46891 13.7844 6.96183 13.4103 6.58774C13.0362 6.21364 12.5291 6.00301 12.0001 6.00195H11.5001C11.3674 6.00195 11.2403 5.94928 11.1465 5.85551C11.0527 5.76174 11.0001 5.63456 11.0001 5.50195C11.0001 5.36935 11.0527 5.24217 11.1465 5.1484C11.2403 5.05463 11.3674 5.00195 11.5001 5.00195H12.0001C12.7961 5.00195 13.5601 5.31795 14.1201 5.88095C14.6801 6.44395 14.9991 7.21096 14.9991 8.00096V13.001C14.9991 13.797 14.6831 14.561 14.1201 15.121C13.5571 15.681 12.7901 16 12.0001 16H3.00005C2.20481 15.9992 1.4423 15.6832 0.879604 15.1212C0.316906 14.5593 -9.68047e-05 13.7972 -0.00194889 13.002V8.00195C-0.00294687 7.40858 0.172628 6.82834 0.502428 6.33506C0.832227 5.84179 1.30134 5.45779 1.85005 5.23195V5.22995Z" fill="white"/>
<path d="M7.85004 0.146393C7.75628 0.0526577 7.62912 0 7.49654 0C7.36396 0 7.23681 0.0526577 7.14304 0.146393L4.14304 3.14639C4.05196 3.24069 4.00157 3.367 4.0027 3.49809C4.00384 3.62919 4.05643 3.7546 4.14913 3.8473C4.24184 3.94001 4.36724 3.99259 4.49834 3.99373C4.62944 3.99487 4.75574 3.94447 4.85004 3.85339L7.00004 1.70339V9.49339C7.00004 9.626 7.05272 9.75318 7.14649 9.84695C7.24026 9.94071 7.36743 9.99339 7.50004 9.99339C7.63265 9.99339 7.75983 9.94071 7.85359 9.84695C7.94736 9.75318 8.00004 9.626 8.00004 9.49339V1.70339L10.15 3.85339C10.2443 3.94447 10.3706 3.99487 10.5017 3.99373C10.6328 3.99259 10.7582 3.94001 10.851 3.8473C10.9437 3.7546 10.9962 3.62919 10.9974 3.49809C10.9985 3.367 10.9481 3.24069 10.857 3.14639L7.85704 0.146393H7.85004Z" fill="white"/>
</g>
<defs>
<clipPath id="clip0_1146_8173">
<rect width="16" height="16" fill="white"/>
</clipPath>
</defs>
</svg>
