<svg width="10" height="11" viewBox="0 0 10 11" fill="none" xmlns="http://www.w3.org/2000/svg">
<path d="M9.3125 5.25044V9.75044C9.3125 9.99908 9.21373 10.2375 9.03791 10.4134C8.8621 10.5892 8.62364 10.6879 8.375 10.6879H1.625C1.37636 10.6879 1.1379 10.5892 0.962087 10.4134C0.786272 10.2375 0.6875 9.99908 0.6875 9.75044V5.25044C0.6875 5.0018 0.786272 4.76335 0.962087 4.58753C1.1379 4.41172 1.37636 4.31294 1.625 4.31294H2.5625C2.71168 4.31294 2.85476 4.37221 2.96025 4.4777C3.06574 4.58319 3.125 4.72626 3.125 4.87544C3.125 5.02463 3.06574 5.1677 2.96025 5.27319C2.85476 5.37868 2.71168 5.43794 2.5625 5.43794H1.8125V9.56294H8.1875V5.43794H7.4375C7.28832 5.43794 7.14524 5.37868 7.03975 5.27319C6.93426 5.1677 6.875 5.02463 6.875 4.87544C6.875 4.72626 6.93426 4.58319 7.03975 4.4777C7.14524 4.37221 7.28832 4.31294 7.4375 4.31294H8.375C8.62364 4.31294 8.8621 4.41172 9.03791 4.58753C9.21373 4.76335 9.3125 5.0018 9.3125 5.25044ZM3.52297 3.39841L4.4375 2.48482V6.37544C4.4375 6.52463 4.49676 6.6677 4.60225 6.77319C4.70774 6.87868 4.85082 6.93794 5 6.93794C5.14918 6.93794 5.29226 6.87868 5.39775 6.77319C5.50324 6.6677 5.5625 6.52463 5.5625 6.37544V2.48482L6.47703 3.39982C6.52935 3.45214 6.59147 3.49365 6.65984 3.52196C6.7282 3.55028 6.80147 3.56486 6.87547 3.56486C6.94947 3.56486 7.02274 3.55028 7.0911 3.52196C7.15947 3.49365 7.22158 3.45214 7.27391 3.39982C7.32623 3.34749 7.36773 3.28538 7.39605 3.21701C7.42437 3.14865 7.43894 3.07538 7.43894 3.00138C7.43894 2.92738 7.42437 2.85411 7.39605 2.78575C7.36773 2.71738 7.32623 2.65527 7.27391 2.60294L5.39891 0.727944C5.34665 0.675504 5.28455 0.633895 5.21618 0.605505C5.14781 0.577114 5.0745 0.5625 5.00047 0.5625C4.92644 0.5625 4.85313 0.577114 4.78476 0.605505C4.71639 0.633895 4.65429 0.675504 4.60203 0.727944L2.72703 2.60294C2.67471 2.65527 2.6332 2.71738 2.60488 2.78575C2.57657 2.85411 2.56199 2.92738 2.56199 3.00138C2.56199 3.15082 2.62136 3.29415 2.72703 3.39982C2.8327 3.50549 2.97603 3.56486 3.12547 3.56486C3.27491 3.56486 3.41823 3.50549 3.52391 3.39982L3.52297 3.39841Z" fill="#3A5B8D"/>
</svg>
