<svg width="15" height="10" viewBox="0 0 15 10" fill="none" xmlns="http://www.w3.org/2000/svg">
<path d="M14.707 4.62725C14.6854 4.57978 14.1721 3.44014 13.0383 2.30635C11.5213 0.791699 9.60939 -0.00927734 7.50002 -0.00927734C5.39064 -0.00927734 3.47873 0.791699 1.96349 2.30635C0.829704 3.44014 0.316423 4.57978 0.292985 4.62725C0.25329 4.71724 0.232788 4.81453 0.232788 4.91289C0.232788 5.01125 0.25329 5.10854 0.292985 5.19854C0.314665 5.24658 0.827946 6.38564 1.96232 7.51943C3.47873 9.03408 5.39064 9.83447 7.50002 9.83447C9.60939 9.83447 11.5213 9.03408 13.036 7.51943C14.1703 6.38564 14.6836 5.24658 14.7053 5.19854C14.7453 5.10866 14.7661 5.01144 14.7664 4.91308C14.7667 4.81471 14.7465 4.71737 14.707 4.62725ZM12.0082 6.56084C10.7502 7.79951 9.23381 8.42822 7.50002 8.42822C5.76623 8.42822 4.24982 7.79951 2.99357 6.56025C2.49924 6.07113 2.07402 5.51679 1.7297 4.9126C2.07412 4.30865 2.49933 3.75452 2.99357 3.26553C4.25041 2.02568 5.76623 1.39697 7.50002 1.39697C9.23381 1.39697 10.7496 2.02568 12.0065 3.26553C12.5007 3.75447 12.926 4.30861 13.2703 4.9126C12.926 5.51675 12.5007 6.07109 12.0065 6.56025L12.0082 6.56084ZM7.50002 2.33447C6.99011 2.33447 6.49166 2.48568 6.06769 2.76897C5.64372 3.05225 5.31327 3.4549 5.11814 3.92599C4.92301 4.39708 4.87195 4.91546 4.97143 5.41556C5.07091 5.91567 5.31645 6.37505 5.67701 6.73561C6.03756 7.09616 6.49694 7.34171 6.99705 7.44118C7.49716 7.54066 8.01553 7.48961 8.48662 7.29447C8.95771 7.09934 9.36036 6.7689 9.64365 6.34493C9.92694 5.92096 10.0781 5.4225 10.0781 4.9126C10.0774 4.22907 9.80549 3.57377 9.32217 3.09044C8.83885 2.60712 8.18354 2.33525 7.50002 2.33447ZM7.50002 6.08447C7.26824 6.08447 7.04167 6.01574 6.84896 5.88698C6.65624 5.75821 6.50604 5.57519 6.41735 5.36105C6.32865 5.14692 6.30544 4.9113 6.35066 4.68398C6.39588 4.45665 6.50749 4.24785 6.67138 4.08396C6.83527 3.92007 7.04407 3.80846 7.27139 3.76324C7.49872 3.71802 7.73434 3.74123 7.94847 3.82993C8.16261 3.91862 8.34563 4.06882 8.47439 4.26154C8.60316 4.45425 8.67189 4.68082 8.67189 4.9126C8.67189 5.2234 8.54843 5.52147 8.32866 5.74124C8.10889 5.96101 7.81082 6.08447 7.50002 6.08447Z" fill="#CBD5E1"/>
</svg>
