<svg width="12" height="11" viewBox="0 0 12 11" fill="none" xmlns="http://www.w3.org/2000/svg">
<path fill-rule="evenodd" clip-rule="evenodd" d="M11.269 0.800206C11.452 0.617148 11.452 0.320352 11.269 0.137294C11.0859 -0.0457646 10.7891 -0.0457646 10.606 0.137294L0.606044 10.1373C0.422985 10.3204 0.422985 10.6171 0.606044 10.8002C0.789102 10.9833 1.0859 10.9833 1.26896 10.8002L3.16584 8.90332C3.98948 9.28326 4.93241 9.53125 5.9375 9.53125C7.57361 9.53125 9.045 8.87413 10.1052 8.0604C10.6361 7.65301 11.0716 7.20054 11.3772 6.7602C11.677 6.32824 11.875 5.87404 11.875 5.46875C11.875 5.06346 11.677 4.60926 11.3772 4.1773C11.0716 3.73696 10.6361 3.28449 10.1052 2.8771C9.93612 2.7473 9.75653 2.62148 9.56748 2.50168L11.269 0.800206ZM7.89294 4.17622L7.2067 4.86246C7.29455 5.04604 7.34375 5.25165 7.34375 5.46875C7.34375 6.2454 6.71415 6.875 5.9375 6.875C5.7204 6.875 5.51479 6.8258 5.33121 6.73795L4.64497 7.42419C5.01549 7.66959 5.45981 7.8125 5.9375 7.8125C7.23192 7.8125 8.28125 6.76317 8.28125 5.46875C8.28125 4.99106 8.13834 4.54674 7.89294 4.17622Z" fill="#CBD5E1"/>
<path d="M6.30522 3.15368C6.38931 3.16693 6.47586 3.14248 6.53606 3.08228L7.60956 2.00878C7.74191 1.87643 7.68683 1.65186 7.50544 1.6057C7.00703 1.47886 6.48136 1.40625 5.9375 1.40625C4.30139 1.40625 2.83001 2.06337 1.76976 2.8771C1.23895 3.28449 0.803397 3.73696 0.497806 4.1773C0.198038 4.60926 0 5.06346 0 5.46875C0 5.87404 0.198038 6.32824 0.497806 6.7602C0.745501 7.11712 1.07858 7.482 1.47856 7.82439C1.57541 7.90729 1.7193 7.89904 1.80945 7.80889L3.55103 6.06731C3.61123 6.00711 3.63568 5.92056 3.62243 5.83647C3.60355 5.71667 3.59375 5.59385 3.59375 5.46875C3.59375 4.17433 4.64308 3.125 5.9375 3.125C6.0626 3.125 6.18542 3.1348 6.30522 3.15368Z" fill="#CBD5E1"/>
</svg>
