<svg width="39" height="39" viewBox="0 0 39 39" fill="none" xmlns="http://www.w3.org/2000/svg">
<path fill-rule="evenodd" clip-rule="evenodd" d="M1.98047 10.7021V6.32227C1.98047 3.92818 3.92822 1.98047 6.32227 1.98047H10.7021C11.249 1.98047 11.6924 1.53711 11.6924 0.990234C11.6924 0.443358 11.249 0 10.7021 0H6.32227C2.83618 0 0 2.83615 0 6.32227V10.7021C0 11.249 0.443358 11.6924 0.990234 11.6924C1.53711 11.6924 1.98047 11.249 1.98047 10.7021ZM10.7021 37.0195C11.249 37.0195 11.6924 37.4629 11.6924 38.0098C11.6924 38.5566 11.249 39 10.7021 39H6.32227C2.83618 39 0 36.1638 0 32.6777V28.2979C0 27.751 0.443358 27.3076 0.990234 27.3076C1.53711 27.3076 1.98047 27.751 1.98047 28.2979V32.6777C1.98047 35.0718 3.92822 37.0195 6.32227 37.0195H10.7021ZM39 28.2979V32.6777C39 36.1638 36.1638 39 32.6777 39H28.2979C27.751 39 27.3076 38.5566 27.3076 38.0098C27.3076 37.4629 27.751 37.0195 28.2979 37.0195H32.6777C35.0718 37.0195 37.0195 35.0718 37.0195 32.6777V28.2979C37.0195 27.751 37.4629 27.3076 38.0098 27.3076C38.5566 27.3076 39 27.751 39 28.2979ZM39 6.32227V10.7021C39 11.249 38.5566 11.6924 38.0098 11.6924C37.4629 11.6924 37.0195 11.249 37.0195 10.7021V6.32227C37.0195 3.92818 35.0718 1.98047 32.6777 1.98047H28.2979C27.751 1.98047 27.3076 1.53711 27.3076 0.990234C27.3076 0.443358 27.751 0 28.2979 0H32.6777C36.1638 0 39 2.83615 39 6.32227ZM26.3336 28.8247C26.7508 28.4394 26.7766 27.7888 26.3913 27.3716C26.0059 26.9544 25.3553 26.9286 24.9381 27.3139C23.4537 28.6852 21.5223 29.4404 19.4999 29.4404C17.4775 29.4404 15.5462 28.6852 14.0617 27.3139C13.6444 26.9286 12.994 26.9544 12.6086 27.3716C12.2232 27.7888 12.249 28.4394 12.6662 28.8247C14.5318 30.548 16.9587 31.497 19.4999 31.497C22.0411 31.497 24.468 30.548 26.3336 28.8247ZM21.5566 14.7012V22.0137C21.5566 23.4627 20.3778 24.6416 18.9287 24.6416H18.0908C17.5229 24.6416 17.0625 24.1812 17.0625 23.6133C17.0625 23.0453 17.5229 22.585 18.0908 22.585H18.9287C19.2437 22.585 19.5 22.3287 19.5 22.0137V14.7012C19.5 14.1332 19.9604 13.6729 20.5283 13.6729C21.0963 13.6729 21.5566 14.1332 21.5566 14.7012ZM28.6406 17.5767V14.644C28.6406 14.1077 28.2058 13.6729 27.6694 13.6729C27.1331 13.6729 26.6982 14.1077 26.6982 14.644V17.5767C26.6982 18.113 27.1331 18.5479 27.6694 18.5479C28.2058 18.5479 28.6406 18.113 28.6406 17.5767ZM10.5879 17.5767C10.5879 18.113 11.0227 18.5479 11.5591 18.5479C12.0954 18.5479 12.5303 18.113 12.5303 17.5767V14.644C12.5303 14.1077 12.0954 13.6729 11.5591 13.6729C11.0227 13.6729 10.5879 14.1077 10.5879 14.644V17.5767Z" fill="#09094F"/>
</svg>
