<svg width="40" height="28" viewBox="0 0 40 28" fill="none" xmlns="http://www.w3.org/2000/svg">
<rect x="0.5" y="0.5" width="39" height="27" rx="1.5" fill="white" stroke="#CBD5E1"/>
<path d="M13 11.5V10.25C13 9.91848 13.1712 9.60054 13.476 9.36612C13.7807 9.1317 14.194 9 14.625 9H16.25M13 16.5V17.75C13 18.0815 13.1712 18.3995 13.476 18.6339C13.7807 18.8683 14.194 19 14.625 19H16.25M22.75 9H24.375C24.806 9 25.2193 9.1317 25.524 9.36612C25.8288 9.60054 26 9.91848 26 10.25V11.5M22.75 19H24.375C24.806 19 25.2193 18.8683 25.524 18.6339C25.8288 18.3995 26 18.0815 26 17.75V16.5M17.0625 12.75H17.0706M21.9375 12.75H21.9456M17.4688 15.875C17.7335 16.0829 18.0496 16.248 18.3984 16.3608C18.7471 16.4735 19.1217 16.5316 19.5 16.5316C19.8783 16.5316 20.2529 16.4735 20.6016 16.3608C20.9504 16.248 21.2665 16.0829 21.5312 15.875" stroke="#09094F" stroke-width="1.33333" stroke-linecap="round" stroke-linejoin="round"/>
</svg>
