<svg width="12" height="12" viewBox="0 0 12 12" fill="none" xmlns="http://www.w3.org/2000/svg">
<g clip-path="url(#clip0_1146_7868)">
<path d="M5.625 1.5C6.12228 1.5 6.59919 1.69754 6.95083 2.04917C7.30246 2.40081 7.5 2.87772 7.5 3.375C7.5 3.76725 7.37475 4.06725 7.18275 4.305C7.04723 4.46648 6.88969 4.60812 6.71475 4.72575L6.5895 4.8135C6.393 4.95 6.25125 5.05125 6.15 5.17575C6.04632 5.30159 5.99288 5.46135 6 5.62425V6.37425C6 6.47371 5.96049 6.56909 5.89016 6.63941C5.81984 6.70974 5.72446 6.74925 5.625 6.74925C5.52554 6.74925 5.43016 6.70974 5.35984 6.63941C5.28951 6.56909 5.25 6.47371 5.25 6.37425V5.62425C5.25 5.235 5.376 4.93725 5.56875 4.70175C5.7075 4.53225 5.8785 4.39875 6.03075 4.28925L6.1605 4.1985C6.3555 4.06275 6.49725 3.96075 6.5985 3.83475C6.7041 3.7055 6.75808 3.54171 6.75 3.375C6.75 3.07663 6.63147 2.79048 6.4205 2.5795C6.20952 2.36853 5.92337 2.25 5.625 2.25C5.32663 2.25 5.04048 2.36853 4.8295 2.5795C4.61853 2.79048 4.5 3.07663 4.5 3.375C4.5 3.47446 4.46049 3.56984 4.39016 3.64016C4.31984 3.71049 4.22446 3.75 4.125 3.75C4.02554 3.75 3.93016 3.71049 3.85984 3.64016C3.78951 3.56984 3.75 3.47446 3.75 3.375C3.75 2.87772 3.94754 2.40081 4.29917 2.04917C4.65081 1.69754 5.12772 1.5 5.625 1.5ZM5.625 7.575C5.79905 7.575 5.96597 7.64414 6.08904 7.76721C6.21211 7.89028 6.28125 8.0572 6.28125 8.23125C6.28125 8.4053 6.21211 8.57222 6.08904 8.69529C5.96597 8.81836 5.79905 8.8875 5.625 8.8875C5.45095 8.8875 5.28403 8.81836 5.16096 8.69529C5.03789 8.57222 4.96875 8.4053 4.96875 8.23125C4.96875 8.0572 5.03789 7.89028 5.16096 7.76721C5.28403 7.64414 5.45095 7.575 5.625 7.575Z" fill="#3A5B8D"/>
<path fill-rule="evenodd" clip-rule="evenodd" d="M5.62493 10.5002C6.50993 10.5002 7.26743 10.3975 7.91243 10.2085C8.66243 10.7327 9.65993 11.2735 10.9499 11.911C11.6369 12.253 12.2924 11.4775 11.8574 10.846C11.3122 10.0435 10.8374 9.26348 10.4624 8.37848C11.0144 7.50098 11.2424 6.42098 11.2424 5.25098C11.2424 2.34848 9.83243 0.000976562 5.61743 0.000976562C1.40243 0.000976562 -0.00756836 2.35598 -0.00756836 5.25098C-0.00756836 8.15348 1.40243 10.501 5.61743 10.501L5.62493 10.5002ZM9.83243 7.98023C9.76807 8.08213 9.72922 8.19805 9.71916 8.31816C9.70911 8.43827 9.72816 8.55904 9.77468 8.67023C10.1617 9.59273 10.6522 10.4027 11.1922 11.1977C9.95468 10.5805 9.03218 10.0727 8.34218 9.59273C8.25028 9.5286 8.14518 9.48588 8.0346 9.46771C7.92402 9.44954 7.81077 9.45638 7.70318 9.48773C7.13468 9.65348 6.45068 9.74948 5.62568 9.74948C3.65318 9.74948 2.47568 9.20348 1.77818 8.45198C1.07243 7.68698 0.749932 6.59198 0.749932 5.24948C0.749932 3.90698 1.07543 2.80448 1.77743 2.04698C2.47268 1.29698 3.65243 0.749477 5.62493 0.749477C7.59743 0.749477 8.77493 1.29548 9.47243 2.04698C10.1774 2.81198 10.4999 3.90698 10.4999 5.24948C10.4999 6.32948 10.2869 7.25948 9.83393 7.97948L9.83243 7.98023Z" fill="#3A5B8D"/>
</g>
<defs>
<clipPath id="clip0_1146_7868">
<rect width="12" height="12" fill="white"/>
</clipPath>
</defs>
</svg>
