<svg width="12" height="14" viewBox="0 0 12 14" fill="none" xmlns="http://www.w3.org/2000/svg">
<path d="M6.00652 2.34941L11.3398 2.33875M0.69187 11.6934L2.69187 11.6894M0.673198 2.36008L3.33986 2.35475M5.35853 11.6841L11.3585 11.6721M9.34918 7.0094L11.3492 7.0054M0.682534 7.02674L6.68252 7.01474" stroke="#272770" stroke-linecap="round"/>
<path d="M3.33991 2.35466C3.34139 3.09103 3.93953 3.68679 4.67591 3.68532C5.41229 3.68385 6.00805 3.0857 6.00657 2.34932C6.0051 1.61294 5.40695 1.01719 4.67058 1.01866C3.9342 1.02013 3.33844 1.61828 3.33991 2.35466Z" stroke="#272770" stroke-linecap="round"/>
<path d="M6.68269 7.01469C6.68416 7.75107 7.28231 8.34683 8.01868 8.34535C8.75506 8.34388 9.35082 7.74573 9.34935 7.00936C9.34787 6.27298 8.74973 5.67722 8.01335 5.67869C7.27697 5.68017 6.68121 6.27831 6.68269 7.01469Z" stroke="#272770" stroke-linecap="round"/>
<path d="M2.69147 11.6894C2.69295 12.4258 3.29109 13.0215 4.02747 13.02C4.76385 13.0186 5.35961 12.4204 5.35814 11.684C5.35666 10.9477 4.75852 10.3519 4.02214 10.3534C3.28576 10.3548 2.69 10.953 2.69147 11.6894Z" stroke="#272770" stroke-linecap="round"/>
</svg>
