<svg width="21" height="20" viewBox="0 0 21 20" fill="none" xmlns="http://www.w3.org/2000/svg">
<path d="M16.101 19.1668H17.5757C18.3219 19.1668 18.9349 18.6252 19.0238 17.9418L20.4896 4.2085H16.0477V0.833496H14.2975V4.2085H9.88226L10.1488 6.1585C11.6679 6.55016 13.0893 7.2585 13.9422 8.04183C15.2215 9.22516 16.101 10.4502 16.101 12.4502V19.1668ZM0.945068 18.3335V17.5002H14.2975V18.3335C14.2975 18.7835 13.8978 19.1668 13.3825 19.1668H1.83346C1.34484 19.1668 0.945068 18.7835 0.945068 18.3335ZM14.2975 12.5002C14.2975 5.8335 0.945068 5.8335 0.945068 12.5002H14.2975ZM0.945068 14.1668H14.2709V15.8335H0.945068V14.1668Z" fill="#FF007A"/>
</svg>
