<svg width="16" height="12" viewBox="0 0 16 12" fill="none" xmlns="http://www.w3.org/2000/svg">
<path d="M14.9706 10.1219H5.37252L5.57752 9.73449C5.66542 9.56836 5.69124 9.3675 5.64913 9.17846L5.44905 8.28121L14.3568 7.742C14.6946 7.72195 14.9706 7.38289 14.9706 6.98905V2.24503C14.9706 1.85119 14.694 1.52895 14.3559 1.52895H3.94276L3.82258 0.990819C3.78835 0.837337 3.71135 0.701435 3.60366 0.604432C3.49597 0.507429 3.36369 0.454811 3.22756 0.454834H1.14008C0.977054 0.454834 0.820706 0.530278 0.705429 0.664568C0.590152 0.798859 0.525391 0.980996 0.525391 1.17091C0.525391 1.36083 0.590152 1.54296 0.705429 1.67726C0.820706 1.81155 0.977054 1.88699 1.14008 1.88699H2.75241L4.39363 9.2429L3.74821 10.462C3.69086 10.5705 3.6594 10.6949 3.65708 10.8223C3.65475 10.9497 3.68165 11.0755 3.73499 11.1867C3.78825 11.298 3.86603 11.3907 3.96031 11.4553C4.05458 11.5198 4.16194 11.5539 4.27131 11.554H14.9706C15.1336 11.554 15.29 11.4786 15.4052 11.3443C15.5205 11.21 15.5853 11.0279 15.5853 10.838C15.5853 10.6481 15.5205 10.4659 15.4052 10.3316C15.29 10.1973 15.1336 10.1219 14.9706 10.1219Z" fill="#2595BE"/>
</svg>
