<svg width="41" height="35" viewBox="0 0 41 35" fill="none" xmlns="http://www.w3.org/2000/svg">
<rect width="37.9644" height="25.75" transform="translate(0 9)" fill="#757575"/>
<path d="M34.8007 10.6094H3.1637C1.41707 10.6094 0 11.6907 0 13.0234V13.8281H37.9644V13.0234C37.9644 11.6907 36.5473 10.6094 34.8007 10.6094ZM0 30.7266C0 32.0593 1.41707 33.1406 3.1637 33.1406H34.8007C36.5473 33.1406 37.9644 32.0593 37.9644 30.7266V15.4375H0V30.7266ZM23.2005 19.0586C23.2005 18.8373 23.4377 18.6562 23.7277 18.6562H33.2188C33.5089 18.6562 33.7461 18.8373 33.7461 19.0586V19.8633C33.7461 20.0846 33.5089 20.2656 33.2188 20.2656H23.7277C23.4377 20.2656 23.2005 20.0846 23.2005 19.8633V19.0586ZM23.2005 22.2773C23.2005 22.0561 23.4377 21.875 23.7277 21.875H33.2188C33.5089 21.875 33.7461 22.0561 33.7461 22.2773V23.082C33.7461 23.3033 33.5089 23.4844 33.2188 23.4844H23.7277C23.4377 23.4844 23.2005 23.3033 23.2005 23.082V22.2773ZM23.2005 25.4961C23.2005 25.2748 23.4377 25.0937 23.7277 25.0937H33.2188C33.5089 25.0937 33.7461 25.2748 33.7461 25.4961V26.3008C33.7461 26.5221 33.5089 26.7031 33.2188 26.7031H23.7277C23.4377 26.7031 23.2005 26.5221 23.2005 26.3008V25.4961ZM11.6002 18.6562C13.9269 18.6562 15.8185 20.0997 15.8185 21.875C15.8185 23.6503 13.9269 25.0937 11.6002 25.0937C9.2736 25.0937 7.38197 23.6503 7.38197 21.875C7.38197 20.0997 9.2736 18.6562 11.6002 18.6562ZM4.42259 28.9261C4.97624 27.6335 6.56468 26.7031 8.43653 26.7031H8.977C9.7877 26.9596 10.6709 27.1055 11.6002 27.1055C12.5296 27.1055 13.4194 26.9596 14.2235 26.7031H14.7639C16.6358 26.7031 18.2242 27.6335 18.7779 28.9261C18.9888 29.424 18.4351 29.9219 17.7497 29.9219H5.45079C4.76532 29.9219 4.21168 29.4189 4.42259 28.9261Z" fill="white"/>
<rect x="19.2354" y="0.76001" width="21.3725" height="20.6" rx="10.3" fill="#00AF91"/>
<path d="M38.8271 11.06C38.8271 6.31944 34.8402 2.47668 29.9218 2.47668C25.0035 2.47668 21.0166 6.31944 21.0166 11.06C21.0166 15.8006 25.0035 19.6434 29.9218 19.6434C34.8402 19.6434 38.8271 15.8006 38.8271 11.06Z" stroke="white" stroke-linecap="round" stroke-linejoin="round"/>
<path d="M26.3599 11.7038C26.3599 11.7038 27.7847 12.4866 28.4971 13.635C28.4971 13.635 30.6344 9.12879 33.484 7.62671" stroke="white" stroke-linecap="round" stroke-linejoin="round"/>
</svg>
