<svg width="4" height="8" viewBox="0 0 4 8" fill="none" xmlns="http://www.w3.org/2000/svg">
<path d="M2.74994 0C2.55103 0 2.36026 0.0790175 2.21961 0.21967C2.07896 0.360322 1.99994 0.551088 1.99994 0.75C1.99994 0.948912 2.07896 1.13968 2.21961 1.28033C2.36026 1.42098 2.55103 1.5 2.74994 1.5C2.94885 1.5 3.13962 1.42098 3.28027 1.28033C3.42092 1.13968 3.49994 0.948912 3.49994 0.75C3.49994 0.551088 3.42092 0.360322 3.28027 0.21967C3.13962 0.0790175 2.94885 0 2.74994 0ZM2.56994 2.385C1.97494 2.435 0.349941 3.73 0.349941 3.73C0.249941 3.805 0.279941 3.8 0.359941 3.94C0.439941 4.075 0.429941 4.085 0.524941 4.02C0.624941 3.955 0.789941 3.85 1.06494 3.68C2.12494 3 1.23494 4.57 0.779941 7.215C0.599941 8.525 1.77994 7.85 2.08494 7.65C2.38494 7.455 3.18994 6.9 3.26994 6.845C3.37994 6.77 3.29994 6.71 3.21494 6.585C3.15494 6.5 3.09494 6.56 3.09494 6.56C2.76994 6.775 2.17494 7.225 2.09494 6.94C1.99994 6.655 2.60994 4.7 2.94494 3.355C2.99994 3.035 3.14994 2.335 2.56994 2.385Z" fill="#3A5B8D"/>
</svg>
