<svg width="92" height="92" viewBox="0 0 92 92" fill="none" xmlns="http://www.w3.org/2000/svg">
<path d="M41.8334 0.166992H8.50008C3.91675 0.166992 0.166748 3.91699 0.166748 8.50033V58.5003L12.6667 46.0003H33.5001V41.8337C33.5001 32.667 40.9584 25.167 50.1667 25.167V8.50033C50.1667 3.91699 46.4167 0.166992 41.8334 0.166992ZM41.8334 12.667H35.5834C34.1667 17.6253 31.5834 22.2503 28.0001 26.2503L27.9167 26.3337L33.1667 31.542L31.6251 35.7503L25.1667 29.3337L14.7501 39.7503L11.8751 36.7087L22.4167 26.3337C19.8706 23.5139 17.789 20.3072 16.2501 16.8337H20.3751C21.6667 19.3337 23.2501 21.7087 25.1667 23.8337C28.0832 20.5944 30.309 16.7949 31.7084 12.667H8.50008V8.50033H23.0834V4.33366H27.2501V8.50033H41.8334V12.667ZM83.5001 33.5003H50.1667C45.5834 33.5003 41.8334 37.2503 41.8334 41.8337V71.0003C41.8334 75.5837 45.5834 79.3337 50.1667 79.3337H79.3334L91.8334 91.8337V41.8337C91.8334 37.2503 88.0834 33.5003 83.5001 33.5003ZM77.7917 75.167L74.2501 65.792H59.4167L55.9167 75.167H49.6667L63.7084 37.667H69.9584L84.0417 75.167H77.7917ZM66.8334 46.0003L71.9167 59.542H61.7917L66.8334 46.0003Z" fill="#3A5B8D"/>
</svg>
