<svg width="12" height="12" viewBox="0 0 12 12" fill="none" xmlns="http://www.w3.org/2000/svg">
<g clip-path="url(#clip0_1146_7919)">
<path d="M1 6C1 8.7615 3.2385 11 6 11C8.7615 11 11 8.7615 11 6C11 3.2385 8.7615 1 6 1C3.2385 1 1 3.2385 1 6Z" stroke="#3A5B8D" stroke-width="0.75" stroke-linecap="round" stroke-linejoin="round"/>
<path d="M6.49994 1.02539C6.49994 1.02539 7.99994 3.00039 7.99994 6.00039C7.99994 9.00039 6.49994 10.9754 6.49994 10.9754M5.49994 10.9754C5.49994 10.9754 3.99994 9.00039 3.99994 6.00039C3.99994 3.00039 5.49994 1.02539 5.49994 1.02539M1.31494 7.75039H10.6849M1.31494 4.25039H10.6849" stroke="#3A5B8D" stroke-width="0.75" stroke-linecap="round" stroke-linejoin="round"/>
</g>
<defs>
<clipPath id="clip0_1146_7919">
<rect width="12" height="12" fill="white"/>
</clipPath>
</defs>
</svg>
