<svg width="24" height="24" viewBox="0 0 24 24" fill="none" xmlns="http://www.w3.org/2000/svg">
<path d="M9.31423 15.8771L8.59423 16.5771C9.04623 17.4301 8.90423 18.5021 8.16523 19.2181L7.01723 20.3321C6.56882 20.7606 5.97246 20.9997 5.35223 20.9997C4.732 20.9997 4.13565 20.7606 3.68723 20.3321C3.47033 20.1248 3.29769 19.8757 3.17974 19.5999C3.06179 19.324 3.00098 19.0271 3.00098 18.7271C3.00098 18.4271 3.06179 18.1302 3.17974 17.8543C3.29769 17.5785 3.47033 17.3294 3.68723 17.1221L4.40723 16.4241C4.18145 15.9971 4.10108 15.5082 4.17832 15.0314C4.25556 14.5546 4.48619 14.116 4.83523 13.7821L5.98323 12.6681C6.43164 12.2396 7.028 12.0005 7.64823 12.0005C8.26846 12.0005 8.86482 12.2396 9.31323 12.6681C9.53013 12.8754 9.70278 13.1245 9.82072 13.4003C9.93867 13.6762 9.99949 13.9731 9.99949 14.2731C9.99949 14.5731 9.93867 14.87 9.82072 15.1459C9.70278 15.4217 9.53013 15.6708 9.31323 15.8781M8.66223 15.2681C8.79629 15.1396 8.90297 14.9853 8.97585 14.8145C9.04872 14.6436 9.08629 14.4598 9.08629 14.2741C9.08629 14.0884 9.04872 13.9046 8.97585 13.7338C8.90297 13.563 8.79629 13.4086 8.66223 13.2801C8.38941 13.0182 8.0259 12.872 7.64773 12.872C7.26957 12.872 6.90605 13.0182 6.63323 13.2801L5.48423 14.3941C5.3025 14.5689 5.17211 14.7901 5.10724 15.0337C5.04236 15.2774 5.04547 15.5341 5.11623 15.7761C5.54739 15.4763 6.06436 15.325 6.58912 15.3448C7.11388 15.3646 7.61794 15.5546 8.02523 15.8861L8.66223 15.2681ZM5.62623 16.5001C5.87923 16.6872 6.18558 16.7882 6.50023 16.7882C6.81488 16.7882 7.12123 16.6872 7.37423 16.5001C7.12123 16.313 6.81488 16.2121 6.50023 16.2121C6.18558 16.2121 5.87923 16.313 5.62623 16.5001ZM4.33723 17.7331C4.20317 17.8616 4.09649 18.016 4.02361 18.1868C3.95074 18.3576 3.91317 18.5414 3.91317 18.7271C3.91317 18.9128 3.95074 19.0966 4.02361 19.2674C4.09649 19.4383 4.20317 19.5926 4.33723 19.7211C4.61005 19.983 4.97357 20.1292 5.35173 20.1292C5.7299 20.1292 6.09341 19.983 6.36623 19.7211L7.51523 18.6071C7.90023 18.2341 8.02323 17.7011 7.88323 17.2251C7.45207 17.5249 6.9351 17.6763 6.41034 17.6564C5.88559 17.6366 5.38152 17.4466 4.97423 17.1151L4.33723 17.7331ZM14.0002 13.0001C13.735 13.0001 13.4807 13.1055 13.2931 13.293C13.1056 13.4805 13.0002 13.7349 13.0002 14.0001C13.0002 14.2653 13.1056 14.5197 13.2931 14.7072C13.4807 14.8948 13.735 15.0001 14.0002 15.0001H17.0002C17.2654 15.0001 17.5198 14.8948 17.7073 14.7072C17.8949 14.5197 18.0002 14.2653 18.0002 14.0001C18.0002 13.7349 17.8949 13.4805 17.7073 13.293C17.5198 13.1055 17.2654 13.0001 17.0002 13.0001H14.0002Z" fill="white"/>
<path d="M16.83 4.25H7.17C6.635 4.25 6.19 4.25 5.825 4.28C5.445 4.31 5.089 4.378 4.752 4.55C4.23445 4.81367 3.81367 5.23445 3.55 5.752C3.46 5.929 3.424 6.148 3.404 6.278C3.37696 6.47054 3.35695 6.664 3.344 6.858C3.312 7.288 3.291 7.822 3.277 8.368C3.25 9.46 3.25 10.638 3.25 11.198V11.2C3.25 11.3989 3.32902 11.5897 3.46967 11.7303C3.61032 11.871 3.80109 11.95 4 11.95C4.19891 11.95 4.38968 11.871 4.53033 11.7303C4.67098 11.5897 4.75 11.3989 4.75 11.2C4.75 10.92 4.75 10.492 4.753 10H19.25V14.8C19.25 15.372 19.25 15.757 19.225 16.052C19.202 16.34 19.16 16.477 19.114 16.567C18.9941 16.8026 18.8026 16.9941 18.567 17.114C18.477 17.16 18.34 17.202 18.052 17.225C17.757 17.249 17.372 17.25 16.8 17.25H12C11.8011 17.25 11.6103 17.329 11.4697 17.4697C11.329 17.6103 11.25 17.8011 11.25 18C11.25 18.1989 11.329 18.3897 11.4697 18.5303C11.6103 18.671 11.8011 18.75 12 18.75H16.83C17.365 18.75 17.81 18.75 18.175 18.72C18.555 18.69 18.911 18.622 19.248 18.45C19.7654 18.1866 20.1862 17.7662 20.45 17.249C20.622 16.911 20.69 16.555 20.72 16.175C20.75 15.81 20.75 15.365 20.75 14.831V8.17C20.75 7.635 20.75 7.19 20.72 6.825C20.69 6.445 20.622 6.089 20.45 5.752C20.1869 5.23475 19.7668 4.81401 19.25 4.55C18.912 4.378 18.556 4.31 18.176 4.28C17.811 4.25 17.365 4.25 16.83 4.25ZM19.25 8H4.789C4.801 7.616 4.819 7.261 4.839 6.969C4.855 6.77033 4.87133 6.61367 4.888 6.499C4.89667 6.445 4.90267 6.41033 4.906 6.395C5.02688 6.1765 5.21044 5.99922 5.433 5.886C5.523 5.84 5.66 5.798 5.947 5.775C6.243 5.751 6.627 5.75 7.2 5.75H16.8C17.372 5.75 17.757 5.75 18.052 5.775C18.34 5.798 18.477 5.84 18.567 5.886C18.803 6.006 18.994 6.197 19.114 6.433C19.16 6.523 19.202 6.66 19.225 6.947C19.246 7.207 19.249 7.536 19.25 8Z" fill="white"/>
</svg>
