<svg width="10" height="10" viewBox="0 0 10 10" fill="none" xmlns="http://www.w3.org/2000/svg">
<path d="M2.98502 3.943H7.01502M2.98502 6.057H5.85902M5.00002 9.625C6.00472 9.62479 6.98202 9.29742 7.78412 8.69241C8.58623 8.0874 9.16951 7.23766 9.44576 6.27169C9.72201 5.30573 9.6762 4.27607 9.31526 3.33845C8.95432 2.40083 8.29788 1.60624 7.44522 1.07486C6.59255 0.543469 5.59004 0.304184 4.5893 0.393189C3.58856 0.482195 2.64401 0.89465 1.89851 1.56818C1.15302 2.24171 0.64711 3.13967 0.457308 4.12627C0.267507 5.11288 0.404133 6.13445 0.846524 7.0365C0.900524 7.1465 0.918524 7.2705 0.891024 7.3895L0.483024 9.15751C0.471522 9.20712 0.472841 9.25885 0.486858 9.30782C0.500874 9.35678 0.527127 9.40137 0.563142 9.43739C0.599156 9.4734 0.643747 9.49965 0.692713 9.51367C0.741679 9.52769 0.793407 9.52901 0.843024 9.5175L2.61052 9.109C2.72986 9.08287 2.85456 9.09877 2.96352 9.15401C3.59722 9.4652 4.29404 9.62636 5.00002 9.625Z" stroke="#3A5B8D" stroke-width="0.75" stroke-linecap="round" stroke-linejoin="round"/>
</svg>
