<svg width="12" height="18" viewBox="0 0 12 18" fill="none" xmlns="http://www.w3.org/2000/svg">
<path d="M5.99935 4.41663C6.55188 4.41663 7.08179 4.63612 7.47249 5.02682C7.86319 5.41752 8.08268 5.94742 8.08268 6.49996C8.08268 6.77355 8.0288 7.04445 7.9241 7.29722C7.8194 7.54998 7.66594 7.77964 7.47249 7.9731C7.27903 8.16655 7.04937 8.32001 6.79661 8.42471C6.54384 8.52941 6.27294 8.58329 5.99935 8.58329C5.44681 8.58329 4.91691 8.3638 4.52621 7.9731C4.13551 7.5824 3.91602 7.05249 3.91602 6.49996C3.91602 5.94742 4.13551 5.41752 4.52621 5.02682C4.91691 4.63612 5.44681 4.41663 5.99935 4.41663ZM5.99935 0.666626C7.54645 0.666626 9.03018 1.28121 10.1241 2.37517C11.2181 3.46913 11.8327 4.95286 11.8327 6.49996C11.8327 10.875 5.99935 17.3333 5.99935 17.3333C5.99935 17.3333 0.166016 10.875 0.166016 6.49996C0.166016 4.95286 0.780597 3.46913 1.87456 2.37517C2.96852 1.28121 4.45225 0.666626 5.99935 0.666626ZM5.99935 2.33329C4.89428 2.33329 3.83447 2.77228 3.05307 3.55368C2.27167 4.33508 1.83268 5.39489 1.83268 6.49996C1.83268 7.33329 1.83268 8.99996 5.99935 14.5916C10.166 8.99996 10.166 7.33329 10.166 6.49996C10.166 5.39489 9.72703 4.33508 8.94563 3.55368C8.16423 2.77228 7.10442 2.33329 5.99935 2.33329Z" fill="#3A5B8D"/>
</svg>
