<svg width="10" height="10" viewBox="0 0 10 10" fill="none" xmlns="http://www.w3.org/2000/svg">
<path d="M7.5 7L9.5 5M9.5 5L7.5 3M9.5 5H2.5M5.5 7V7.5C5.5 7.89782 5.34196 8.27936 5.06066 8.56066C4.77936 8.84196 4.39782 9 4 9H2C1.60218 9 1.22064 8.84196 0.93934 8.56066C0.658035 8.27936 0.5 7.89782 0.5 7.5V2.5C0.5 2.10218 0.658035 1.72064 0.93934 1.43934C1.22064 1.15804 1.60218 1 2 1H4C4.39782 1 4.77936 1.15804 5.06066 1.43934C5.34196 1.72064 5.5 2.10218 5.5 2.5V3" stroke="#3A5B8D" stroke-linecap="round" stroke-linejoin="round"/>
</svg>
