<svg width="17" height="13" viewBox="0 0 17 13" fill="none" xmlns="http://www.w3.org/2000/svg">
<path fill-rule="evenodd" clip-rule="evenodd" d="M8.04315 0.896053C8.17907 0.77959 8.35216 0.715576 8.53115 0.715576C8.71014 0.715576 8.88323 0.77959 9.01915 0.896053L16.0192 6.89605C16.094 6.96014 16.1555 7.03834 16.2001 7.12619C16.2448 7.21404 16.2717 7.30983 16.2793 7.40807C16.2869 7.50632 16.2751 7.6051 16.2445 7.69878C16.214 7.79246 16.1652 7.8792 16.1011 7.95405C16.0371 8.02891 15.9589 8.0904 15.871 8.13504C15.7832 8.17967 15.6874 8.20656 15.5891 8.21417C15.4909 8.22179 15.3921 8.20998 15.2984 8.17941C15.2047 8.14885 15.118 8.10014 15.0431 8.03605L8.53115 2.45305L2.01915 8.03405C1.945 8.10196 1.85795 8.15426 1.76318 8.18785C1.66841 8.22143 1.56786 8.23562 1.4675 8.22957C1.36714 8.22352 1.26901 8.19735 1.17897 8.15262C1.08892 8.10789 1.00879 8.04551 0.943333 7.96919C0.877878 7.89287 0.828436 7.80417 0.797947 7.70836C0.767459 7.61255 0.756546 7.51159 0.765858 7.41147C0.77517 7.31136 0.804516 7.21414 0.852152 7.1256C0.899788 7.03705 0.964741 6.95899 1.04315 6.89605L8.04315 0.896053ZM1.04315 10.8961L8.04315 4.89605C8.17907 4.77959 8.35216 4.71558 8.53115 4.71558C8.71014 4.71558 8.88323 4.77959 9.01915 4.89605L16.0192 10.8961C16.094 10.9601 16.1555 11.0383 16.2001 11.1262C16.2448 11.214 16.2717 11.3098 16.2793 11.4081C16.2869 11.5063 16.2751 11.6051 16.2445 11.6988C16.214 11.7925 16.1652 11.8792 16.1011 11.9541C16.0371 12.0289 15.9589 12.0904 15.871 12.135C15.7832 12.1797 15.6874 12.2066 15.5891 12.2142C15.4909 12.2218 15.3921 12.21 15.2984 12.1794C15.2047 12.1489 15.118 12.1001 15.0431 12.0361L8.53115 6.45305L2.01915 12.0341C1.945 12.102 1.85795 12.1543 1.76318 12.1878C1.66841 12.2214 1.56786 12.2356 1.4675 12.2296C1.36714 12.2235 1.26901 12.1974 1.17897 12.1526C1.08892 12.1079 1.00879 12.0455 0.943333 11.9692C0.877878 11.8929 0.828436 11.8042 0.797947 11.7084C0.767459 11.6125 0.756546 11.5116 0.765858 11.4115C0.77517 11.3114 0.804516 11.2141 0.852152 11.1256C0.899788 11.0371 0.964741 10.959 1.04315 10.8961Z" fill="#09094F"/>
</svg>
