<svg width="3" height="16" viewBox="0 0 3 16" fill="none" xmlns="http://www.w3.org/2000/svg">
<path d="M0.549805 14.3C0.549805 13.9022 0.674916 13.5207 0.897615 13.2394C1.12031 12.9581 1.42236 12.8 1.7373 12.8C2.05225 12.8 2.35429 12.9581 2.57699 13.2394C2.79969 13.5207 2.9248 13.9022 2.9248 14.3C2.9248 14.6979 2.79969 15.0794 2.57699 15.3607C2.35429 15.642 2.05225 15.8 1.7373 15.8C1.42236 15.8 1.12031 15.642 0.897615 15.3607C0.674916 15.0794 0.549805 14.6979 0.549805 14.3ZM0.549805 8.30005C0.549805 7.90222 0.674916 7.52069 0.897615 7.23939C1.12031 6.95808 1.42236 6.80005 1.7373 6.80005C2.05225 6.80005 2.35429 6.95808 2.57699 7.23939C2.79969 7.52069 2.9248 7.90222 2.9248 8.30005C2.9248 8.69787 2.79969 9.0794 2.57699 9.36071C2.35429 9.64201 2.05225 9.80005 1.7373 9.80005C1.42236 9.80005 1.12031 9.64201 0.897615 9.36071C0.674916 9.0794 0.549805 8.69787 0.549805 8.30005ZM0.549805 2.30005C0.549805 1.90222 0.674916 1.52069 0.897615 1.23939C1.12031 0.958084 1.42236 0.800049 1.7373 0.800049C2.05225 0.800049 2.35429 0.958084 2.57699 1.23939C2.79969 1.52069 2.9248 1.90222 2.9248 2.30005C2.9248 2.69787 2.79969 3.0794 2.57699 3.36071C2.35429 3.64201 2.05225 3.80005 1.7373 3.80005C1.42236 3.80005 1.12031 3.64201 0.897615 3.36071C0.674916 3.0794 0.549805 2.69787 0.549805 2.30005Z" fill="#4B5563"/>
</svg>
