<svg width="33" height="25" viewBox="0 0 33 25" fill="none" xmlns="http://www.w3.org/2000/svg">
<path d="M2.75 0H30.25C31.6938 0 33 1.30625 33 2.75V22C33 23.4438 31.6938 24.75 30.25 24.75H2.75C1.30625 24.75 0 23.4438 0 22V2.75C0 1.30625 1.30625 0 2.75 0ZM19.25 4.125V5.5H30.25V4.125H19.25ZM19.25 6.875V8.25H30.25V6.875H19.25ZM19.25 9.625V11H28.875V9.625H19.25ZM11 15.0012C8.25 15.0012 2.75 16.5 2.75 19.25V20.625H19.25V19.25C19.25 16.5 13.75 15.0012 11 15.0012ZM11 4.125C9.90598 4.125 8.85677 4.5596 8.08318 5.33318C7.3096 6.10677 6.875 7.15598 6.875 8.25C6.875 9.34402 7.3096 10.3932 8.08318 11.1668C8.85677 11.9404 9.90598 12.375 11 12.375C12.094 12.375 13.1432 11.9404 13.9168 11.1668C14.6904 10.3932 15.125 9.34402 15.125 8.25C15.125 7.15598 14.6904 6.10677 13.9168 5.33318C13.1432 4.5596 12.094 4.125 11 4.125Z" fill="#09094F"/>
</svg>
