<svg width="24" height="24" viewBox="0 0 24 24" fill="none" xmlns="http://www.w3.org/2000/svg">
<path d="M3 10.7751C3 9.81615 3.45843 8.91499 4.23351 8.35033L9.81115 4.28692C10.8639 3.51995 12.2913 3.51995 13.3441 4.28692L18.9218 8.35033C19.6968 8.91499 20.1553 9.81615 20.1553 10.7751V19C20.1553 20.1046 19.2598 21 18.1553 21H5C3.89543 21 3 20.1046 3 19V10.7751Z" stroke="#979797" stroke-width="1.5" stroke-linejoin="round"/>
<path d="M8.71387 15.9779C8.71387 14.3964 9.99596 13.1143 11.5775 13.1143C13.159 13.1143 14.4411 14.3964 14.4411 15.9779V21H8.71387V15.9779Z" fill="#E0E1EF" stroke="#979797" stroke-width="1.5" stroke-linejoin="round"/>
<path d="M10.3506 9.03857H12.8051" stroke="#979797" stroke-width="1.5" stroke-linecap="round" stroke-linejoin="round"/>
</svg>
