<svg width="22" height="21" viewBox="0 0 22 21" fill="none" xmlns="http://www.w3.org/2000/svg">
<path d="M19.7289 11.1876C19.5619 10.9975 19.4698 10.7531 19.4698 10.5001C19.4698 10.2471 19.5619 10.0027 19.7289 9.81261L21.0622 8.31261C21.2091 8.14873 21.3003 7.94251 21.3228 7.72356C21.3453 7.5046 21.2978 7.28416 21.1872 7.09386L19.1039 3.4897C18.9944 3.29962 18.8277 3.14894 18.6276 3.05916C18.4274 2.96938 18.204 2.94507 17.9893 2.9897L16.0309 3.38553C15.7818 3.43702 15.5223 3.39552 15.3017 3.26886C15.081 3.14221 14.9143 2.93916 14.833 2.69803L14.1976 0.791781C14.1277 0.584884 13.9946 0.405182 13.817 0.278075C13.6394 0.150968 13.4264 0.0828842 13.208 0.0834479H9.04135C8.8142 0.0715916 8.58941 0.134413 8.40132 0.262317C8.21322 0.390221 8.07217 0.576176 7.99969 0.791781L7.41635 2.69803C7.33511 2.93916 7.16841 3.14221 6.94772 3.26886C6.72704 3.39552 6.46762 3.43702 6.21844 3.38553L4.20802 2.9897C4.00443 2.96093 3.79688 2.99305 3.61151 3.08203C3.42614 3.17101 3.27125 3.31285 3.16636 3.4897L1.08302 7.09386C0.969647 7.28204 0.91867 7.50125 0.937379 7.72014C0.956088 7.93903 1.04352 8.14641 1.18719 8.31261L2.5101 9.81261C2.6771 10.0027 2.7692 10.2471 2.7692 10.5001C2.7692 10.7531 2.6771 10.9975 2.5101 11.1876L1.18719 12.6876C1.04352 12.8538 0.956088 13.0612 0.937379 13.2801C0.91867 13.499 0.969647 13.7182 1.08302 13.9064L3.16636 17.5105C3.27583 17.7006 3.44252 17.8513 3.64266 17.9411C3.8428 18.0308 4.06617 18.0552 4.28094 18.0105L6.23927 17.6147C6.48846 17.5632 6.74787 17.6047 6.96856 17.7314C7.18924 17.858 7.35594 18.0611 7.43719 18.3022L8.0726 20.2084C8.14508 20.4241 8.28614 20.61 8.47424 20.7379C8.66233 20.8658 8.88712 20.9286 9.11427 20.9168H13.2809C13.4993 20.9173 13.7124 20.8493 13.8899 20.7222C14.0675 20.595 14.2006 20.4153 14.2705 20.2084L14.9059 18.3022C14.9872 18.0611 15.1539 17.858 15.3746 17.7314C15.5953 17.6047 15.8547 17.5632 16.1039 17.6147L18.0622 18.0105C18.277 18.0552 18.5003 18.0308 18.7005 17.9411C18.9006 17.8513 19.0673 17.7006 19.1768 17.5105L21.2601 13.9064C21.3707 13.7161 21.4182 13.4956 21.3957 13.2767C21.3733 13.0577 21.282 12.8515 21.1351 12.6876L19.7289 11.1876ZM18.1768 12.5834L19.0101 13.5209L17.6768 15.8334L16.4476 15.5834C15.6974 15.4301 14.9169 15.5575 14.2545 15.9416C13.592 16.3256 13.0936 16.9395 12.8539 17.6668L12.458 18.8334H9.79135L9.41635 17.6459C9.17662 16.9187 8.67821 16.3048 8.01573 15.9207C7.35326 15.5367 6.57283 15.4093 5.8226 15.5626L4.59344 15.8126L3.23927 13.5105L4.0726 12.573C4.58506 12.0001 4.86837 11.2584 4.86837 10.4897C4.86837 9.72102 4.58506 8.9793 4.0726 8.40636L3.23927 7.46886L4.5726 5.1772L5.80177 5.4272C6.552 5.58055 7.33243 5.45311 7.9949 5.06907C8.65738 4.68503 9.15579 4.07111 9.39552 3.34386L9.79135 2.16678H12.458L12.8539 3.35428C13.0936 4.08153 13.592 4.69544 14.2545 5.07949C14.9169 5.46353 15.6974 5.59097 16.4476 5.43761L17.6768 5.18761L19.0101 7.50011L18.1768 8.43761C17.6701 9.00924 17.3903 9.74666 17.3903 10.5105C17.3903 11.2744 17.6701 12.0118 18.1768 12.5834ZM11.1247 6.33345C10.3006 6.33345 9.49502 6.57782 8.80981 7.03566C8.12461 7.4935 7.59056 8.14424 7.27519 8.9056C6.95982 9.66696 6.87731 10.5047 7.03808 11.313C7.19885 12.1212 7.59569 12.8637 8.17841 13.4464C8.76113 14.0291 9.50356 14.4259 10.3118 14.5867C11.1201 14.7475 11.9578 14.665 12.7192 14.3496C13.4806 14.0342 14.1313 13.5002 14.5891 12.815C15.047 12.1298 15.2914 11.3242 15.2914 10.5001C15.2914 9.39505 14.8524 8.33524 14.071 7.55384C13.2896 6.77243 12.2298 6.33345 11.1247 6.33345ZM11.1247 12.5834C10.7126 12.5834 10.3099 12.4613 9.96725 12.2323C9.62465 12.0034 9.35762 11.6781 9.19994 11.2974C9.04226 10.9167 9.001 10.4978 9.08139 10.0937C9.16177 9.68955 9.36019 9.31833 9.65155 9.02698C9.94291 8.73562 10.3141 8.5372 10.7183 8.45681C11.1224 8.37643 11.5413 8.41768 11.9219 8.57536C12.3026 8.73305 12.628 9.00007 12.8569 9.34268C13.0858 9.68528 13.208 10.0881 13.208 10.5001C13.208 11.0526 12.9885 11.5826 12.5978 11.9733C12.2071 12.364 11.6772 12.5834 11.1247 12.5834Z" fill="#979797"/>
</svg>
