<svg width="24" height="20" viewBox="0 0 24 20" fill="none" xmlns="http://www.w3.org/2000/svg">
<path d="M2.56405 0H21.4361C21.6245 0 21.7827 0.0640001 21.9107 0.192C22.0387 0.32 22.1027 0.478667 22.1027 0.668C22.1027 0.857333 22.0387 1.01556 21.9107 1.14267C21.7827 1.26978 21.6245 1.33333 21.4361 1.33333H2.56405C2.37472 1.33333 2.2165 1.26933 2.08938 1.14133C1.96227 1.01333 1.89827 0.854667 1.89738 0.665333C1.8965 0.476 1.9605 0.317778 2.08938 0.190667C2.21827 0.0635557 2.3765 0 2.56405 0ZM3.07738 20C2.7725 20 2.5165 19.8969 2.30938 19.6907C2.10227 19.4844 1.99916 19.2284 2.00005 18.9227V12H1.40805C1.07116 12 0.790717 11.8644 0.566717 11.5933C0.342717 11.3222 0.275162 11.0182 0.364051 10.6813L1.69738 4.836C1.75249 4.59244 1.8805 4.39244 2.08138 4.236C2.28227 4.07867 2.51072 4 2.76672 4H21.2334C21.4894 4 21.7178 4.07822 21.9187 4.23467C22.1196 4.392 22.2476 4.59244 22.3027 4.836L23.6361 10.6813C23.7249 11.0191 23.6574 11.3231 23.4334 11.5933C23.2094 11.8636 22.9294 11.9991 22.5934 12H22.0001V19.3333C22.0001 19.5227 21.9361 19.6809 21.8081 19.808C21.6801 19.9351 21.5214 19.9991 21.3321 20C21.1427 20.0009 20.9845 19.9369 20.8574 19.808C20.7303 19.6791 20.6667 19.5209 20.6667 19.3333V12H14.0001V18.9227C14.0001 19.2284 13.8969 19.4844 13.6907 19.6907C13.4845 19.8969 13.2285 20 12.9227 20H3.07738ZM3.33338 18.6667H12.6667V12H3.33338V18.6667ZM1.70672 10.6667H22.2934L21.0561 5.33333H2.94405L1.70672 10.6667Z" fill="#979797"/>
</svg>
