<svg width="28" height="24" viewBox="0 0 28 24" fill="none" xmlns="http://www.w3.org/2000/svg">
<path d="M24.0004 23.4286H4.00042C3.05169 23.4286 2.1389 23.0656 1.4493 22.4141C0.759695 21.7625 0.34556 20.8718 0.291847 19.9246L0.286133 19.7143V3.14284C0.286053 2.49127 0.533328 1.86396 0.977984 1.38769C1.42264 0.911428 2.03152 0.621722 2.68156 0.577126L2.85756 0.571411H20.5718C21.2234 0.571331 21.8507 0.818606 22.327 1.26326C22.8033 1.70792 23.093 2.31679 23.1376 2.96684L23.1433 3.14284V3.99998H25.1433C25.7948 3.9999 26.4222 4.24718 26.8984 4.69183C27.3747 5.13649 27.6644 5.74537 27.709 6.39541L27.7147 6.57141V19.7143C27.7148 20.663 27.3518 21.5758 26.7002 22.2654C26.0487 22.955 25.1579 23.3691 24.2107 23.4228L24.0004 23.4286ZM4.00042 21.7143H24.0004C24.5025 21.7142 24.9863 21.5253 25.3555 21.1851C25.7248 20.8448 25.9525 20.3781 25.9936 19.8777L26.0004 19.7143V6.57141C26.0004 6.36428 25.9254 6.16416 25.7893 6.00806C25.6531 5.85196 25.4651 5.75044 25.2598 5.72227L25.1433 5.71427H23.1433V18C23.1433 18.2071 23.0683 18.4072 22.9321 18.5633C22.796 18.7194 22.6079 18.821 22.4027 18.8491L22.2861 18.8571C22.079 18.8571 21.8789 18.7821 21.7228 18.646C21.5667 18.5098 21.4652 18.3218 21.437 18.1166L21.429 18V3.14284C21.429 2.93571 21.354 2.73559 21.2178 2.57949C21.0817 2.42339 20.8936 2.32187 20.6884 2.2937L20.5718 2.2857H2.85756C2.65043 2.28571 2.45031 2.36072 2.29421 2.49686C2.13811 2.633 2.03659 2.82106 2.00842 3.02627L2.00042 3.14284V19.7143C2.00044 20.2162 2.18919 20.6998 2.5292 21.069C2.86921 21.4382 3.33562 21.6661 3.83585 21.7074L4.00042 21.7143ZM9.71013 10.8617C10.4987 10.8617 11.1387 11.5017 11.1387 12.2903V16.2857C11.1387 17.0743 10.4987 17.7143 9.71013 17.7143H5.7147C4.92613 17.7143 4.28613 17.0743 4.28613 16.2857V12.2903C4.28613 11.5017 4.92613 10.8617 5.7147 10.8617H9.71013ZM14.2861 16H18.2816C18.4987 16 18.7078 16.0825 18.8665 16.2308C19.0252 16.3791 19.1216 16.582 19.1364 16.7987C19.1513 17.0154 19.0833 17.2296 18.9462 17.398C18.8092 17.5665 18.6133 17.6767 18.3981 17.7063L18.2816 17.7143H14.2861C14.069 17.7142 13.8599 17.6317 13.7012 17.4834C13.5425 17.3352 13.446 17.1322 13.4312 16.9156C13.4164 16.6989 13.4844 16.4847 13.6215 16.3162C13.7585 16.1477 13.9544 16.0376 14.1696 16.008L14.2861 16ZM9.42556 12.576H6.00042V16H9.42556V12.576ZM14.2861 10.8617H18.2816C18.4987 10.8618 18.7078 10.9443 18.8665 11.0925C19.0252 11.2408 19.1216 11.4438 19.1364 11.6604C19.1513 11.8771 19.0833 12.0913 18.9462 12.2598C18.8092 12.4282 18.6133 12.5384 18.3981 12.568L18.2816 12.576H14.2861C14.0674 12.5782 13.8561 12.4967 13.6955 12.3482C13.5349 12.1998 13.4372 11.9955 13.4223 11.7773C13.4074 11.559 13.4765 11.3434 13.6154 11.1745C13.7543 11.0055 13.9526 10.8961 14.1696 10.8686L14.2861 10.8617ZM5.1387 5.71084H18.2816C18.4987 5.71091 18.7078 5.79341 18.8665 5.94167C19.0252 6.08993 19.1216 6.2929 19.1364 6.50956C19.1513 6.72622 19.0833 6.94043 18.9462 7.1089C18.8092 7.27736 18.6133 7.38752 18.3981 7.41713L18.2816 7.42513H5.1387C4.92163 7.42477 4.71278 7.34207 4.55431 7.19372C4.39584 7.04537 4.29957 6.84241 4.28491 6.62584C4.27026 6.40926 4.33833 6.19519 4.47537 6.02685C4.61242 5.8585 4.80823 5.74843 5.02328 5.71884L5.1387 5.71084Z" fill="#3A5B8D"/>
</svg>
