<svg width="10" height="12" viewBox="0 0 10 12" fill="none" xmlns="http://www.w3.org/2000/svg">
<path d="M4.99833 11.4746C4.73855 11.4746 4.51689 11.3822 4.33333 11.1975C4.14978 11.0132 4.058 10.7915 4.058 10.5325H5.94216C5.94216 10.7931 5.8498 11.0153 5.66508 11.1992C5.47997 11.3828 5.25772 11.4746 4.99833 11.4746ZM0.916748 9.94858V9.36525H1.85941V4.7435C1.85941 3.98128 2.10053 3.31103 2.58275 2.73275C3.06497 2.15447 3.6763 1.79417 4.41675 1.65183V1.33333C4.41675 1.17117 4.47333 1.0335 4.5865 0.920333C4.69966 0.806778 4.83714 0.75 4.99891 0.75C5.16069 0.75 5.29855 0.806778 5.4125 0.920333C5.52644 1.03389 5.58341 1.17156 5.58341 1.33333V1.65183C5.73508 1.681 5.87897 1.71814 6.01508 1.76325C6.15119 1.80836 6.28244 1.86669 6.40883 1.93825L5.96141 2.38217C5.81169 2.318 5.65769 2.26919 5.49941 2.23575C5.34114 2.20231 5.17469 2.18578 5.00008 2.18617C4.29114 2.18617 3.68758 2.43506 3.18941 2.93283C2.69125 3.43061 2.44236 4.03417 2.44275 4.7435V9.36525H7.558V7.27692L8.14133 6.69358V9.36525H9.08341V9.94858H0.916748ZM5.13425 6.44858V5.15942L8.24575 2.06367C8.3033 2.00611 8.36261 1.96722 8.42366 1.947C8.48511 1.92678 8.54636 1.91667 8.60741 1.91667C8.6743 1.91667 8.74003 1.92911 8.80458 1.954C8.86914 1.97928 8.92766 2.017 8.98016 2.06717L9.51975 2.61783C9.56758 2.67539 9.60414 2.73508 9.62941 2.79692C9.6543 2.85914 9.66675 2.92136 9.66675 2.98358C9.66675 3.04581 9.65489 3.10842 9.63116 3.17142C9.60744 3.23442 9.5703 3.29469 9.51975 3.35225L6.42341 6.44917L5.13425 6.44858ZM5.65108 5.93233H6.20525L8.22766 3.90642L7.9535 3.62992L7.68808 3.34467L5.65108 5.37875V5.93233ZM7.95408 3.62933L7.68808 3.34467L8.22766 3.90642L7.95408 3.62933Z" fill="#3A5B8D"/>
</svg>
