<svg width="9" height="10" viewBox="0 0 9 10" fill="none" xmlns="http://www.w3.org/2000/svg">
<path d="M4 10C3.725 10 3.48967 9.90217 3.294 9.7065C3.09833 9.51083 3.00033 9.27533 3 9H5C5 9.275 4.90217 9.5105 4.7065 9.7065C4.51083 9.9025 4.27533 10.0003 4 10ZM0 8.5V7.5H1V4C1 3.30833 1.20833 2.69383 1.625 2.1565C2.04167 1.61917 2.58333 1.267 3.25 1.1V0H4.75V0.9125C4.66667 1.07917 4.60417 1.25417 4.5625 1.4375C4.52083 1.62083 4.5 1.80833 4.5 2C4.5 2.69167 4.74383 3.28133 5.2315 3.769C5.71917 4.25667 6.30867 4.50033 7 4.5V7.5H8V8.5H0ZM7 3.5C6.58333 3.5 6.22917 3.35417 5.9375 3.0625C5.64583 2.77083 5.5 2.41667 5.5 2C5.5 1.58333 5.64583 1.22917 5.9375 0.9375C6.22917 0.645833 6.58333 0.5 7 0.5C7.41667 0.5 7.77083 0.645833 8.0625 0.9375C8.35417 1.22917 8.5 1.58333 8.5 2C8.5 2.41667 8.35417 2.77083 8.0625 3.0625C7.77083 3.35417 7.41667 3.5 7 3.5Z" fill="#3A5B8D"/>
</svg>
