<svg width="10" height="8" viewBox="0 0 10 8" fill="none" xmlns="http://www.w3.org/2000/svg">
<path d="M6.75 3.75006C6.75 4.75006 5.5 5.50006 5.5 6.25006H4.5C4.5 5.50006 3.25 4.75006 3.25 3.75006C3.25 2.78506 4.035 2.00006 5 2.00006C5.965 2.00006 6.75 2.78506 6.75 3.75006ZM5.5 6.75006H4.5V7.00006C4.5 7.27506 4.725 7.50006 5 7.50006C5.275 7.50006 5.5 7.27506 5.5 7.00006V6.75006ZM10 4.00006C10 2.77006 9.555 1.64506 8.82 0.775063C8.78653 0.734288 8.74494 0.700928 8.69787 0.677108C8.6508 0.653287 8.59929 0.639528 8.54661 0.636706C8.49393 0.633884 8.44124 0.642061 8.3919 0.660716C8.34256 0.679372 8.29764 0.708097 8.26 0.745063C8.125 0.880063 8.11 1.10006 8.23 1.24506C8.88899 2.01159 9.25094 2.9892 9.25 4.00006C9.25 5.05006 8.865 6.01506 8.23 6.76006C8.105 6.90506 8.125 7.12506 8.26 7.26006C8.42 7.42006 8.675 7.40006 8.82 7.23006C9.555 6.35506 10 5.23006 10 4.00006ZM0.75 4.00006C0.75 2.95006 1.135 1.98506 1.77 1.24006C1.895 1.09506 1.875 0.875063 1.74 0.740063C1.70211 0.70358 1.65712 0.675281 1.60783 0.656925C1.55854 0.638568 1.506 0.630548 1.45348 0.633362C1.40096 0.636175 1.34958 0.649763 1.30253 0.67328C1.25548 0.696797 1.21377 0.729741 1.18 0.770063C0.445 1.64506 0 2.77006 0 4.00006C0 5.23006 0.445 6.35506 1.18 7.23006C1.325 7.40006 1.58 7.42006 1.74 7.26006C1.875 7.12506 1.89 6.90506 1.77 6.76006C1.11221 5.99086 0.750518 5.01217 0.75 4.00006ZM7.75 4.00006C7.75 4.64006 7.53 5.23506 7.16 5.70506C7.045 5.85006 7.06 6.06006 7.195 6.19506C7.355 6.35506 7.62 6.34006 7.76 6.16006C8.23948 5.5421 8.4998 4.78222 8.5 4.00006C8.5 3.18506 8.22 2.43506 7.755 1.84506C7.72213 1.80281 7.68064 1.76803 7.63329 1.74304C7.58595 1.71804 7.53383 1.7034 7.4804 1.70009C7.42696 1.69678 7.37343 1.70488 7.32337 1.72384C7.2733 1.7428 7.22784 1.77219 7.19 1.81006C7.06 1.94006 7.04 2.15006 7.155 2.30006C7.53 2.76506 7.75 3.36006 7.75 4.00006ZM2.81 6.19006C2.94 6.06006 2.96 5.85006 2.845 5.70006C2.45794 5.2182 2.24791 4.61813 2.25 4.00006C2.25 3.36006 2.47 2.76506 2.84 2.29506C2.955 2.15006 2.94 1.94006 2.805 1.80506C2.76703 1.76839 2.72184 1.74002 2.6723 1.72178C2.62277 1.70354 2.56997 1.69582 2.51728 1.69911C2.4646 1.7024 2.41318 1.71664 2.3663 1.74091C2.31942 1.76517 2.27811 1.79894 2.245 1.84006C1.76203 2.45645 1.49971 3.21699 1.5 4.00006C1.5 4.81506 1.78 5.56506 2.245 6.16006C2.385 6.33506 2.65 6.35006 2.81 6.19006Z" fill="#3A5B8D"/>
</svg>
