<svg width="26" height="26" viewBox="0 0 26 26" fill="none" xmlns="http://www.w3.org/2000/svg">
<path d="M1 9.4C1.03789 8.4336 1.15158 7.4536 1.34105 6.46C1.48 5.7208 1.55074 5.3512 1.79074 5.098C2.03074 4.8448 2.62442 4.666 3.81053 4.306C6.72842 3.4228 9.19411 1 12.9975 1C16.8008 1 19.2716 3.424 22.1895 4.306C23.3756 4.666 23.968 4.8448 24.208 5.098C24.448 5.35 24.5187 5.7208 24.6589 6.46C24.8484 7.4536 24.9621 8.4336 25 9.4M22.4042 19C20.7368 21.4276 18.2762 23.3644 15.04 24.5416C14.1975 24.8476 13.7768 25 13.0013 25C12.2282 25 11.8063 24.8464 10.9638 24.5404C7.72758 23.3644 5.26695 21.4276 3.59832 19M8.57895 13L9.8421 14.2M9.8421 14.2L11.1053 15.4M9.8421 14.2L11.1053 13M9.8421 14.2L8.57895 15.4M2.26316 13L3.52632 14.2M3.52632 14.2L4.78947 15.4M3.52632 14.2L4.78947 13M3.52632 14.2L2.26316 15.4M14.8947 13L16.1579 14.2M16.1579 14.2L17.4211 15.4M16.1579 14.2L17.4211 13M16.1579 14.2L14.8947 15.4M21.2105 13L22.4737 14.2M22.4737 14.2L23.7368 15.4M22.4737 14.2L23.7368 13M22.4737 14.2L21.2105 15.4" stroke="#0060AF" stroke-linecap="round" stroke-linejoin="round"/>
</svg>
