<svg width="23" height="28" viewBox="0 0 23 28" fill="none" xmlns="http://www.w3.org/2000/svg">
<path d="M3.25 0.353027C2.52065 0.353027 1.82118 0.642759 1.30546 1.15848C0.789731 1.67421 0.5 2.37368 0.5 3.10303V25.103C0.5 25.8324 0.789731 26.5318 1.30546 27.0476C1.82118 27.5633 2.52065 27.853 3.25 27.853H19.75C20.4793 27.853 21.1788 27.5633 21.6945 27.0476C22.2103 26.5318 22.5 25.8324 22.5 25.103V3.10303C22.5 2.37368 22.2103 1.67421 21.6945 1.15848C21.1788 0.642759 20.4793 0.353027 19.75 0.353027H3.25ZM11.5 4.47803C13.3234 4.47803 15.072 5.20236 16.3614 6.49167C17.6507 7.78098 18.375 9.52966 18.375 11.353C18.375 13.1764 17.6507 14.9251 16.3614 16.2144C15.072 17.5037 13.3234 18.228 11.5 18.228C9.67664 18.228 7.92795 17.5037 6.63864 16.2144C5.34933 14.9251 4.625 13.1764 4.625 11.353C4.625 9.52966 5.34933 7.78098 6.63864 6.49167C7.92795 5.20236 9.67664 4.47803 11.5 4.47803ZM11.5 5.85303C10.9362 6.70553 10.4688 7.62678 10.18 8.60303H12.82C12.5247 7.62367 12.0794 6.696 11.5 5.85303ZM9.7125 6.15553C8.4475 6.58178 7.375 7.46178 6.7425 8.60303H8.75C8.9975 7.75053 9.3 6.92553 9.7125 6.15553ZM13.2738 6.15553C13.6862 6.92553 14.0025 7.75053 14.25 8.60303H16.2575C15.625 7.46178 14.5387 6.59553 13.2738 6.15553ZM6.17875 9.97803C6.06875 10.418 6 10.8718 6 11.353C6 11.8343 6.06875 12.288 6.17875 12.728H8.5025C8.4475 12.2743 8.40625 11.8205 8.40625 11.353C8.40625 10.8855 8.4475 10.4318 8.5025 9.97803H6.17875ZM9.89125 9.97803C9.8225 10.418 9.78125 10.8855 9.78125 11.353C9.78125 11.8205 9.8225 12.2743 9.89125 12.728H13.1088C13.1637 12.2743 13.2188 11.8205 13.2188 11.353C13.2188 10.8855 13.1637 10.418 13.1088 9.97803H9.89125ZM14.4975 9.97803C14.5525 10.4318 14.5938 10.8855 14.5938 11.353C14.5938 11.8205 14.5525 12.2743 14.4975 12.728H16.8212C16.9312 12.288 17 11.8343 17 11.353C17 10.8718 16.9312 10.418 16.8212 9.97803H14.4975ZM6.7425 14.103C7.375 15.2443 8.4475 16.1105 9.7125 16.5505C9.3 15.7805 8.9975 14.9693 8.75 14.103H6.7425ZM10.18 14.103C10.4688 15.093 10.9362 16.0005 11.5 16.853C12.0775 16.0005 12.5312 15.093 12.82 14.103H10.18ZM14.25 14.103C14.0025 14.9693 13.6862 15.7805 13.2738 16.5505C14.5387 16.1105 15.625 15.2443 16.2575 14.103H14.25ZM4.625 20.978H18.375V23.728H4.625V20.978Z" fill="#09094F"/>
</svg>
