<svg width="14" height="16" viewBox="0 0 14 16" fill="none" xmlns="http://www.w3.org/2000/svg">
<path d="M11.3333 14.6667C12.0697 14.6667 12.6667 14.0697 12.6667 13.3333C12.6667 12.597 12.0697 12 11.3333 12C10.597 12 10 12.597 10 13.3333C10 14.0697 10.597 14.6667 11.3333 14.6667Z" fill="#3A5B8D" stroke="#3A5B8D" stroke-width="1.33333" stroke-linejoin="round"/>
<path d="M2.66732 4.00004C3.40368 4.00004 4.00065 3.40307 4.00065 2.66671C4.00065 1.93033 3.40368 1.33337 2.66732 1.33337C1.93094 1.33337 1.33398 1.93033 1.33398 2.66671C1.33398 3.40307 1.93094 4.00004 2.66732 4.00004Z" fill="#3A5B8D" stroke="#3A5B8D" stroke-width="1.33333" stroke-linejoin="round"/>
<path d="M2.66732 14.6667C3.40368 14.6667 4.00065 14.0697 4.00065 13.3333C4.00065 12.597 3.40368 12 2.66732 12C1.93094 12 1.33398 12.597 1.33398 13.3333C1.33398 14.0697 1.93094 14.6667 2.66732 14.6667Z" fill="#3A5B8D" stroke="#3A5B8D" stroke-width="1.33333" stroke-linejoin="round"/>
<path d="M2.66797 4V12" stroke="#3A5B8D" stroke-width="1.33333" stroke-linecap="round" stroke-linejoin="round"/>
<path d="M7 3.33337H10C10.7364 3.33337 11.3333 3.93034 11.3333 4.66671V12" stroke="#3A5B8D" stroke-width="1.33333" stroke-linecap="round" stroke-linejoin="round"/>
<path d="M9 5.33337L7 3.33337L9 1.33337" stroke="#3A5B8D" stroke-width="1.33333" stroke-linecap="round" stroke-linejoin="round"/>
</svg>
