<svg width="44" height="41" viewBox="0 0 44 41" fill="none" xmlns="http://www.w3.org/2000/svg">
<g clip-path="url(#clip0_416_872)">
<path d="M31.9784 15.7618C31.9784 19.502 28.846 22.5212 24.9655 22.5212C21.0851 22.5212 17.9526 19.502 17.9526 15.7618C17.9526 12.0216 21.0851 9.00244 24.9655 9.00244C28.846 9.00244 31.9784 12.0216 31.9784 15.7618Z" fill="#757575"/>
<path fill-rule="evenodd" clip-rule="evenodd" d="M43.6666 18.015C43.6666 27.9738 35.2979 36.04 24.9656 36.04C14.6333 36.04 6.26465 27.9738 6.26465 18.015C6.26465 8.05618 14.6333 -0.0100098 24.9656 -0.0100098C35.2979 -0.0100098 43.6666 8.05618 43.6666 18.015ZM15.6151 30.9705C15.9892 30.3711 19.6125 24.7744 24.9423 24.7744C30.2487 24.7744 33.8953 30.3846 34.2694 30.9705C36.443 29.5217 38.2191 27.5856 39.4448 25.3289C40.6704 23.0722 41.309 20.5622 41.3056 18.015C41.3056 9.2954 33.9889 2.24312 24.9423 2.24312C15.8957 2.24312 8.57889 9.2954 8.57889 18.015C8.57889 23.3774 11.3607 28.1315 15.6151 30.9705Z" fill="#757575"/>
</g>
<rect x="0.921387" y="19.5601" width="21.3725" height="20.6" rx="10.3" fill="#00AF91"/>
<path d="M20.5131 29.8601C20.5131 25.1195 16.5262 21.2767 11.6079 21.2767C6.68951 21.2767 2.70264 25.1195 2.70264 29.8601C2.70264 34.6006 6.68951 38.4434 11.6079 38.4434C16.5262 38.4434 20.5131 34.6006 20.5131 29.8601Z" stroke="white" stroke-linecap="round" stroke-linejoin="round"/>
<path d="M8.0459 30.5038C8.0459 30.5038 9.47073 31.2866 10.1832 32.4351C10.1832 32.4351 12.3204 27.9288 15.1701 26.4268" stroke="white" stroke-linecap="round" stroke-linejoin="round"/>
<defs>
<clipPath id="clip0_416_872">
<rect width="37.402" height="36.05" fill="white" transform="translate(6.26465 -0.0100098)"/>
</clipPath>
</defs>
</svg>
