<svg width="16" height="16" viewBox="0 0 16 16" fill="none" xmlns="http://www.w3.org/2000/svg">
<path fill-rule="evenodd" clip-rule="evenodd" d="M5.5 6C5.5 5.33696 5.76339 4.70107 6.23223 4.23223C6.70107 3.76339 7.33696 3.5 8 3.5C8.66304 3.5 9.29893 3.76339 9.76777 4.23223C10.2366 4.70107 10.5 5.33696 10.5 6C10.5 6.66304 10.2366 7.29893 9.76777 7.76777C9.29893 8.23661 8.66304 8.5 8 8.5C7.33696 8.5 6.70107 8.23661 6.23223 7.76777C5.76339 7.29893 5.5 6.66304 5.5 6ZM8 4.5C7.60218 4.5 7.22064 4.65804 6.93934 4.93934C6.65804 5.22064 6.5 5.60218 6.5 6C6.5 6.39782 6.65804 6.77936 6.93934 7.06066C7.22064 7.34196 7.60218 7.5 8 7.5C8.39782 7.5 8.77936 7.34196 9.06066 7.06066C9.34196 6.77936 9.5 6.39782 9.5 6C9.5 5.60218 9.34196 5.22064 9.06066 4.93934C8.77936 4.65804 8.39782 4.5 8 4.5Z" fill="#3A5B8D"/>
<path fill-rule="evenodd" clip-rule="evenodd" d="M0.833984 8.00016C0.833984 4.04216 4.04265 0.833496 8.00065 0.833496C11.9587 0.833496 15.1673 4.04216 15.1673 8.00016C15.1673 11.9582 11.9587 15.1668 8.00065 15.1668C4.04265 15.1668 0.833984 11.9582 0.833984 8.00016ZM8.00065 1.8335C6.78245 1.83355 5.59155 2.19442 4.57821 2.87057C3.56488 3.54671 2.77451 4.50785 2.30683 5.6327C1.83914 6.75755 1.7151 7.99573 1.95034 9.191C2.18559 10.3863 2.76959 11.4851 3.62865 12.3488C3.74865 11.7002 3.98532 11.0888 4.45932 10.5968C5.16932 9.86083 6.30332 9.50016 8.00065 9.50016C9.69798 9.50016 10.832 9.86083 11.5413 10.5968C12.016 11.0888 12.252 11.7008 12.3727 12.3495C13.2319 11.4858 13.8161 10.3869 14.0515 9.19153C14.2869 7.99614 14.1629 6.75782 13.6952 5.63283C13.2275 4.50784 12.437 3.5466 11.4235 2.87042C10.4101 2.19424 9.21899 1.83342 8.00065 1.8335ZM11.4633 13.1035C11.3953 12.2955 11.22 11.7035 10.822 11.2908C10.3887 10.8422 9.58665 10.5002 8.00065 10.5002C6.41465 10.5002 5.61265 10.8422 5.17932 11.2908C4.78132 11.7042 4.60598 12.2955 4.53798 13.1042C5.55891 13.7989 6.76577 14.1693 8.00065 14.1668C9.2356 14.1691 10.4425 13.7985 11.4633 13.1035Z" fill="#3A5B8D"/>
</svg>
