<svg width="12" height="12" viewBox="0 0 12 12" fill="none" xmlns="http://www.w3.org/2000/svg">
<path d="M6 4.5C6.9665 4.5 7.75 3.7165 7.75 2.75C7.75 1.7835 6.9665 1 6 1C5.0335 1 4.25 1.7835 4.25 2.75C4.25 3.7165 5.0335 4.5 6 4.5Z" stroke="#3A5B8D" stroke-width="1.33333" stroke-linecap="round" stroke-linejoin="round"/>
<path d="M1 10.25C1 8.04075 3.01475 6.25 5.5 6.25M9.25 7.75V7C9.25 6.80109 9.17098 6.61032 9.03033 6.46967C8.88968 6.32902 8.69891 6.25 8.5 6.25C8.30109 6.25 8.11032 6.32902 7.96967 6.46967C7.82902 6.61032 7.75 6.80109 7.75 7V7.75M6.75 7.75H10.25V10.25H6.75V7.75Z" stroke="#3A5B8D" stroke-width="1.33333" stroke-linecap="round" stroke-linejoin="round"/>
</svg>
