<svg width="14" height="14" viewBox="0 0 14 14" fill="none" xmlns="http://www.w3.org/2000/svg">
<path d="M1.66659 11.6665V10.3331H2.99992V5.66647C2.99992 4.74425 3.2777 3.92492 3.83325 3.20847C4.38881 2.49203 5.11103 2.02247 5.99992 1.7998V1.33314C5.99992 1.05536 6.09725 0.81936 6.29192 0.625138C6.48659 0.430916 6.72259 0.333582 6.99992 0.333138C7.27725 0.332694 7.51347 0.430027 7.70859 0.625138C7.9037 0.820249 8.00081 1.05625 7.99992 1.33314V1.7998C8.88881 2.02203 9.61103 2.49158 10.1666 3.20847C10.7221 3.92536 10.9999 4.74469 10.9999 5.66647V10.3331H12.3333V11.6665H1.66659ZM6.99992 13.6665C6.63325 13.6665 6.31947 13.536 6.05859 13.2751C5.7977 13.0142 5.66703 12.7002 5.66659 12.3331H8.33325C8.33325 12.6998 8.20281 13.0138 7.94192 13.2751C7.68103 13.5365 7.36703 13.6669 6.99992 13.6665ZM0.333252 5.66647C0.333252 4.55536 0.580585 3.53603 1.07525 2.60847C1.56992 1.68092 2.2337 0.91136 3.06659 0.299805L3.84992 1.36647C3.18325 1.85536 2.65281 2.47203 2.25859 3.21647C1.86436 3.96092 1.66703 4.77758 1.66659 5.66647H0.333252ZM12.3333 5.66647C12.3333 4.77758 12.1359 3.96092 11.7413 3.21647C11.3466 2.47203 10.8164 1.85536 10.1506 1.36647L10.9339 0.299805C11.7673 0.910916 12.4313 1.68047 12.9259 2.60847C13.4206 3.53647 13.6675 4.5558 13.6666 5.66647H12.3333Z" fill="#3A5B8D"/>
</svg>
