<svg width="12" height="12" viewBox="0 0 12 12" fill="none" xmlns="http://www.w3.org/2000/svg">
<path fill-rule="evenodd" clip-rule="evenodd" d="M2.33333 0C2.15652 0 1.98695 0.0702379 1.86193 0.195262C1.7369 0.320286 1.66667 0.489856 1.66667 0.666667V1H0V7.33333H7.33333V1H5.66667V0.666667C5.66667 0.489856 5.59643 0.320286 5.4714 0.195262C5.34638 0.0702379 5.17681 0 5 0H2.33333ZM5 4C5.17681 4 5.34638 3.92976 5.4714 3.80474C5.59643 3.67971 5.66667 3.51014 5.66667 3.33333V3H6.66667V6.66667H5V4.66667H2.33333V6.66667H0.666667V3H1.66667V3.33333C1.66667 3.51014 1.7369 3.67971 1.86193 3.80474C1.98695 3.92976 2.15652 4 2.33333 4H5ZM0.666667 1.66667H1.66667V2.33333H0.666667V1.66667ZM6.66667 2.33333H5.66667V1.66667H6.66667V2.33333ZM4.33333 5.33333V6.66667H3V5.33333H4.33333ZM3.33333 0.666667V1.66667H2.33333V2.33333H3.33333V3.33333H4V2.33333H5V1.66667H4V0.666667H3.33333Z" fill="#3A5B8D"/>
<path d="M8.00007 7.00033C8.00007 6.6467 8.14055 6.30757 8.3906 6.05752C8.64064 5.80747 8.97978 5.66699 9.3334 5.66699C9.68703 5.66699 10.0262 5.80747 10.2762 6.05752C10.5263 6.30757 10.6667 6.6467 10.6667 7.00033C10.6667 7.35395 10.5263 7.69309 10.2762 7.94313C10.0262 8.19318 9.68703 8.33366 9.3334 8.33366C8.97978 8.33366 8.64064 8.19318 8.3906 7.94313C8.14055 7.69309 8.00007 7.35395 8.00007 7.00033ZM9.3334 9.00033C8.4434 9.00033 6.66674 9.48766 6.66674 10.455V11.3337H3.66674C3.42374 11.3337 3.26607 11.246 3.16574 11.133C3.06007 11.014 3.00007 10.846 3.00007 10.667V9.47166L4.09774 10.5693L4.56907 10.098L2.66674 8.19566L0.764404 10.098L1.23574 10.5693L2.3334 9.47166V10.667C2.3334 10.988 2.44007 11.32 2.66774 11.576C2.90074 11.838 3.24307 12.0003 3.66674 12.0003H12.0001V10.455C12.0001 9.48766 10.2234 9.00033 9.3334 9.00033Z" fill="#3A5B8D"/>
</svg>
