<svg width="12" height="10" viewBox="0 0 12 10" fill="none" xmlns="http://www.w3.org/2000/svg">
<path fill-rule="evenodd" clip-rule="evenodd" d="M3.75012 1C3.75012 1.41421 3.41434 1.75 3.00012 1.75C2.58591 1.75 2.25013 1.41421 2.25013 1C2.25013 0.585789 2.58591 0.25 3.00012 0.25C3.41434 0.25 3.75012 0.585789 3.75012 1ZM3.00008 2.7929L5.20719 5.00001L4.50008 5.70712L3.49998 4.70702L3.50007 7C3.50007 7.82845 4.17165 8.5 5.00007 8.5H7.00009V9.50001H5.00007C3.61937 9.50001 2.50009 8.38073 2.50009 7L2.49997 4.70702L1.50008 5.70712L0.792969 5.00001L3.00008 2.7929ZM7.00009 0.500008C8.38079 0.500008 9.50007 1.61929 9.50007 3.00002L9.49998 5.29202L10.5001 4.2929L11.2072 5.00001L9.00008 7.20712L6.79297 5.00001L7.50008 4.2929C7.83321 4.6261 8.16651 4.95914 8.49997 5.29202L8.50009 3.00002C8.50009 2.17157 7.82851 1.50002 7.00009 1.50002H5.00007V0.500008H7.00009ZM9.00012 9.75002C9.41434 9.75002 9.75012 9.41423 9.75012 9.00002C9.75012 8.5858 9.41434 8.25002 9.00012 8.25002C8.58591 8.25002 8.25012 8.5858 8.25012 9.00002C8.25012 9.41423 8.58591 9.75002 9.00012 9.75002Z" fill="#3A5B8D"/>
</svg>
