<svg width="12" height="16" viewBox="0 0 12 16" fill="none" xmlns="http://www.w3.org/2000/svg">
<path d="M1.52712 1.62227e-06C0.980621 1.62227e-06 0.482627 0.424849 0.353446 1.07531C0.209379 1.80153 7.52109e-08 3.04745 7.52109e-08 4.20919C-0.0001111 4.80111 0.123031 5.38418 0.358799 5.90807C0.594567 6.43195 0.935879 6.88092 1.35328 7.21623C1.57802 7.39638 1.68079 7.61638 1.68079 7.79541C1.68063 7.81416 1.67967 7.83289 1.67791 7.85153C1.65006 8.12653 1.53144 9.29949 1.41955 10.514C1.3091 11.7083 1.20057 12.9974 1.20057 13.4694C1.20057 14.0648 1.40295 14.6358 1.76318 15.0568C2.12342 15.4778 2.61201 15.7143 3.12147 15.7143C3.63092 15.7143 4.11951 15.4778 4.47975 15.0568C4.83999 14.6358 5.04237 14.0648 5.04237 13.4694C5.04237 12.998 4.93336 11.7083 4.82339 10.514C4.7115 9.29949 4.59288 8.12597 4.56503 7.85097C4.56327 7.83233 4.5623 7.8136 4.56215 7.79485C4.56215 7.61638 4.66492 7.39638 4.88918 7.21623C5.30667 6.88099 5.64807 6.43204 5.88393 5.90815C6.11978 5.38426 6.243 4.80116 6.24294 4.20919C6.24294 3.04689 6.03404 1.80097 5.88949 1.07531C5.76031 0.424849 5.26232 1.62227e-06 4.71582 1.62227e-06C4.43053 -0.000499203 4.15396 0.114975 3.93353 0.326634C3.70172 0.114679 3.4158 -0.000326751 3.12147 1.62227e-06C2.81508 1.62227e-06 2.53319 0.121787 2.30941 0.326634C2.08897 0.114975 1.81241 -0.000499203 1.52712 1.62227e-06ZM4.44209 1.44235C4.44209 1.35751 4.47093 1.27614 4.52226 1.21615C4.5736 1.15615 4.64322 1.12245 4.71582 1.12245C4.84068 1.12245 4.93192 1.21561 4.95401 1.32954C5.09328 2.03051 5.28249 3.17709 5.28249 4.20919C5.28255 4.61909 5.19724 5.02286 5.03393 5.38562C4.87061 5.74838 4.63419 6.05923 4.34508 6.29133C3.96571 6.59607 3.60169 7.11801 3.60169 7.79541C3.60169 7.85789 3.6049 7.92075 3.6113 7.98398C3.63915 8.2573 3.75729 9.42633 3.8687 10.6341C3.98107 11.8615 4.08192 13.0737 4.08192 13.4694C4.08192 13.7671 3.98073 14.0526 3.80061 14.2631C3.62049 14.4736 3.3762 14.5918 3.12147 14.5918C2.86674 14.5918 2.62245 14.4736 2.44233 14.2631C2.26221 14.0526 2.16102 13.7671 2.16102 13.4694C2.16102 13.0737 2.26138 11.8615 2.37424 10.6341C2.48565 9.42633 2.60379 8.2573 2.63164 7.98398C2.63804 7.92038 2.64124 7.85752 2.64124 7.79541C2.64124 7.11801 2.27675 6.59607 1.89785 6.29133C1.60875 6.05923 1.37233 5.74838 1.20901 5.38562C1.04569 5.02286 0.960385 4.61909 0.960452 4.20919C0.960452 3.17653 1.14966 2.03051 1.28893 1.32954C1.30223 1.2683 1.33317 1.21427 1.37655 1.17656C1.41993 1.13884 1.4731 1.11974 1.52712 1.12245C1.59972 1.12245 1.66934 1.15615 1.72067 1.21615C1.77201 1.27614 1.80085 1.35751 1.80085 1.44235V4.4898C1.80085 4.63864 1.85144 4.78139 1.9415 4.88664C2.03156 4.99189 2.15371 5.05102 2.28107 5.05102C2.40844 5.05102 2.53058 4.99189 2.62064 4.88664C2.7107 4.78139 2.7613 4.63864 2.7613 4.4898V1.54337C2.7613 1.43173 2.79925 1.32467 2.86679 1.24573C2.93434 1.1668 3.02595 1.12245 3.12147 1.12245C3.21699 1.12245 3.3086 1.1668 3.37615 1.24573C3.44369 1.32467 3.48164 1.43173 3.48164 1.54337V4.4898C3.48164 4.63864 3.53223 4.78139 3.62229 4.88664C3.71235 4.99189 3.8345 5.05102 3.96186 5.05102C4.08923 5.05102 4.21138 4.99189 4.30144 4.88664C4.3915 4.78139 4.44209 4.63864 4.44209 4.4898V1.44235ZM7.92373 4.20919C7.92364 3.43904 8.1699 2.69667 8.61416 2.12784C9.05842 1.55901 9.66859 1.20481 10.3249 1.1348V7.29592C10.3249 7.4525 10.3513 7.80551 10.3858 8.22643C10.4219 8.6625 10.4708 9.21307 10.5222 9.79337V9.79505C10.6581 11.3165 10.8051 12.9845 10.8051 13.4694C10.8051 13.7671 10.7039 14.0526 10.5238 14.2631C10.3437 14.4736 10.0994 14.5918 9.84463 14.5918C9.5899 14.5918 9.34561 14.4736 9.16549 14.2631C8.98537 14.0526 8.88418 13.7671 8.88418 13.4694C8.88418 13.0687 8.98599 11.7212 9.09932 10.358C9.18148 9.37653 9.26712 8.3955 9.35624 7.4149C9.359 7.38523 9.36108 7.35547 9.36249 7.32567C9.36594 7.24955 9.3561 7.17341 9.33354 7.10188C9.31099 7.03036 9.27621 6.96495 9.23132 6.90965C9.18643 6.85435 9.13237 6.81032 9.07244 6.78024C9.01251 6.75016 8.94796 6.73467 8.88274 6.7347H8.16384C8.10016 6.7347 8.03909 6.70513 7.99406 6.65251C7.94903 6.59988 7.92373 6.52851 7.92373 6.45408V4.20919ZM10.565 1.62227e-06C9.60974 1.62227e-06 8.69364 0.443468 8.01819 1.23284C7.34274 2.02222 6.96328 3.09284 6.96328 4.20919V6.45408C6.96328 6.8262 7.08976 7.18307 7.31491 7.4462C7.54006 7.70932 7.84543 7.85715 8.16384 7.85715H8.35065C8.27929 8.65418 8.21029 9.45149 8.14367 10.2491C8.03322 11.5792 7.92373 12.9991 7.92373 13.4694C7.92373 14.0648 8.12611 14.6358 8.48635 15.0568C8.84659 15.4778 9.33518 15.7143 9.84463 15.7143C10.3541 15.7143 10.8427 15.4778 11.2029 15.0568C11.5632 14.6358 11.7655 14.0648 11.7655 13.4694C11.7655 12.9166 11.6133 11.206 11.4841 9.74791L11.4779 9.67944C11.4311 9.15936 11.3858 8.6391 11.342 8.11868C11.3045 7.67082 11.2853 7.38459 11.2853 7.29592V0.561226C11.2853 0.41238 11.2347 0.26963 11.1447 0.16438C11.0546 0.0591304 10.9324 1.62227e-06 10.8051 1.62227e-06H10.565Z" fill="#B4E94B"/>
</svg>
