<svg width="14" height="14" viewBox="0 0 14 14" fill="none" xmlns="http://www.w3.org/2000/svg">
<path d="M9.33333 4H2.66667V2.66667H9.33333V4ZM8 6.66667V9.12667L10.1267 10.3533L10.6267 9.48667L9 8.54667V6.66667H8ZM4 12.6667L5.24667 11.84C5.68205 12.3124 6.21091 12.6891 6.79967 12.9462C7.38844 13.2033 8.02423 13.3351 8.66667 13.3333C11.2467 13.3333 13.3333 11.2467 13.3333 8.66667C13.3333 7.39333 12.8267 6.24 12 5.4V0H0V12.6667L2 11.3333L4 12.6667ZM4 11.0667L2 9.73333L1.33333 10.1733V1.33333H10.6667V4.44667C10.06 4.16 9.38 4 8.66667 4C7.39333 4 6.24 4.50667 5.4 5.33333H2.66667V6.66667H4.44667C4.16 7.27333 4 7.95333 4 8.66667C4 9.41333 4.17333 10.1133 4.48667 10.74L4 11.0667ZM8.66667 12C6.82667 12 5.33333 10.5067 5.33333 8.66667C5.33333 6.82667 6.82667 5.33333 8.66667 5.33333C10.5067 5.33333 12 6.82667 12 8.66667C12 10.5067 10.5067 12 8.66667 12Z" fill="#3A5B8D"/>
</svg>
