<svg width="24" height="22" viewBox="0 0 24 22" fill="none" xmlns="http://www.w3.org/2000/svg">
<g filter="url(#filter0_d_559_7299)">
<path d="M21.0002 19L16.6572 14.657M16.6572 14.657C17.4001 13.9141 17.9894 13.0321 18.3914 12.0615C18.7935 11.0909 19.0004 10.0506 19.0004 8.99996C19.0004 7.94936 18.7935 6.90905 18.3914 5.93842C17.9894 4.96779 17.4001 4.08585 16.6572 3.34296C15.9143 2.60007 15.0324 2.01078 14.0618 1.60874C13.0911 1.20669 12.0508 0.999756 11.0002 0.999756C9.9496 0.999756 8.90929 1.20669 7.93866 1.60874C6.96803 2.01078 6.08609 2.60007 5.34321 3.34296C3.84288 4.84329 3 6.87818 3 8.99996C3 11.1217 3.84288 13.1566 5.34321 14.657C6.84354 16.1573 8.87842 17.0002 11.0002 17.0002C13.122 17.0002 15.1569 16.1573 16.6572 14.657Z" stroke="#64748B" stroke-width="1.67" stroke-linecap="round" stroke-linejoin="round" shape-rendering="crispEdges"/>
</g>
<defs>
<filter id="filter0_d_559_7299" x="-1.83496" y="0.164795" width="27.6699" height="27.6702" filterUnits="userSpaceOnUse" color-interpolation-filters="sRGB">
<feFlood flood-opacity="0" result="BackgroundImageFix"/>
<feColorMatrix in="SourceAlpha" type="matrix" values="0 0 0 0 0 0 0 0 0 0 0 0 0 0 0 0 0 0 127 0" result="hardAlpha"/>
<feOffset dy="4"/>
<feGaussianBlur stdDeviation="2"/>
<feComposite in2="hardAlpha" operator="out"/>
<feColorMatrix type="matrix" values="0 0 0 0 0 0 0 0 0 0 0 0 0 0 0 0 0 0 0.25 0"/>
<feBlend mode="normal" in2="BackgroundImageFix" result="effect1_dropShadow_559_7299"/>
<feBlend mode="normal" in="SourceGraphic" in2="effect1_dropShadow_559_7299" result="shape"/>
</filter>
</defs>
</svg>
