<svg width="24" height="24" viewBox="0 0 24 24" fill="none" xmlns="http://www.w3.org/2000/svg">
<path d="M22.5 18V16.5H20.9242C20.827 16.0307 20.6406 15.5844 20.3752 15.1852L21.4928 14.0677L20.4323 13.0072L19.3148 14.1248C18.9156 13.8594 18.4693 13.673 18 13.5758V12H16.5V13.5758C16.0307 13.673 15.5844 13.8594 15.1852 14.1248L14.0677 13.0072L13.0073 14.0677L14.1248 15.1852C13.8594 15.5844 13.673 16.0307 13.5757 16.5H12V18H13.5757C13.6732 18.4777 13.8637 18.9218 14.1248 19.3148L13.0073 20.4323L14.0677 21.4928L15.1852 20.3752C15.5844 20.6406 16.0307 20.827 16.5 20.9242V22.5H18V20.9242C18.4693 20.827 18.9156 20.6406 19.3148 20.3752L20.4323 21.4928L21.4928 20.4323L20.3752 19.3148C20.6406 18.9156 20.827 18.4693 20.9242 18H22.5ZM17.25 19.5C16.0095 19.5 15 18.4905 15 17.25C15 16.0095 16.0095 15 17.25 15C18.4905 15 19.5 16.0095 19.5 17.25C19.5 18.4905 18.4905 19.5 17.25 19.5ZM9 4.5H12V6H9V4.5Z" fill="#1E1E1E"/>
<path d="M4.5 21V3H16.5V9.75H18V3C18 2.17275 17.3273 1.5 16.5 1.5H4.5C3.67275 1.5 3 2.17275 3 3V21C3 21.8272 3.67275 22.5 4.5 22.5H10.5V21H4.5Z" fill="#1E1E1E"/>
</svg>
