<svg width="20" height="20" viewBox="0 0 20 20" fill="none" xmlns="http://www.w3.org/2000/svg">
<path fill-rule="evenodd" clip-rule="evenodd" d="M6.882 2.086C6.882 0.934 7.816 0 8.968 0H11.229C12.419 0 13.382 0.964 13.382 2.153V2.181C13.7747 1.79216 14.3055 1.5747 14.8582 1.5762C15.4108 1.57769 15.9404 1.79803 16.331 2.189L17.931 3.789C18.707 4.565 18.765 5.789 18.101 6.633C18.6241 6.69536 19.1062 6.94726 19.4561 7.34105C19.8061 7.73483 19.9995 8.2432 20 8.77V11.03C20.0001 11.304 19.9463 11.5754 19.8415 11.8286C19.7367 12.0818 19.5831 12.3119 19.3894 12.5057C19.1957 12.6995 18.9657 12.8532 18.7125 12.9581C18.4594 13.063 18.188 13.117 17.914 13.117H17.825C17.8047 13.1377 17.7927 13.1651 17.791 13.194L17.905 13.308C18.3144 13.7176 18.5444 14.2729 18.5444 14.852C18.5444 15.4311 18.3144 15.9864 17.905 16.396L16.397 17.904C15.567 18.734 14.236 18.756 13.379 17.971C13.3473 18.5197 13.107 19.0356 12.7073 19.4128C12.3075 19.7901 11.7786 20.0001 11.229 20H8.968C8.69411 20.0001 8.42288 19.9463 8.1698 19.8416C7.91672 19.7369 7.68675 19.5833 7.49304 19.3897C7.29932 19.196 7.14565 18.9662 7.04081 18.7131C6.93596 18.4601 6.882 18.1889 6.882 17.915V17.874L6.826 17.931C6.4229 18.3334 5.87659 18.5594 5.307 18.5594C4.73741 18.5594 4.1911 18.3334 3.788 17.931L2.188 16.331C1.99388 16.1369 1.8399 15.9065 1.73484 15.6529C1.62978 15.3993 1.57571 15.1275 1.57571 14.853C1.57571 14.5785 1.62978 14.3067 1.73484 14.0531C1.8399 13.7995 1.99388 13.5691 2.188 13.375L2.23 13.334L2.233 13.33L2.238 13.31C2.24128 13.2773 2.23647 13.2444 2.224 13.214C2.21073 13.1804 2.18862 13.151 2.16 13.129L2.141 13.119L2.14 13.118H2.085C1.81111 13.118 1.5399 13.064 1.28687 12.9592C1.03385 12.8544 0.803952 12.7007 0.610329 12.507C0.416706 12.3132 0.263147 12.0833 0.158424 11.8302C0.0537021 11.5771 -0.000131122 11.3059 2.3983e-07 11.032V8.771C2.3983e-07 7.621 0.902 6.681 2.036 6.621C1.70809 6.22737 1.53921 5.72535 1.56252 5.21356C1.58584 4.70177 1.79966 4.21719 2.162 3.855L3.855 2.162C4.04565 1.97127 4.27201 1.81997 4.52115 1.71674C4.77029 1.61351 5.03732 1.56038 5.307 1.56038C5.57668 1.56038 5.84371 1.61351 6.09285 1.71674C6.34199 1.81997 6.56835 1.97127 6.759 2.162L6.805 2.209H6.815C6.84075 2.20534 6.86462 2.1934 6.883 2.175L6.882 2.086ZM8.968 2C8.94519 2 8.92332 2.00906 8.90719 2.02519C8.89106 2.04132 8.882 2.06319 8.882 2.086V2.194C8.882 3.074 8.302 3.768 7.594 4.054C6.889 4.34 6.011 4.243 5.403 3.635L5.344 3.577C5.3341 3.56735 5.32083 3.56195 5.307 3.56195C5.29318 3.56195 5.2799 3.56735 5.27 3.577L3.577 5.27C3.56735 5.2799 3.56195 5.29318 3.56195 5.307C3.56195 5.32082 3.56735 5.3341 3.577 5.344L3.724 5.492C4.278 6.045 4.37 6.849 4.096 7.494C3.829 8.123 3.203 8.618 2.429 8.618H2.153C2.11259 8.618 2.07383 8.63398 2.04516 8.66246C2.0165 8.69094 2.00026 8.7296 2 8.77V11.032C2 11.079 2.038 11.118 2.085 11.118H2.14C3.053 11.118 3.77 11.721 4.072 12.45C4.376 13.184 4.283 14.109 3.644 14.748L3.603 14.789C3.59453 14.7974 3.58781 14.8073 3.58323 14.8183C3.57864 14.8293 3.57628 14.8411 3.57628 14.853C3.57628 14.8649 3.57864 14.8767 3.58323 14.8877C3.58781 14.8987 3.59453 14.9086 3.603 14.917L5.203 16.517C5.23095 16.5439 5.26822 16.5589 5.307 16.5589C5.34578 16.5589 5.38305 16.5439 5.411 16.517L5.554 16.374C6.131 15.797 6.964 15.696 7.638 15.964C8.324 16.235 8.882 16.906 8.882 17.752V17.915C8.882 17.962 8.921 18 8.968 18H11.229C11.2696 18 11.3085 17.9839 11.3372 17.9552C11.3659 17.9265 11.382 17.8876 11.382 17.847V17.57C11.382 16.796 11.877 16.171 12.506 15.904C13.151 15.63 13.954 15.722 14.508 16.276L14.723 16.491C14.7575 16.5254 14.8043 16.5448 14.853 16.5448C14.9017 16.5448 14.9485 16.5254 14.983 16.491L16.491 14.983C16.5254 14.9485 16.5448 14.9017 16.5448 14.853C16.5448 14.8043 16.5254 14.7575 16.491 14.723L16.365 14.597C15.757 13.989 15.66 13.111 15.945 12.407C16.232 11.699 16.926 11.117 17.805 11.117H17.915C17.9375 11.1167 17.9589 11.1077 17.9748 11.0918C17.9907 11.0759 17.9997 11.0545 18 11.032V8.77C18 8.72942 17.9839 8.69051 17.9552 8.66181C17.9265 8.63312 17.8876 8.617 17.847 8.617H17.515C16.775 8.617 16.175 8.144 15.922 7.537C15.7876 7.22102 15.7502 6.87218 15.8146 6.53489C15.8791 6.1976 16.0425 5.88713 16.284 5.643L16.516 5.411C16.5435 5.38296 16.5589 5.34526 16.5589 5.306C16.5589 5.26674 16.5435 5.22904 16.516 5.201L14.916 3.602C14.8991 3.58521 14.8763 3.57578 14.8525 3.57578C14.8287 3.57578 14.8059 3.58521 14.789 3.602L14.659 3.733C14.073 4.318 13.224 4.407 12.549 4.113C11.899 3.832 11.382 3.183 11.382 2.375V2.152C11.3817 2.11177 11.3656 2.07326 11.3372 2.04481C11.3087 2.01636 11.2702 2.00026 11.23 2H8.968Z" fill="white"/>
</svg>
