<svg width="16" height="14" viewBox="0 0 16 14" fill="none" xmlns="http://www.w3.org/2000/svg">
<path d="M7.99991 13C12.4187 13 15.9999 10.0906 15.9999 6.5C15.9999 2.90937 12.4187 0 7.99991 0C3.58116 0 -8.54291e-05 2.90937 -8.54291e-05 6.5C-8.54291e-05 7.90938 0.55304 9.2125 1.49054 10.2781C1.43116 11.0437 1.13429 11.725 0.82179 12.2437C0.649915 12.5312 0.474915 12.7625 0.34679 12.9187C0.281165 12.9969 0.231165 13.0563 0.193665 13.0969C0.174915 13.1156 0.162415 13.1313 0.15304 13.1406L0.143665 13.15C-8.54284e-05 13.2937 -0.0407104 13.5063 0.0374146 13.6938C0.11554 13.8813 0.29679 14.0031 0.499915 14.0031C1.39679 14.0031 2.29991 13.725 3.04991 13.4C3.76554 13.0875 4.37491 12.7156 4.74679 12.4438C5.74054 12.8031 6.84054 13.0031 7.99991 13.0031V13ZM2.99991 5.65C2.99991 5.01562 3.51554 4.5 4.14991 4.5H4.74991C5.02491 4.5 5.24991 4.725 5.24991 5C5.24991 5.275 5.02491 5.5 4.74991 5.5H4.14991C4.06554 5.5 3.99991 5.56875 3.99991 5.65C3.99991 5.7 4.02491 5.74688 4.06866 5.775L4.98741 6.3875C5.30929 6.6 5.49991 6.95938 5.49991 7.34688C5.49991 7.98125 4.98429 8.49687 4.34991 8.49687L3.49991 8.5C3.22491 8.5 2.99991 8.275 2.99991 8C2.99991 7.725 3.22491 7.5 3.49991 7.5H4.34991C4.43429 7.5 4.49991 7.43125 4.49991 7.35C4.49991 7.3 4.47491 7.25313 4.43116 7.225L3.51241 6.6125C3.19366 6.39688 2.99991 6.0375 2.99991 5.65ZM11.6499 4.5H12.2499C12.5249 4.5 12.7499 4.725 12.7499 5C12.7499 5.275 12.5249 5.5 12.2499 5.5H11.6499C11.5655 5.5 11.4999 5.56875 11.4999 5.65C11.4999 5.7 11.5249 5.74688 11.5687 5.775L12.4874 6.3875C12.8062 6.6 12.9999 6.95938 12.9999 7.34688C12.9999 7.98125 12.4843 8.49687 11.8499 8.49687L10.9999 8.5C10.7249 8.5 10.4999 8.275 10.4999 8C10.4999 7.725 10.7249 7.5 10.9999 7.5H11.8499C11.9343 7.5 11.9999 7.43125 11.9999 7.35C11.9999 7.3 11.9749 7.25313 11.9312 7.225L11.0124 6.6125C10.6937 6.4 10.4999 6.04062 10.4999 5.65312C10.4999 5.01875 11.0155 4.50313 11.6499 4.50313V4.5ZM6.89991 4.7L7.99991 6.16563L9.09991 4.7C9.22804 4.52812 9.45304 4.45625 9.65929 4.525C9.86554 4.59375 9.99991 4.78438 9.99991 5V8C9.99991 8.275 9.77491 8.5 9.49991 8.5C9.22491 8.5 8.99991 8.275 8.99991 8V6.5L8.39991 7.3C8.30616 7.425 8.15616 7.5 7.99991 7.5C7.84366 7.5 7.69366 7.425 7.59991 7.3L6.99991 6.5V8C6.99991 8.275 6.77491 8.5 6.49991 8.5C6.22491 8.5 5.99991 8.275 5.99991 8V5C5.99991 4.78438 6.13741 4.59375 6.34054 4.525C6.54366 4.45625 6.76866 4.52812 6.89991 4.7Z" fill="#3A5B8D"/>
</svg>
