<svg width="58" height="58" viewBox="0 0 58 58" fill="none" xmlns="http://www.w3.org/2000/svg">
<rect x="0.5" y="0.5" width="57" height="57" rx="28.5" fill="white"/>
<rect x="0.5" y="0.5" width="57" height="57" rx="28.5" stroke="#CBD5E1"/>
<mask id="mask0_860_2618" style="mask-type:alpha" maskUnits="userSpaceOnUse" x="4" y="4" width="50" height="50">
<rect x="4" y="4" width="50" height="50" fill="#D9D9D9"/>
</mask>
<g mask="url(#mask0_860_2618)">
<path d="M26.0827 32.75L21.6035 28.2708C21.2216 27.8888 20.7355 27.6979 20.1452 27.6979C19.5549 27.6979 19.0688 27.8888 18.6868 28.2708C18.3049 28.6527 18.1139 29.1388 18.1139 29.7291C18.1139 30.3194 18.3049 30.8055 18.6868 31.1875L24.6243 37.125C25.041 37.5416 25.5271 37.75 26.0827 37.75C26.6382 37.75 27.1243 37.5416 27.541 37.125L39.3118 25.3541C39.6938 24.9722 39.8848 24.4861 39.8848 23.8958C39.8848 23.3055 39.6938 22.8194 39.3118 22.4375C38.9299 22.0555 38.4438 21.8645 37.8535 21.8645C37.2632 21.8645 36.7771 22.0555 36.3952 22.4375L26.0827 32.75ZM28.9993 49.8333C26.1174 49.8333 23.4091 49.2864 20.8743 48.1927C18.3396 47.0989 16.1348 45.6145 14.2598 43.7395C12.3848 41.8645 10.9004 39.6597 9.80664 37.125C8.71289 34.5902 8.16602 31.8819 8.16602 29C8.16602 26.118 8.71289 23.4097 9.80664 20.875C10.9004 18.3402 12.3848 16.1354 14.2598 14.2604C16.1348 12.3854 18.3396 10.901 20.8743 9.80725C23.4091 8.7135 26.1174 8.16663 28.9993 8.16663C31.8813 8.16663 34.5896 8.7135 37.1243 9.80725C39.6591 10.901 41.8639 12.3854 43.7389 14.2604C45.6139 16.1354 47.0983 18.3402 48.1921 20.875C49.2858 23.4097 49.8327 26.118 49.8327 29C49.8327 31.8819 49.2858 34.5902 48.1921 37.125C47.0983 39.6597 45.6139 41.8645 43.7389 43.7395C41.8639 45.6145 39.6591 47.0989 37.1243 48.1927C34.5896 49.2864 31.8813 49.8333 28.9993 49.8333Z" fill="#03B961"/>
</g>
</svg>
