<svg width="26" height="27" viewBox="0 0 26 27" fill="none" xmlns="http://www.w3.org/2000/svg">
<path d="M14.4219 0.0223873C14.1094 0.0848873 4.00937 3.92864 3.65937 4.11614C2.97812 4.47864 2.34062 5.24114 2.04062 6.05989C1.89687 6.44739 1.89062 6.45364 1.87812 10.2911C1.85938 13.2974 1.87812 14.1661 1.93437 14.2911C1.97812 14.3786 2.12812 14.5036 2.25937 14.5661C2.47187 14.6724 2.54062 14.6786 2.75937 14.6099C4.75937 14.0286 6.66562 14.2036 8.29687 15.1161C9.59062 15.8474 10.7344 17.1224 11.2719 18.4474C11.6344 19.3286 11.7469 19.8536 11.7781 20.8286C11.8156 21.8411 11.7344 22.3661 11.3844 23.3849C11.1219 24.1661 11.1156 24.3536 11.3531 24.6161L11.5344 24.8224H16.5594C21.2281 24.8224 21.6031 24.8161 21.9781 24.7099C23.8906 24.1661 25.2156 22.6786 25.4781 20.7599C25.6094 19.8224 25.5406 19.4536 25.1469 19.0661C24.8156 18.7286 24.5719 18.6661 23.6094 18.6661C22.4406 18.6661 21.8094 18.4599 21.2344 17.8911C20.6656 17.3349 20.4594 16.8099 20.4969 15.9911C20.5219 15.3161 20.7094 14.8786 21.1781 14.3849C21.7906 13.7411 22.4031 13.5474 23.8469 13.5411C24.4906 13.5411 24.6531 13.5224 24.8594 13.4161C25.3969 13.1411 25.5844 12.6411 25.5281 11.6411C25.4469 10.3286 25.0344 9.39739 24.1406 8.50989C23.5031 7.87239 23.0969 7.60989 22.3156 7.32864L21.7656 7.13489L19.5031 7.11614L17.2406 7.09739L17.2219 4.42864L17.2031 1.75989L16.9969 1.34114C16.7406 0.816137 16.2469 0.353637 15.7469 0.166137C15.3906 0.0348873 14.7219 -0.0401127 14.4219 0.0223873ZM15.2031 2.00989L15.3594 2.15989V4.63489V7.10364H10.6906C5.72812 7.10364 5.65312 7.10989 4.85312 7.40989C4.66562 7.48489 4.34687 7.64114 4.14687 7.75989C3.94687 7.87864 3.76562 7.97864 3.75312 7.97864C3.73437 7.97864 3.73437 7.69114 3.74687 7.33489C3.77812 6.58489 3.88437 6.31614 4.32187 5.94114C4.55312 5.73489 4.95312 5.56614 6.95937 4.80989C8.26562 4.31614 10.5531 3.45364 12.0469 2.89114C13.5406 2.32239 14.8281 1.85989 14.9094 1.85989C14.9906 1.85364 15.1219 1.92239 15.2031 2.00989ZM16.6594 11.6036C16.7719 11.6724 16.9156 11.8161 16.9844 11.9286C17.2344 12.3411 17.0844 12.9036 16.6594 13.1661C16.4594 13.2849 16.3344 13.2911 13.0219 13.2911H9.59062L9.32187 13.0161C9.05937 12.7599 9.04687 12.7286 9.04687 12.3849C9.04687 12.0411 9.05937 12.0099 9.32187 11.7536L9.59062 11.4786H13.0219C16.3344 11.4786 16.4594 11.4849 16.6594 11.6036Z" fill="#3A5B8D"/>
<path d="M22.7214 14.9162C22.1839 15.0787 21.8464 15.4912 21.8089 16.0287C21.7839 16.4849 21.9652 16.8662 22.3464 17.1349L22.6214 17.3224L23.8089 17.3412C24.6527 17.3537 25.0589 17.3412 25.1902 17.2849C25.4652 17.1662 25.5464 16.9037 25.5464 16.1037C25.5464 14.9224 25.4527 14.8537 23.9089 14.8599C23.3464 14.8599 22.8152 14.8849 22.7214 14.9162Z" fill="#3A5B8D"/>
<path d="M4.26521 16.1724C2.82146 16.3974 1.59021 17.1849 0.790211 18.4037C-0.0785392 19.7287 -0.241039 21.4224 0.352711 22.9537C0.890211 24.3412 2.23396 25.5287 3.71521 25.9287C4.39646 26.1099 5.50896 26.1099 6.20271 25.9224C7.98396 25.4537 9.37146 24.0412 9.79646 22.2787C9.96521 21.5662 9.96521 20.5474 9.79646 19.8787C9.34646 18.1349 7.94646 16.7287 6.21521 16.2912C5.62771 16.1474 4.77146 16.0912 4.26521 16.1724ZM5.42146 18.4287C5.81521 18.7037 5.89021 18.8599 5.90896 19.5474L5.93396 20.1662H6.44646C7.29646 20.1662 7.75271 20.5037 7.75271 21.1474C7.75271 21.4599 7.62146 21.6787 7.29646 21.8974C7.12146 22.0224 7.00896 22.0412 6.50896 22.0412H5.92146V22.5537C5.92146 23.1787 5.77771 23.5412 5.47146 23.7287C5.04021 23.9912 4.44021 23.8349 4.17146 23.4037C4.07146 23.2349 4.04646 23.0849 4.04646 22.6162V22.0412H3.42771C2.89646 22.0412 2.79021 22.0224 2.60896 21.8974C2.05271 21.5224 2.04021 20.7912 2.57771 20.3787C2.79021 20.2162 2.86521 20.1974 3.42771 20.1787L4.04646 20.1537V19.5474C4.04646 19.0599 4.07146 18.9099 4.17146 18.7412C4.44021 18.3037 5.02146 18.1599 5.42146 18.4287Z" fill="#3A5B8D"/>
</svg>
