<svg width="39" height="39" viewBox="0 0 39 39" fill="none" xmlns="http://www.w3.org/2000/svg">
<path d="M23.5435 0.574883C20.8115 -0.106587 17.9367 -0.203966 15.1394 0.399917C14.9232 0.446586 14.7858 0.659669 14.8325 0.875851C14.8791 1.09203 15.0922 1.22945 15.3084 1.18278C17.9873 0.60446 20.7469 0.699816 23.3717 1.3577C29.6489 2.93099 34.8739 7.65057 36.864 13.8156C37.6336 16.1998 37.9605 18.7386 38.026 21.3992C38.0314 21.6203 38.2151 21.7951 38.4362 21.7897C38.6573 21.7843 38.8321 21.6006 38.8267 21.3795C38.7603 18.6824 38.4295 16.0783 37.6409 13.6154C35.5742 7.16106 30.1132 2.21365 23.5435 0.574883Z" fill="#09094F"/>
<path d="M13.1072 1.78646C13.3204 1.72765 13.4455 1.50714 13.3867 1.29394C13.3279 1.08074 13.1074 0.955589 12.8942 1.0144C9.96878 1.82144 5.8536 4.61004 3.31036 8.33538C3.30937 8.33683 3.30839 8.33829 3.30742 8.33975C1.0743 11.7051 -0.325555 15.9342 0.0652798 20.038C0.0656519 20.0419 0.0660814 20.0458 0.0665683 20.0497C0.160235 20.799 0.31748 21.547 0.474909 22.2958C0.806485 23.8729 1.13888 25.454 0.879796 27.0601C0.844577 27.2785 0.993025 27.484 1.21136 27.5192C1.4297 27.5545 1.63526 27.406 1.67047 27.1877C1.9413 25.5087 1.60502 23.8711 1.26867 22.2331C1.11312 21.4756 0.957551 20.718 0.862014 19.9562C0.494426 16.0784 1.81845 12.0331 3.97331 8.78477C6.41979 5.20242 10.3814 2.53842 13.1072 1.78646Z" fill="#09094F"/>
<path d="M18.3621 2.68116C23.3897 2.37414 28.4164 4.42598 31.7921 8.35694C31.9362 8.52472 31.917 8.77754 31.7492 8.92163C31.5815 9.06572 31.3286 9.04651 31.1845 8.87872C27.9743 5.14054 23.191 3.18791 18.4085 3.48072C18.4068 3.48082 18.4051 3.48091 18.4034 3.481C12.3553 3.77365 6.69121 7.87659 4.60784 13.6258C4.53249 13.8338 4.30285 13.9412 4.09492 13.8659C3.88699 13.7905 3.77951 13.5609 3.85486 13.353C6.0496 7.29636 11.9972 2.99021 18.3621 2.68116Z" fill="#09094F"/>
<path d="M33.0121 10.1064C32.8888 9.92279 32.64 9.87391 32.4564 9.99721C32.2728 10.1205 32.2239 10.3693 32.3472 10.5529C34.2187 13.3395 34.9925 16.3718 35.2984 19.9703C35.3171 20.1906 35.5109 20.3541 35.7313 20.3353C35.9517 20.3166 36.1151 20.1228 36.0964 19.9024C35.7838 16.2253 34.9858 13.0452 33.0121 10.1064Z" fill="#09094F"/>
<path d="M35.8287 21.6026C36.0494 21.5888 36.2395 21.7565 36.2533 21.9773C36.4042 24.392 36.4056 27.124 36.1385 29.1429C36.1095 29.3622 35.9082 29.5164 35.689 29.4874C35.4697 29.4584 35.3155 29.2571 35.3445 29.0379C35.602 27.092 35.6034 24.4179 35.454 22.0272C35.4402 21.8065 35.6079 21.6164 35.8287 21.6026Z" fill="#09094F"/>
<path d="M4.00312 15.5654C4.05503 15.3504 3.92283 15.1341 3.70784 15.0822C3.49286 15.0303 3.2765 15.1625 3.22459 15.3774C2.93067 16.5948 2.77809 17.8453 2.77205 19.0971C2.76581 20.3872 3.00637 21.6465 3.24703 22.9063C3.44389 23.9369 3.64081 24.9678 3.70276 26.0162C3.78412 27.3933 3.49446 28.7724 2.99392 30.085C2.91511 30.2916 3.01875 30.5231 3.2254 30.6018C3.43205 30.6807 3.66345 30.577 3.74225 30.3704C4.27133 28.9829 4.59204 27.4884 4.50226 25.9689C4.44074 24.9278 4.24383 23.9028 4.047 22.8783C3.80683 21.6282 3.56676 20.3787 3.57293 19.1009C3.57868 17.9115 3.72369 16.7228 4.00312 15.5654Z" fill="#09094F"/>
<path d="M14.5108 6.66658C14.5932 6.87181 14.4936 7.105 14.2884 7.18741C10.1369 8.85462 7.01929 12.6169 6.3833 17.0535C6.11759 18.907 6.40465 20.743 6.69164 22.5785C6.85326 23.6122 7.01486 24.6458 7.07769 25.6822C7.21392 27.9295 6.95794 30.398 5.49537 32.644C5.37468 32.8293 5.1266 32.8817 4.94127 32.761C4.75594 32.6403 4.70354 32.3923 4.82423 32.2069C6.15678 30.1606 6.40901 27.8877 6.27825 25.7306C6.21451 24.679 6.05392 23.6335 5.89344 22.5887C5.6055 20.7141 5.31788 18.8416 5.5905 16.9398C6.26957 12.2027 9.58982 8.21124 13.9899 6.44421C14.1952 6.36179 14.4284 6.46135 14.5108 6.66658Z" fill="#09094F"/>
<path d="M28.5689 8.94646C25.2937 5.87889 20.5468 4.80825 16.2326 5.75451C16.0166 5.80189 15.8799 6.01543 15.9273 6.23145C15.9747 6.44748 16.1882 6.58419 16.4042 6.53681C20.4894 5.64077 24.9592 6.66291 28.0214 9.53101C30.6024 11.9484 32.1012 15.466 32.4935 19.3037C32.516 19.5237 32.7126 19.6838 32.9326 19.6614C33.1527 19.6389 33.3128 19.4423 33.2903 19.2223C32.8829 15.2372 31.3209 11.524 28.5689 8.94646Z" fill="#09094F"/>
<path d="M33.2065 21.1294C33.4265 21.1068 33.6232 21.2668 33.6458 21.4868C34.0261 25.1897 33.8622 29.1893 33.288 33.0584C33.2556 33.2771 33.0519 33.4282 32.8331 33.3957C32.6144 33.3632 32.4633 33.1596 32.4958 32.9408C33.062 29.1255 33.2214 25.1939 32.8491 21.5686C32.8265 21.3486 32.9865 21.152 33.2065 21.1294Z" fill="#09094F"/>
<path d="M19.2453 8.13839C13.1089 8.13839 8.12302 13.034 8.12302 19.0868C8.12302 19.7333 8.18039 20.3668 8.28977 20.9828C8.32843 21.2006 8.5363 21.3458 8.75406 21.3071C8.97181 21.2684 9.117 21.0606 9.07833 20.8428C8.97707 20.2725 8.92392 19.6858 8.92392 19.0868C8.92392 13.4887 13.5388 8.93929 19.2453 8.93929C21.8241 8.93929 24.1802 9.86875 25.9886 11.4045C26.1572 11.5477 26.4099 11.5271 26.5531 11.3585C26.6963 11.19 26.6757 10.9372 26.5071 10.7941C24.5583 9.1391 22.0197 8.13839 19.2453 8.13839Z" fill="#09094F"/>
<path d="M27.4043 12.2871C27.5639 12.1341 27.8174 12.1394 27.9705 12.299C29.7378 14.1419 30.3035 17.0384 30.6778 19.4692C31.0994 22.2072 31.1638 24.8784 31.1638 26.1169C31.1638 26.338 30.9845 26.5173 30.7633 26.5173C30.5422 26.5173 30.3629 26.338 30.3629 26.1169C30.3629 24.8984 30.2991 22.2725 29.8862 19.591C29.5387 17.3344 29.0378 14.5691 27.3924 12.8533C27.2394 12.6937 27.2447 12.4402 27.4043 12.2871Z" fill="#09094F"/>
<path d="M31.0621 28.4102C31.0797 28.1898 30.9152 27.9968 30.6947 27.9792C30.4743 27.9616 30.2813 28.1261 30.2637 28.3466C30.0671 30.8133 29.8101 33.2772 29.2887 35.5533C29.2393 35.7689 29.374 35.9837 29.5896 36.0331C29.8052 36.0825 30.02 35.9478 30.0693 35.7322C30.6045 33.3961 30.8649 30.8835 31.0621 28.4102Z" fill="#09094F"/>
<path d="M8.93434 22.4567C9.15134 22.414 9.36189 22.5552 9.40462 22.7722C10.2513 27.0719 9.6664 30.9779 7.42419 34.3993C7.30297 34.5843 7.05474 34.636 6.86976 34.5148C6.68478 34.3935 6.6331 34.1453 6.75432 33.9603C8.864 30.7411 9.43177 27.0553 8.61881 22.927C8.57608 22.71 8.71735 22.4994 8.93434 22.4567Z" fill="#09094F"/>
<path d="M19.2453 10.7439C15.2619 10.7439 11.3543 13.8273 10.9554 17.7026C10.7808 19.3991 11.0261 21.0703 11.2715 22.7421C11.4857 24.2019 11.7001 25.6622 11.635 27.1404C11.4861 30.5235 10.4935 33.3161 8.78787 35.6162C8.65613 35.7938 8.69336 36.0446 8.87101 36.1764C9.04865 36.3081 9.29946 36.2709 9.43119 36.0932C11.2402 33.6537 12.2798 30.704 12.4351 27.1757C12.4999 25.7041 12.2849 24.2484 12.0701 22.7937C11.8244 21.1302 11.5788 19.4679 11.7521 17.7846C12.1025 14.3802 15.6065 11.5448 19.2453 11.5448C20.9425 11.5448 25.3336 12.4638 26.7304 17.014C27.6058 19.8655 27.8445 23.7245 27.6325 27.4736C27.4205 31.2222 26.761 34.8075 25.8742 37.1066C25.7947 37.3129 25.8974 37.5447 26.1038 37.6243C26.3101 37.7039 26.5419 37.6011 26.6215 37.3948C27.5492 34.9894 28.2175 31.3134 28.4321 27.5188C28.6467 23.7247 28.4108 19.7589 27.4961 16.779C25.9455 11.7281 21.0851 10.7439 19.2453 10.7439Z" fill="#09094F"/>
<path d="M13.0827 34.3999C13.268 34.5208 13.3202 34.7689 13.1994 34.9541C12.951 35.3348 12.7326 35.7332 12.5141 36.1316C12.2957 36.5299 12.0772 36.9284 11.8288 37.3092C11.708 37.4944 11.4599 37.5466 11.2746 37.4258C11.0894 37.305 11.0372 37.0569 11.158 36.8716C11.4063 36.4909 11.6248 36.0925 11.8432 35.6942C12.0617 35.2958 12.2802 34.8974 12.5285 34.5166C12.6494 34.3313 12.8975 34.2791 13.0827 34.3999Z" fill="#09094F"/>
<path d="M16.5116 14.9008C16.6955 14.7778 16.7448 14.5291 16.6218 14.3453C16.4989 14.1614 16.2502 14.1121 16.0664 14.2351C14.4806 15.2957 13.5078 16.7542 13.5078 18.8908C13.5078 20.163 13.7332 21.2029 13.9643 22.2695C14.3102 23.8656 14.5449 25.4583 14.5027 27.0977C14.4515 29.0884 14.062 30.9076 13.3133 32.6405C13.2255 32.8436 13.319 33.0793 13.522 33.167C13.7251 33.2547 13.9607 33.1612 14.0485 32.9582C14.8401 31.1259 15.2497 29.2053 15.3033 27.1183C15.3471 25.4147 15.106 23.759 14.7472 22.1002C14.5155 21.0289 14.3087 20.0725 14.3087 18.8908C14.3087 17.0601 15.114 15.8356 16.5116 14.9008Z" fill="#09094F"/>
<path d="M18.0746 13.4938C19.7363 13.155 21.5245 13.5736 22.8407 14.6389C25.1917 16.5418 25.5044 20.012 25.7577 22.8241L25.7706 22.9674C26.0981 26.5922 25.7233 30.113 24.9683 33.6488C24.9221 33.8651 24.7094 34.003 24.4931 33.9569C24.2768 33.9107 24.1389 33.6979 24.1851 33.4816C24.9287 29.9988 25.2912 26.5617 24.973 23.0394C24.9625 22.9228 24.952 22.8045 24.9414 22.6848L24.9412 22.6831C24.7162 20.1419 24.4343 16.9591 22.3368 15.2615C21.2115 14.3507 19.6682 13.9863 18.2346 14.2785C18.0179 14.3227 17.8064 14.1828 17.7622 13.9661C17.718 13.7494 17.8579 13.5379 18.0746 13.4938Z" fill="#09094F"/>
<path d="M24.4023 35.6415C24.4569 35.4271 24.3274 35.2092 24.1131 35.1546C23.8987 35.1 23.6807 35.2295 23.6262 35.4439C23.3841 36.3948 23.0111 37.2531 22.5381 38.0433C22.4245 38.2331 22.4863 38.479 22.676 38.5926C22.8658 38.7062 23.1117 38.6444 23.2253 38.4546C23.735 37.603 24.1397 36.6732 24.4023 35.6415Z" fill="#09094F"/>
<path d="M22.4441 29.8302C22.6637 29.8562 22.8207 30.0553 22.7947 30.2749C22.4165 33.4709 21.5627 36.3213 20.1926 38.7936C20.0854 38.987 19.8417 39.0569 19.6483 38.9497C19.4548 38.8425 19.3849 38.5988 19.4921 38.4054C20.8033 36.0394 21.6311 33.2925 21.9994 30.1808C22.0254 29.9612 22.2245 29.8042 22.4441 29.8302Z" fill="#09094F"/>
<path d="M22.3616 18.6807C22.0839 17.1973 20.8108 16.0626 19.2651 16.0626C17.1721 16.0626 15.7036 18.1723 16.2211 20.1351C17.0967 23.5998 17.2405 26.9391 16.6477 30.1552L16.6473 30.1576C16.1329 33.0452 15.1451 35.6428 13.7977 37.8441C13.6823 38.0327 13.7416 38.2792 13.9302 38.3947C14.1188 38.5102 14.3654 38.4509 14.4808 38.2622C15.8833 35.9709 16.9047 33.2785 17.4356 30.2992C18.051 26.959 17.8985 23.5026 16.9971 19.9368L16.996 19.9326C16.6079 18.4643 17.6898 16.8635 19.2651 16.8635C20.402 16.8635 21.3619 17.6998 21.5738 18.8254C22.1567 22.2063 22.4603 25.3416 22.2441 28.041C22.2265 28.2615 22.3909 28.4545 22.6114 28.4721C22.8318 28.4898 23.0248 28.3254 23.0425 28.1049C23.2666 25.307 22.9503 22.0945 22.3626 18.6864C22.3623 18.6845 22.3619 18.6826 22.3616 18.6807Z" fill="#09094F"/>
<path d="M18.0702 36.0245C18.2669 36.1256 18.3444 36.367 18.2434 36.5637L17.1823 38.6286C17.0812 38.8253 16.8398 38.9029 16.6431 38.8018C16.4464 38.7007 16.3688 38.4593 16.4699 38.2626L17.531 36.1977C17.6321 36.001 17.8735 35.9234 18.0702 36.0245Z" fill="#09094F"/>
<path d="M19.563 19.0669C19.5124 18.8516 19.2968 18.718 19.0815 18.7686C18.8662 18.8192 18.7327 19.0347 18.7833 19.25C20.1337 24.9985 19.9482 30.0462 18.3033 34.3462C18.2243 34.5528 18.3277 34.7843 18.5343 34.8633C18.7409 34.9423 18.9724 34.8389 19.0514 34.6323C20.7665 30.1488 20.9408 24.932 19.563 19.0669Z" fill="#09094F"/>
</svg>
