<svg width="16" height="17" viewBox="0 0 16 17" fill="none" xmlns="http://www.w3.org/2000/svg">
<path d="M5.47109 8.26185C5.53307 8.32377 5.58224 8.39729 5.61579 8.47822C5.64934 8.55916 5.66661 8.64591 5.66661 8.73352C5.66661 8.82113 5.64934 8.90788 5.61579 8.98881C5.58224 9.06974 5.53307 9.14327 5.47109 9.20518L4.25309 10.4239H10.6664C10.8432 10.4239 11.0128 10.4941 11.1378 10.6191C11.2628 10.7441 11.3331 10.9137 11.3331 11.0905C11.3331 11.2673 11.2628 11.4369 11.1378 11.5619C11.0128 11.6869 10.8432 11.7572 10.6664 11.7572H4.25309L5.47175 12.9759C5.53369 13.0377 5.58284 13.1112 5.61637 13.1921C5.64991 13.273 5.66719 13.3597 5.66722 13.4473C5.66725 13.5348 5.65004 13.6216 5.61655 13.7025C5.58307 13.7834 5.53398 13.8569 5.47209 13.9189C5.41019 13.9808 5.3367 14.0299 5.25581 14.0635C5.17492 14.097 5.08822 14.1143 5.00066 14.1143C4.91309 14.1144 4.82638 14.0971 4.74546 14.0637C4.66455 14.0302 4.59103 13.9811 4.52909 13.9192L2.17175 11.5619C2.04677 11.4368 1.97656 11.2673 1.97656 11.0905C1.97656 10.9137 2.04677 10.7442 2.17175 10.6192L4.52909 8.26185C4.65411 8.13687 4.82364 8.06666 5.00042 8.06666C5.1772 8.06666 5.34674 8.13687 5.47175 8.26185H5.47109ZM10.5284 2.92852C10.6432 2.81373 10.7959 2.74478 10.958 2.73459C11.12 2.7244 11.2802 2.77368 11.4084 2.87318L11.4711 2.92852L13.8284 5.28585C13.9432 5.40065 14.0122 5.55338 14.0223 5.7154C14.0325 5.87741 13.9833 6.03758 13.8838 6.16585L13.8284 6.22852L11.4711 8.58518C11.3511 8.70475 11.1901 8.77417 11.0208 8.77934C10.8515 8.78451 10.6866 8.72504 10.5596 8.61302C10.4325 8.501 10.3529 8.34482 10.3368 8.1762C10.3208 8.00759 10.3695 7.83918 10.4731 7.70518L10.5284 7.64252L11.7464 6.42385H5.33309C5.16317 6.42366 4.99973 6.3586 4.87617 6.24195C4.75262 6.12531 4.67826 5.96588 4.66831 5.79625C4.65835 5.62663 4.71354 5.4596 4.8226 5.3293C4.93166 5.19899 5.08636 5.11525 5.25509 5.09518L5.33309 5.09052H11.7471L10.5284 3.87052C10.4034 3.7455 10.3332 3.57596 10.3332 3.39918C10.3332 3.22241 10.4034 3.05354 10.5284 2.92852Z" fill="#3A5B8D"/>
</svg>
