<svg width="16" height="16" viewBox="0 0 16 16" fill="none" xmlns="http://www.w3.org/2000/svg">
<path d="M9.12744 5.10257L5.91878 8.50724C5.65744 8.78457 5.52678 8.92324 5.42278 8.8819C5.31878 8.84057 5.32744 8.6539 5.34411 8.27924L5.39811 7.0979M6.87411 10.4359L10.0828 7.03124C10.3441 6.7539 10.4748 6.61524 10.5788 6.65657C10.6828 6.6979 10.6741 6.88457 10.6568 7.25924L10.6034 8.44057" stroke="#3A5B8D" stroke-width="1.5" stroke-linecap="round" stroke-linejoin="round"/>
<path d="M8.00065 14.4359C11.6825 14.4359 14.6673 11.4511 14.6673 7.76924C14.6673 4.08734 11.6825 1.10257 8.00065 1.10257C4.31875 1.10257 1.33398 4.08734 1.33398 7.76924C1.33398 11.4511 4.31875 14.4359 8.00065 14.4359Z" stroke="#3A5B8D" stroke-width="1.5" stroke-linecap="round" stroke-linejoin="round"/>
</svg>
