<svg width="16" height="13" viewBox="0 0 16 13" fill="none" xmlns="http://www.w3.org/2000/svg">
<path d="M1.33268 4.76924C1.86312 4.76924 2.37182 4.55852 2.7469 4.18345C3.12197 3.80838 3.33268 3.29967 3.33268 2.76924M1.33268 8.76924C1.86312 8.76924 2.37182 8.97995 2.7469 9.35502C3.12197 9.73009 3.33268 10.2388 3.33268 10.7692M14.666 4.76924C14.1356 4.76924 13.6269 4.55852 13.2518 4.18345C12.8767 3.80838 12.666 3.29967 12.666 2.76924M14.666 8.76924C14.1356 8.76924 13.6269 8.97995 13.2518 9.35502C12.8767 9.73009 12.666 10.2388 12.666 10.7692M0.666016 2.10257H15.3327V11.4359H0.666016V2.10257ZM7.99935 9.4359C9.10402 9.4359 9.99935 8.24257 9.99935 6.76924C9.99935 5.2959 9.10402 4.10257 7.99935 4.10257C6.89468 4.10257 5.99935 5.2959 5.99935 6.76924C5.99935 8.24257 6.89468 9.4359 7.99935 9.4359Z" stroke="#3A5B8D" stroke-width="2.5"/>
</svg>
