<svg width="26" height="26" viewBox="0 0 26 26" fill="none" xmlns="http://www.w3.org/2000/svg">
<path d="M11.2716 0.0927753C6.95912 0.661525 3.25912 3.29902 1.34037 7.16777C0.47162 8.91777 0.07162 10.524 0.00912003 12.5303C-0.03463 13.8365 0.07787 14.8928 0.37162 16.0615C2.05287 22.749 8.72162 26.9553 15.4716 25.5928C20.8091 24.5115 24.8716 20.224 25.7091 14.7803C25.8529 13.849 25.8591 12.024 25.7154 11.0928C24.9154 5.86777 21.1716 1.68652 16.1466 0.405273C14.6154 0.0115235 12.7716 -0.100975 11.2716 0.0927753ZM10.1341 5.71152C10.5654 5.88652 10.8029 6.36152 10.7091 6.85527C10.6779 7.04277 10.5341 7.23027 10.0029 7.76152L9.34662 8.43652L14.2904 8.44902C19.1716 8.46777 19.2341 8.46777 19.4029 8.59902C19.7341 8.84277 19.8341 9.04277 19.8341 9.43652C19.8341 9.83027 19.7341 10.0303 19.4029 10.274C19.2341 10.4053 19.1716 10.4053 14.2904 10.424L9.34662 10.4365L10.0029 11.1115C10.7154 11.8303 10.8029 11.999 10.7091 12.4803C10.6529 12.7928 10.2779 13.1615 9.96537 13.2178C9.44662 13.3178 9.33412 13.2365 7.63412 11.5428C5.39662 9.30527 5.40287 9.57402 7.57162 7.38027C9.34037 5.59902 9.55287 5.46152 10.1341 5.71152ZM16.6529 12.8053C17.0654 13.1053 19.7279 15.8303 19.7966 16.0178C19.8966 16.2865 19.8779 16.6053 19.7466 16.8615C19.5904 17.1553 16.7029 20.0303 16.4716 20.1178C15.6779 20.4178 14.8966 19.749 15.1091 18.9553C15.1591 18.7803 15.3404 18.549 15.8029 18.0928C16.1466 17.749 16.4279 17.449 16.4279 17.424C16.4279 17.3928 14.2341 17.374 11.5529 17.374C6.14662 17.374 6.47162 17.399 6.13412 16.9615C5.99662 16.7803 5.96537 16.6678 5.96537 16.399C5.96537 16.024 6.08412 15.8115 6.42787 15.574L6.63412 15.4365H11.5279C14.2216 15.4365 16.4279 15.4178 16.4279 15.3865C16.4279 15.3615 16.1716 15.0865 15.8591 14.7803C15.0029 13.9365 14.8654 13.474 15.3216 12.9553C15.5591 12.6865 15.6841 12.6303 16.0904 12.6303C16.3466 12.624 16.4591 12.6615 16.6529 12.8053Z" fill="#3A5B8D"/>
</svg>
