<svg width="25" height="24" viewBox="0 0 25 24" fill="none" xmlns="http://www.w3.org/2000/svg">
<rect width="24.063" height="24" rx="12" fill="#3A5B8D"/>
<path d="M12.0317 22.75C17.9843 22.75 22.8099 17.9371 22.8099 12C22.8099 6.06294 17.9843 1.25 12.0317 1.25C6.079 1.25 1.25342 6.06294 1.25342 12C1.25342 17.9371 6.079 22.75 12.0317 22.75Z" stroke="white" stroke-width="0.5" stroke-linecap="round" stroke-linejoin="round"/>
<path d="M12.0316 18.25C15.4924 18.25 18.298 15.4518 18.298 12C18.298 8.54822 15.4924 5.75 12.0316 5.75C8.57071 5.75 5.76514 8.54822 5.76514 12C5.76514 15.4518 8.57071 18.25 12.0316 18.25Z" stroke="white" stroke-width="0.5" stroke-linecap="round" stroke-linejoin="round"/>
<path d="M9.42191 14.6552C9.57884 14.9135 9.80711 15.1211 10.0794 15.2533C10.3516 15.3854 10.6563 15.4364 10.9569 15.4002H11.9661C12.444 15.3825 12.9021 15.2054 13.267 14.8971C13.632 14.5889 13.8826 14.1674 13.9789 13.7002C14.0291 13.4937 14.0308 13.2785 13.9837 13.0712C13.9367 12.864 13.8421 12.6705 13.7075 12.5058C13.5729 12.3412 13.4019 12.2098 13.2079 12.1221C13.0139 12.0344 12.8021 11.9926 12.5892 12.0002H11.4743C11.2614 12.0077 11.0496 11.966 10.8556 11.8783C10.6616 11.7906 10.4906 11.6592 10.356 11.4945C10.2214 11.3299 10.1268 11.1364 10.0798 10.9291C10.0327 10.7219 10.0344 10.5067 10.0846 10.3002C10.1809 9.83298 10.4315 9.41149 10.7965 9.10325C11.1614 8.79502 11.6195 8.61787 12.0974 8.60019H13.1066C13.4072 8.56397 13.7119 8.61499 13.9841 8.74713C14.2564 8.87927 14.4847 9.08692 14.6416 9.34519M12.6549 8.60019L12.8108 7.75019M11.2527 16.2502L11.4086 15.4002M12.0317 18.2502V22.7497M6.61456 8.85819L2.71484 6.59619M17.478 8.90919L21.3993 6.68369" stroke="white" stroke-width="0.5" stroke-linecap="round" stroke-linejoin="round"/>
</svg>
