<svg width="11" height="10" viewBox="0 0 11 10" fill="none" xmlns="http://www.w3.org/2000/svg">
<path fill-rule="evenodd" clip-rule="evenodd" d="M2.8746 2.50308C2.8746 1.12067 4.11857 0 5.65309 0C7.18761 0 8.43159 1.12067 8.43159 2.50308C8.43159 3.8855 7.18761 5.00617 5.65309 5.00617C4.11857 5.00617 2.8746 3.8855 2.8746 2.50308ZM5.65309 0.883441C4.66017 0.883441 3.85524 1.60858 3.85524 2.50308C3.85524 3.39759 4.66017 4.12273 5.65309 4.12273C6.64602 4.12273 7.45094 3.39759 7.45094 2.50308C7.45094 1.60858 6.64602 0.883441 5.65309 0.883441Z" fill="#4B5563"/>
<path fill-rule="evenodd" clip-rule="evenodd" d="M3.03804 6.77305C2.22565 6.77305 1.56707 7.36635 1.56707 8.09821V8.79806C1.56707 8.80872 1.57564 8.81781 1.58732 8.81952C4.28001 9.21557 7.02618 9.21557 9.71887 8.81952C9.73054 8.81781 9.73911 8.80872 9.73911 8.79806V8.09821C9.73911 7.36635 9.08054 6.77305 8.26815 6.77305H8.0453C8.02807 6.77305 8.01095 6.7755 7.99457 6.78032L7.42872 6.94677C6.27494 7.28617 5.03124 7.28617 3.87746 6.94677L3.31162 6.78032C3.29524 6.7755 3.27812 6.77305 3.26089 6.77305H3.03804ZM0.586426 8.09821C0.586426 6.87844 1.68405 5.88961 3.03804 5.88961H3.26089C3.3815 5.88961 3.50136 5.90679 3.61601 5.94052L4.18185 6.10697C5.13784 6.38819 6.16834 6.38819 7.12433 6.10697L7.69017 5.94052C7.80483 5.90679 7.92468 5.88961 8.0453 5.88961H8.26815C9.62213 5.88961 10.7198 6.87843 10.7198 8.09821V8.79806C10.7198 9.24169 10.3629 9.61994 9.87688 9.69142C7.07954 10.1029 4.22665 10.1029 1.4293 9.69142C0.943305 9.61994 0.586426 9.24169 0.586426 8.79806V8.09821Z" fill="#4B5563"/>
</svg>
