<svg width="58" height="58" viewBox="0 0 58 58" fill="none" xmlns="http://www.w3.org/2000/svg">
<rect x="0.5" y="0.5" width="57" height="57" rx="28.5" fill="#CBD5E1"/>
<rect x="0.5" y="0.5" width="57" height="57" rx="28.5" stroke="#CBD5E1"/>
<path d="M31.8704 18.1818L31.4549 33.4588H27.5558L27.1296 18.1818H31.8704ZM29.5053 40.277C28.8022 40.277 28.1985 40.0284 27.6942 39.5312C27.19 39.027 26.9414 38.4233 26.9485 37.7202C26.9414 37.0241 27.19 36.4276 27.6942 35.9304C28.1985 35.4332 28.8022 35.1847 29.5053 35.1847C30.18 35.1847 30.7731 35.4332 31.2844 35.9304C31.7958 36.4276 32.055 37.0241 32.0621 37.7202C32.055 38.1889 31.9308 38.6186 31.6893 39.0092C31.4549 39.3928 31.146 39.7017 30.7624 39.9361C30.3789 40.1634 29.9599 40.277 29.5053 40.277Z" fill="black"/>
</svg>
